<svg viewBox="0 0 48 48" xmlns="http://www.w3.org/2000/svg">
    <path
        d="M38 9H12C11.4477 9 11 9.44772 11 10V12.1944H8V10C8 7.79086 9.79086 6 12 6H38C40.2091 6 42 7.79086 42 10V39C42 41.2091 40.2091 43 38 43H12C9.79086 43 8 41.2091 8 39V34.8056H11V39C11 39.5523 11.4477 40 12 40H38C38.5523 40 39 39.5523 39 39V10C39 9.44772 38.5523 9 38 9ZM32 20C32 22.4125 30.7796 24.5399 28.9225 25.7986C32.4956 27.3238 35 30.8694 35 35H32C32 31.134 28.866 28 25 28C21.134 28 18 31.134 18 35H15C15 30.8694 17.5044 27.3238 21.0775 25.7986C19.2204 24.5399 18 22.4125 18 20C18 16.134 21.134 13 25 13C28.866 13 32 16.134 32 20ZM29 20C29 22.2091 27.2091 24 25 24C22.7909 24 21 22.2091 21 20C21 17.7909 22.7909 16 25 16C27.2091 16 29 17.7909 29 20ZM8.5 16C7.67157 16 7 16.6716 7 17.5C7 18.3284 7.67157 19 8.5 19H10.5C11.3284 19 12 18.3284 12 17.5C12 16.6716 11.3284 16 10.5 16H8.5ZM7 23.5C7 22.6716 7.67157 22 8.5 22H10.5C11.3284 22 12 22.6716 12 23.5C12 24.3284 11.3284 25 10.5 25H8.5C7.67157 25 7 24.3284 7 23.5ZM8.5 28C7.67157 28 7 28.6716 7 29.5C7 30.3284 7.67157 31 8.5 31H10.5C11.3284 31 12 30.3284 12 29.5C12 28.6716 11.3284 28 10.5 28H8.5Z" />
</svg>