<?xml version="1.0" encoding="UTF-8"?>
<svg width="48px" height="48px" viewBox="0 0 48 48" version="1.1" xmlns="http://www.w3.org/2000/svg" xmlns:xlink="http://www.w3.org/1999/xlink">
    <title>通讯录_lm</title>
    <g id="通讯录_lm" stroke="none" stroke-width="1" fill="none" fill-rule="evenodd">
        <g id="通讯录" transform="translate(6.000000, 6.000000)" fill="#4D4D4D" fill-rule="nonzero">
            <path d="M31,0 C33.209139,0 35,1.790861 35,4 L35,33 C35,35.209139 33.209139,37 31,37 L5,37 C2.790861,37 1,35.209139 1,33 L1,30 L4,30 L4,33 C4,33.5128358 4.38604019,33.9355072 4.88337887,33.9932723 L5,34 L31,34 C31.5128358,34 31.9355072,33.6139598 31.9932723,33.1166211 L32,33 L32,4 C32,3.48716416 31.6139598,3.06449284 31.1166211,3.00672773 L31,3 L5,3 C4.48716416,3 4.06449284,3.38604019 4.00672773,3.88337887 L4,4 L4,7 L1,7 L1,4 C1,1.790861 2.790861,0 5,0 L31,0 Z" id="形状结合"></path>
            <path d="M18,7 C21.8659932,7 25,10.1340068 25,14 C25,17.8659932 21.8659932,21 18,21 C14.1340068,21 11,17.8659932 11,14 C11,10.1340068 14.1340068,7 18,7 Z M18,10 C15.790861,10 14,11.790861 14,14 C14,16.209139 15.790861,18 18,18 C20.209139,18 22,16.209139 22,14 C22,11.790861 20.209139,10 18,10 Z" id="椭圆形"></path>
            <path d="M25,29 L28,29 C28,23.4772 23.5228,19 18,19 C12.4772,19 8,23.4772 8,29 L11,29 C11,25.134 14.134,22 18,22 C21.866,22 25,25.134 25,29 Z" id="路径"></path>
            <rect id="矩形" x="0" y="11" width="5" height="3" rx="1.5"></rect>
            <rect id="矩形" x="0" y="17" width="5" height="3" rx="1.5"></rect>
            <rect id="矩形" x="0" y="23" width="5" height="3" rx="1.5"></rect>
        </g>
    </g>
</svg>