<svg width="32" height="32" viewBox="0 0 32 32" fill="none" xmlns="http://www.w3.org/2000/svg">
<path fill-rule="evenodd" clip-rule="evenodd" d="M15 10.6377V17.6667L20.5 21L21.5 19.5L17 16.7377V10.6377H15Z" fill="#333333"/>
<path fill-rule="evenodd" clip-rule="evenodd" d="M8 17C8 21.4524 11.5476 25 16 25C20.4524 25 24 21.4524 24 17C24 12.5476 20.4524 9 16 9C11.5476 9 8 12.5476 8 17ZM16 27C10.443 27 6 22.557 6 17C6 11.443 10.443 7 16 7C21.557 7 26 11.443 26 17C26 22.557 21.557 27 16 27Z" fill="#333333"/>
<path fill-rule="evenodd" clip-rule="evenodd" d="M26.3594 10.7684L20.3594 5.76838L21.6397 4.23193L27.6397 9.23193L26.3594 10.7684Z" fill="#333333"/>
<path fill-rule="evenodd" clip-rule="evenodd" d="M5.64062 10.7684L11.6406 5.76838L10.3603 4.23193L4.36026 9.23193L5.64062 10.7684Z" fill="#333333"/>
</svg>
