<svg viewBox="0 0 48 48" xmlns="http://www.w3.org/2000/svg">
  <path
    d="M34.3972 7.38872L33.338 6.5L31.4097 8.79813L32.5541 9.75841L34.3972 7.38872ZM38.9966 11.2481L37.1535 13.6178L39.0701 15.226L40.9985 12.9279L38.9966 11.2481ZM30.812 11.9983C28.7493 11.0362 26.4419 10.5001 24 10.5001C15.1089 10.5001 8.00004 17.6089 8.00004 26.5001C8.00004 30.3792 9.3532 33.9191 11.6172 36.6773L13.517 34.2346C11.9321 32.0801 11 29.4088 11 26.5001C11 19.2657 16.7657 13.5001 24 13.5001C25.742 13.5001 27.3988 13.8344 28.9105 14.443L30.812 11.9983ZM33.8061 17.9217L35.6756 15.5179C38.3622 18.3753 40 22.2324 40 26.5001C40 35.3912 32.8912 42.5001 24 42.5001C21.1737 42.5001 18.5275 41.7817 16.2325 40.5162L18.1032 38.111C19.8685 39.0005 21.8707 39.5001 24 39.5001C31.2344 39.5001 37 33.7344 37 26.5001C37 23.1986 35.7992 20.203 33.8061 17.9217ZM25 19.4707V17.9567H22V23.3279L25 19.4707ZM24.4079 30.0051L26.1339 27.7859L31.5 31.0002L30 33.5002L24.4079 30.0051ZM16.5888 8.79819L14.6604 6.50006L7 12.9279L8.92836 15.2261L16.5888 8.79819ZM39.921 5.31604C40.5749 5.82465 40.6927 6.76706 40.1841 7.42098L12.1841 43.421C11.6755 44.0749 10.7331 44.1927 10.0792 43.6841C9.42524 43.1755 9.30744 42.2331 9.81604 41.5792L37.816 5.57916C38.3246 4.92524 39.2671 4.80744 39.921 5.31604Z" />
</svg>