<svg width="48" height="48" viewBox="0 0 48 48" fill="none" xmlns="http://www.w3.org/2000/svg">
<g clip-path="url(#clip0_6598_198311)">
<path fill-rule="evenodd" clip-rule="evenodd" d="M20 37.9961C20 40.2061 21.79 41.9961 24 41.9961C26.21 41.9961 28 40.2061 28 37.9961H20Z" fill="#4D4D4D"/>
<path fill-rule="evenodd" clip-rule="evenodd" d="M37.899 7.80514C38.5622 8.3016 38.6974 9.24168 38.2009 9.90487L14.2009 41.9649C13.7044 42.6281 12.7644 42.7632 12.1012 42.2668C11.438 41.7703 11.3028 40.8302 11.7993 40.167L35.7993 8.10703C36.2957 7.44384 37.2358 7.30868 37.899 7.80514Z" fill="#4D4D4D"/>
<path fill-rule="evenodd" clip-rule="evenodd" d="M6 19C6 18.4477 6.44772 18 7 18H8C8.55228 18 9 18.4477 9 19V27C9 27.5523 8.55228 28 8 28H7C6.44772 28 6 27.5523 6 27V19ZM1 21C1 20.4477 1.44772 20 2 20H3C3.55228 20 4 20.4477 4 21V25C4 25.5523 3.55228 26 3 26H2C1.44772 26 1 25.5523 1 25V21ZM42 19C42 18.4477 41.5523 18 41 18H40C39.4477 18 39 18.4477 39 19V27C39 27.5523 39.4477 28 40 28H41C41.5523 28 42 27.5523 42 27V19ZM47 21C47 20.4477 46.5523 20 46 20H45C44.4477 20 44 20.4477 44 21V25C44 25.5523 44.4477 26 45 26H46C46.5523 26 47 25.5523 47 25V21Z" fill="#4D4D4D"/>
<path fill-rule="evenodd" clip-rule="evenodd" d="M22.7697 6.32764C23.0499 6.18274 23.4965 6 24 6C24.5171 6 24.9686 6.19519 25.2373 6.3369C25.5318 6.49218 25.8413 6.70889 26.0851 6.96434L26.0961 6.97586L26.1068 6.98761C26.2857 7.18323 26.4808 7.44727 26.6393 7.73499C26.7761 7.98344 27 8.45025 27 9V9.07655C29.4522 9.66408 32.0052 10.8586 33.6956 13.0942C35.3213 15.2348 36 17.7019 36 20.5V29.596L37.559 32.2799C38.1143 33.2167 38.1415 34.3866 37.6612 35.3432C37.1719 36.3174 36.1841 37 35.031 37H12.969C11.8159 37 10.828 36.3174 10.3388 35.3432C9.85843 34.3866 9.88571 33.2167 10.4409 32.2799L12 29.596V20.7821C12 18.0476 12.6262 15.2602 14.3142 13.0813C15.9509 10.9688 18.4822 9.60885 21 9.07124V9C21 7.98935 21.6272 7.28587 21.8437 7.04306C21.8548 7.03061 21.8648 7.01938 21.8736 7.00938L23 8L21.872 7.01124C22.1349 6.71134 22.4728 6.48123 22.7697 6.32764ZM21.8189 11.9661L21.7874 11.9722C19.7646 12.3671 17.8385 13.4307 16.6858 14.9187C15.5383 16.3998 15 18.4566 15 20.7821V30.404L13.0266 33.8014L13.0219 33.8092C12.997 33.8509 12.9894 33.9365 13.0197 33.9968C13.0203 33.9979 13.0208 33.999 13.0214 34H34.9786C34.9791 33.999 34.9797 33.9979 34.9802 33.9968C35.0105 33.9365 35.003 33.8509 34.9781 33.8092L34.9734 33.8014L33 30.404V20.5C33 18.2189 32.4597 16.4265 31.3056 14.9074L31.3033 14.9044C30.1596 13.3912 28.2907 12.449 26.1651 11.9621L26.1575 11.9604L24 11.4426L21.8189 11.9661Z" fill="#4D4D4D"/>
</g>
<defs>
<clipPath id="clip0_6598_198311">
<rect width="48" height="48" fill="white"/>
</clipPath>
</defs>
</svg>
