<svg viewBox="0 0 48 48" xmlns="http://www.w3.org/2000/svg">
  <path fill-rule="evenodd" clip-rule="evenodd"
    d="M24 6C23.4965 6 23.0499 6.18274 22.7697 6.32764C22.4734 6.48093 22.1362 6.71044 21.8735 7.00948L23 8L21.872 7.01124L21.8437 7.04306C21.6272 7.28587 21 7.98935 21 9V9.07124C18.4822 9.60885 15.9509 10.9688 14.3142 13.0813C12.6262 15.2602 12 18.0476 12 20.7821V29.596L10.4409 32.2799C9.88571 33.2167 9.85843 34.3866 10.3388 35.3432C10.828 36.3174 11.8159 37 12.969 37H14.1701L11.7993 40.167C11.3028 40.8302 11.438 41.7703 12.1012 42.2668C12.7644 42.7632 13.7044 42.6281 14.2009 41.9649L17.9176 37H35.031C36.1841 37 37.1719 36.3174 37.6612 35.3432C38.1415 34.3866 38.1143 33.2167 37.559 32.2799L36 29.596V20.5C36 18.345 35.5974 16.3863 34.6697 14.6219L38.2009 9.90487C38.6974 9.24168 38.5622 8.3016 37.899 7.80514C37.2358 7.30868 36.2957 7.44384 35.7993 8.10703L32.8155 12.0929C31.1852 10.4894 29.0571 9.56942 27 9.07655V9C27 8.45025 26.7761 7.98344 26.6393 7.73499C26.4808 7.44727 26.2857 7.18323 26.1068 6.98761L26.0961 6.97586L26.0851 6.96434C25.8413 6.70889 25.5318 6.49218 25.2373 6.3369C24.9686 6.19519 24.5171 6 24 6ZM30.9931 14.5273C29.8369 13.2328 28.1082 12.4072 26.1651 11.9621L26.1575 11.9604L24 11.4426L21.8189 11.9661L21.7874 11.9722C19.7646 12.3671 17.8385 13.4307 16.6858 14.9187C15.5383 16.3998 15 18.4566 15 20.7821V30.404L13.0266 33.8014L13.0219 33.8092C12.997 33.8509 12.9894 33.9365 13.0197 33.9968L13.0214 34H16.4159L30.9931 14.5273ZM20.1634 34H34.9786L34.9802 33.9968C35.0105 33.9365 35.003 33.8509 34.9781 33.8092L34.9734 33.8014L33 30.404V20.5C33 19.3559 32.8641 18.3348 32.583 17.4095L20.1634 34ZM20 37.9961C20 40.2061 21.79 41.9961 24 41.9961C26.21 41.9961 28 40.2061 28 37.9961H20Z" />
</svg>