<svg viewBox="0 0 48 48" xmlns="http://www.w3.org/2000/svg">
  <path
    d="M23.5 5.5C22.7205 5.5 22.0313 5.83635 21.5457 6.36853C21.0048 6.96045 20.7919 7.70844 20.7919 8.42V8.5198L20.7659 8.52455L20.7595 8.52575C17.9917 9.04532 15.6086 10.5566 13.9228 12.6489C12.2357 14.7427 11.2507 17.4141 11.2507 20.29V28.8641L9.46936 31.7485L9.46827 31.7502C8.88055 32.6977 8.84908 33.8922 9.35684 34.8644C9.87065 35.8482 10.8841 36.5 12.0277 36.5H12.1707L14.4164 33.5H12.0349C12.0311 33.4971 12.0236 33.49 12.016 33.4756C12.0066 33.4576 11.999 33.4303 12.0001 33.398C12.0012 33.366 12.0102 33.3436 12.0177 33.3315L12.0197 33.3282L14.2507 29.7159V20.29C14.2507 18.1059 14.997 16.0973 16.2588 14.5311C17.5213 12.9643 19.2845 11.8558 21.3098 11.4748L23.5708 11.0607L25.6061 11.4715C27.1203 11.8067 28.4545 12.4089 29.5433 13.2931L31.3424 10.8898C29.8588 9.71168 28.1052 8.94996 26.2388 8.53895L26.2259 8.53611L26.2081 8.53251V8.23C26.2081 7.50252 25.9182 6.82572 25.4524 6.33615L25.4414 6.32459L25.4302 6.31327C24.946 5.82543 24.2677 5.5 23.5 5.5ZM21.5457 6.36853L21.5448 6.36945L22.6534 7.38L21.5465 6.36761L21.5457 6.36853ZM34.992 16.0265L32.6767 19.1194C32.7246 19.5026 32.7493 19.8932 32.7493 20.29V29.7159L34.9802 33.3282L34.9823 33.3315C34.9898 33.3436 34.9988 33.366 34.9999 33.398C35.001 33.4303 34.9934 33.4576 34.9839 33.4756C34.9764 33.49 34.9689 33.4971 34.9651 33.5H21.9114L19.6656 36.5H34.9722C36.1158 36.5 37.1293 35.8482 37.6431 34.8644C38.1509 33.8921 38.1194 32.6974 37.5315 31.7499L37.5306 31.7485L35.7493 28.8641V20.29C35.7493 18.79 35.4807 17.3532 34.992 16.0265ZM20 37.9961C20 40.2061 21.79 41.9961 24 41.9961C26.21 41.9961 28 40.2061 28 37.9961H20ZM38.2009 9.89901C38.6974 9.23582 38.5622 8.29574 37.899 7.79928C37.2358 7.30282 36.2957 7.43798 35.7993 8.10117L11.7993 40.1612C11.3028 40.8244 11.438 41.7644 12.1012 42.2609C12.7644 42.7574 13.7044 42.6222 14.2009 41.959L38.2009 9.89901Z" />
</svg>