<svg width="32" height="32" viewBox="0 0 32 32" fill="none" xmlns="http://www.w3.org/2000/svg">
<path fill-rule="evenodd" clip-rule="evenodd" d="M16 4C15.4477 4 15 4.44772 15 5V6C11.6863 6 8.99985 8.68629 8.99985 12V17.7458C8.99985 18.2376 8.85429 18.7183 8.58152 19.1275L7.66395 20.5038C6.95264 21.5708 7.71751 23 8.99985 23H22.9999C24.2822 23 25.0471 21.5708 24.3358 20.5038L23.4182 19.1275C23.1454 18.7183 22.9999 18.2376 22.9999 17.7458V12C22.9999 8.68634 20.3136 6.00008 17 6V5C17 4.44772 16.5523 4 16 4ZM14.9999 8H16.9999C19.209 8 20.9999 9.79086 20.9999 12V17.7458C20.9999 18.6324 21.2623 19.4992 21.7541 20.2369L22.2628 21H9.73689L10.2456 20.2369C10.7374 19.4992 10.9999 18.6324 10.9999 17.7458V12C10.9999 9.79086 12.7907 8 14.9999 8Z" fill="#333333"/>
<path d="M13 24C13 25.6569 14.3431 27 16 27C17.6569 27 19 25.6569 19 24H13Z" fill="#333333"/>
</svg>
