<?xml version="1.0" encoding="UTF-8"?>
<svg width="32px" height="32px" viewBox="0 0 32 32" version="1.1" xmlns="http://www.w3.org/2000/svg" xmlns:xlink="http://www.w3.org/1999/xlink">
    <title>all_lm</title>
    <g id="all_lm" stroke="none" stroke-width="1" fill="none" fill-rule="evenodd">
        <g transform="translate(5.000000, 5.000000)" fill="#333333" fill-rule="nonzero" id="矩形">
            <path d="M8.5,0 C9.32842712,0 10,0.671572875 10,1.5 L10,8.5 C10,9.32842712 9.32842712,10 8.5,10 L1.5,10 C0.671572875,10 0,9.32842712 0,8.5 L0,1.5 C0,0.671572875 0.671572875,0 1.5,0 L8.5,0 Z M8,2 L2,2 L2,8 L8,8 L8,2 Z"></path>
            <path d="M20.5,0 C21.3284271,0 22,0.671572875 22,1.5 L22,8.5 C22,9.32842712 21.3284271,10 20.5,10 L13.5,10 C12.6715729,10 12,9.32842712 12,8.5 L12,1.5 C12,0.671572875 12.6715729,0 13.5,0 L20.5,0 Z M20,2 L14,2 L14,8 L20,8 L20,2 Z"></path>
            <path d="M8.5,12 C9.32842712,12 10,12.6715729 10,13.5 L10,20.5 C10,21.3284271 9.32842712,22 8.5,22 L1.5,22 C0.671572875,22 0,21.3284271 0,20.5 L0,13.5 C0,12.6715729 0.671572875,12 1.5,12 L8.5,12 Z M8,14 L2,14 L2,20 L8,20 L8,14 Z"></path>
            <path d="M20.5,12 C21.3284271,12 22,12.6715729 22,13.5 L22,20.5 C22,21.3284271 21.3284271,22 20.5,22 L13.5,22 C12.6715729,22 12,21.3284271 12,20.5 L12,13.5 C12,12.6715729 12.6715729,12 13.5,12 L20.5,12 Z M20,14 L14,14 L14,20 L20,20 L20,14 Z"></path>
        </g>
    </g>
</svg>