<svg viewBox="0 0 48 48" xmlns="http://www.w3.org/2000/svg">
    <g transform="translate(6.000000, 5.221825)">
        <path
            d="M13,20.7781746 C14.6568542,20.7781746 16,22.1213203 16,23.7781746 L16,33.7781746 C16,35.4350288 14.6568542,36.7781746 13,36.7781746 L3,36.7781746 C1.34314575,36.7781746 0,35.4350288 0,33.7781746 L0,23.7781746 C0,22.1213203 1.34314575,20.7781746 3,20.7781746 L13,20.7781746 Z M32,20.7781746 C33.6568542,20.7781746 35,22.1213203 35,23.7781746 L35,33.7781746 C35,35.4350288 33.6568542,36.7781746 32,36.7781746 L22,36.7781746 C20.3431458,36.7781746 19,35.4350288 19,33.7781746 L19,23.7781746 C19,22.1213203 20.3431458,20.7781746 22,20.7781746 L32,20.7781746 Z M13,23.7781746 L3,23.7781746 L3,33.7781746 L13,33.7781746 L13,23.7781746 Z M32,23.7781746 L22,23.7781746 L22,33.7781746 L32,33.7781746 L32,23.7781746 Z M29.4142136,0.878679656 L36.4852814,7.94974747 C37.6568542,9.12132034 37.6568542,11.0208153 36.4852814,12.1923882 L29.4142136,19.263456 C28.2426407,20.4350288 26.3431458,20.4350288 25.1715729,19.263456 L18.1005051,12.1923882 C16.9289322,11.0208153 16.9289322,9.12132034 18.1005051,7.94974747 L25.1715729,0.878679656 C26.3431458,-0.292893219 28.2426407,-0.292893219 29.4142136,0.878679656 Z M13,1.77817459 C14.6568542,1.77817459 16,3.12132034 16,4.77817459 L16,14.7781746 C16,16.4350288 14.6568542,17.7781746 13,17.7781746 L3,17.7781746 C1.34314575,17.7781746 0,16.4350288 0,14.7781746 L0,4.77817459 C0,3.12132034 1.34314575,1.77817459 3,1.77817459 L13,1.77817459 Z M27.2928932,3 L20.2218254,10.0710678 L27.2928932,17.1421356 L34.363961,10.0710678 L27.2928932,3 Z M13,4.77817459 L3,4.77817459 L3,14.7781746 L13,14.7781746 L13,4.77817459 Z">
        </path>
    </g>
</svg>