<svg viewBox="0 0 48 48" xmlns="http://www.w3.org/2000/svg">
    <path fill-rule="evenodd" clip-rule="evenodd"
        d="M29 27.5C29 30.5376 26.5376 33 23.5 33C20.4624 33 18 30.5376 18 27.5C18 24.9824 19.6915 22.86 22 22.207V14H25V17H28V20H25V22.207C27.3085 22.86 29 24.9824 29 27.5ZM26 27.5C26 28.8807 24.8807 30 23.5 30C22.1193 30 21 28.8807 21 27.5C21 26.1193 22.1193 25 23.5 25C24.8807 25 26 26.1193 26 27.5ZM31.747 7.91569C29.2591 7.343 26.4879 7 23.5 7C20.5121 7 17.7409 7.34256 15.253 7.91569C14.4672 8.0946 13.6895 8.30698 12.922 8.55225C12.545 8.67387 12.2673 8.77362 12.096 8.841C10.3252 9.42287 9 11.3667 9 13.2873V29.0798C9 30.8538 10.0414 33.0019 11.4237 34.0471L20.8004 41.1351C22.3273 42.2896 24.6758 42.287 26.1996 41.1351L35.5763 34.0471C36.9648 32.9976 38 30.8599 38 29.0798V13.2873C38 11.3794 36.6708 9.44344 34.9119 8.84406C34.7415 8.77669 34.4611 8.67606 34.078 8.55225C33.4026 8.33437 32.6227 8.11694 31.747 7.91569ZM30.0407 10.7587C28.0676 10.2842 25.8697 10 23.5 10C21.1303 10 18.9324 10.2838 16.9593 10.7587C16.3361 10.907 15.7193 11.0829 15.1106 11.2861C14.8116 11.3869 14.5913 11.4696 14.4554 11.5254C13.051 12.0075 12 13.6181 12 15.2095V28.2947C12 29.7646 12.8259 31.5445 13.9222 32.4105L21.3589 38.2833C22.5699 39.24 24.4325 39.2378 25.6411 38.2833L33.0778 32.4105C34.179 31.5408 35 29.7697 35 28.2947V15.2095C35 13.6286 33.9458 12.0246 32.5508 11.5279C32.4156 11.4721 32.1933 11.3887 31.8894 11.2861C31.3538 11.1056 30.7352 10.9255 30.0407 10.7587Z" />
</svg>