<?xml version="1.0" encoding="UTF-8"?>
<svg width="48px" height="48px" viewBox="0 0 48 48" version="1.1" xmlns="http://www.w3.org/2000/svg" xmlns:xlink="http://www.w3.org/1999/xlink">
    <title>应用隐藏_lm</title>
    <g id="应用隐藏_lm" stroke="none" stroke-width="1" fill="none" fill-rule="evenodd">
        <g id="编组" transform="translate(9.000000, 6.000000)" fill="#4D4D4D">
            <path d="M14.5,0 C15.7301713,0 17.1646409,0.0907992828 18.803409,0.272397848 L19.7175435,0.380456499 L20.6722,0.506524925 L21.6673784,0.650603126 L22.7030789,0.812691101 L23.7793013,0.992788852 L24.8960458,1.19089638 C27.2727447,1.62383648 29,3.69414385 29,6.10995316 L29,23.4269105 C29,25.041666 28.2201716,26.5570203 26.906191,27.4955779 L17.2465918,34.3952916 C15.8942834,35.3612261 14.0855866,35.3903911 12.7028383,34.4685588 L2.22649902,27.4843327 C0.835505677,26.5570038 0,24.9958471 0,23.3240812 L0,6.10995487 C0,3.69413898 1.72725669,1.62382601 4.10396384,1.19089462 L5.22070714,0.99278739 L6.2969285,0.812689904 L7.33262793,0.650602167 L8.32780543,0.506524178 L9.28246099,0.380455939 L10.1965946,0.272397447 C11.8353612,0.090799149 13.2698296,0 14.5,0 Z M14.5,3 C13.1645275,3 11.5298273,3.12074548 9.60308059,3.36376486 L8.69310201,3.48461539 L7.74180629,3.62286364 L6.7493503,3.77854303 C6.58051967,3.80594404 6.40998056,3.83407274 6.23773625,3.86292982 L5.18383407,4.0448185 C5.00478201,4.07659191 4.82403129,4.10909509 4.64158516,4.14232873 C3.74371752,4.30588068 3.07756743,5.0536336 3.00632311,5.95026833 L3,6.10995487 L3,23.3240812 C3,23.9370621 3.28082274,24.5128659 3.75619416,24.8902881 L3.89059961,24.9881818 L14.3669389,31.972408 C14.6742163,32.1772596 15.0656316,32.1942599 15.3862616,32.025907 L15.5028772,31.9540911 L25.1624764,25.0543775 C25.6442693,24.7102397 25.9465277,24.1722341 25.9935583,23.5874472 L26,23.4269105 L26,6.10995316 C26,5.14363096 25.3090967,4.31550519 24.3584242,4.14233045 L23.8161748,4.04482007 L22.7622715,3.86293112 L21.7492932,3.69852341 C21.5838826,3.67257703 21.4201837,3.64735766 21.2581999,3.62286458 L20.3069032,3.48461611 L19.3969237,3.36376541 C17.4701752,3.12074567 15.8354735,3 14.5,3 Z" id="矩形" fill-rule="nonzero"></path>
            <path d="M14.5,10 C17.9006422,10 20.8839567,12.1004801 22.5623276,13.9870224 L22.8370996,14.3079021 C23.5784629,15.2086763 24,16.0277778 24,16.5 C24,16.9722222 23.5784629,17.7913237 22.8370996,18.6920979 L22.5623276,19.0129776 C20.8839567,20.8995199 17.9006422,23 14.5,23 C11.0993578,23 8.11604327,20.8995199 6.43767237,19.0129776 L6.16290039,18.6920979 C5.42153711,17.7913237 5,16.9722222 5,16.5 C5,16.0277778 5.42153711,15.2086763 6.16290039,14.3079021 L6.43767237,13.9870224 C8.11604327,12.1004801 11.0993578,10 14.5,10 Z M14.5,13 C12.9094227,13 11.2005018,13.7400457 9.70687983,14.9889575 C9.17250831,15.4357794 8.70592152,15.9181664 8.35906344,16.3642214 L8.258,16.5 L8.35906344,16.6357786 C8.64811184,17.0074911 9.02030517,17.4044342 9.44558328,17.7850006 L9.70687983,18.0110425 C11.2005018,19.2599543 12.9094227,20 14.5,20 C16.0905773,20 17.7994982,19.2599543 19.2931202,18.0110425 C19.8274917,17.5642206 20.2940785,17.0818336 20.6409366,16.6357786 L20.741,16.499 L20.6409366,16.3642214 C20.3518882,15.9925089 19.9796948,15.5955658 19.5544167,15.2149994 L19.2931202,14.9889575 C17.7994982,13.7400457 16.0905773,13 14.5,13 Z" id="椭圆形" fill-rule="nonzero"></path>
            <circle id="椭圆形" cx="14.5" cy="16.5" r="2.5"></circle>
        </g>
    </g>
</svg>