<?xml version="1.0" encoding="UTF-8"?>
<svg width="48px" height="48px" viewBox="0 0 48 48" version="1.1" xmlns="http://www.w3.org/2000/svg" xmlns:xlink="http://www.w3.org/1999/xlink">
    <title>应用锁_lm</title>
    <g id="应用锁_lm" stroke="none" stroke-width="1" fill="none" fill-rule="evenodd">
        <g id="应用锁" transform="translate(18.000000, 13.000000)">
            <g id="编组-2">
                <circle id="椭圆形" stroke="#4D4D4D" stroke-width="3" cx="5.5" cy="13.5" r="4"></circle>
                <rect id="矩形" fill="#4D4D4D" x="4" y="0" width="3" height="10"></rect>
                <rect id="矩形" fill="#4D4D4D" x="6" y="3" width="5" height="3"></rect>
            </g>
            <path d="M5.5,8 C2.46243388,8 0,10.4624339 0,13.5 C0,16.5375661 2.46243388,19 5.5,19 C8.53756612,19 11,16.5375661 11,13.5 C11,10.4624339 8.53756612,8 5.5,8 Z M5.5,11 C6.88071187,11 8,12.1192881 8,13.5 C8,14.8807119 6.88071187,16 5.5,16 C4.11928813,16 3,14.8807119 3,13.5 C3,12.1192881 4.11928813,11 5.5,11 Z" id="椭圆形" fill="#4D4D4D" fill-rule="nonzero"></path>
            <rect id="矩形" fill="#4D4D4D" fill-rule="nonzero" x="4" y="0" width="3" height="10"></rect>
            <rect id="矩形" fill="#4D4D4D" fill-rule="nonzero" x="7" y="3" width="3" height="3"></rect>
        </g>
        <path d="M23.5,6 C24.7301713,6 26.1646409,6.09079928 27.803409,6.27239785 L28.7175435,6.3804565 L29.6722,6.50652492 L30.6673784,6.65060313 L31.7030789,6.8126911 L32.7793013,6.99278885 L33.8960458,7.19089638 C36.2727447,7.62383648 38,9.69414385 38,12.1099532 L38,29.4269105 C38,31.041666 37.2201716,32.5570203 35.906191,33.4955779 L26.2465918,40.3952916 C24.8942834,41.3612261 23.0855866,41.3903911 21.7028383,40.4685588 L11.226499,33.4843327 C9.83550568,32.5570038 9,30.9958471 9,29.3240812 L9,12.1099549 C9,9.69413898 10.7272567,7.62382601 13.1039638,7.19089462 L14.2207071,6.99278739 L15.2969285,6.8126899 L16.3326279,6.65060217 L17.3278054,6.50652418 L18.282461,6.38045594 L19.1965946,6.27239745 C20.8353612,6.09079915 22.2698296,6 23.5,6 Z M23.5,9 C22.1645275,9 20.5298273,9.12074548 18.6030806,9.36376486 L17.693102,9.48461539 L16.7418063,9.62286364 L15.7493503,9.77854303 C15.5805197,9.80594404 15.4099806,9.83407274 15.2377362,9.86292982 L14.1838341,10.0448185 C14.004782,10.0765919 13.8240313,10.1090951 13.6415852,10.1423287 C12.7437175,10.3058807 12.0775674,11.0536336 12.0063231,11.9502683 L12,12.1099549 L12,29.3240812 C12,29.9370621 12.2808227,30.5128659 12.7561942,30.8902881 L12.8905996,30.9881818 L23.3669389,37.972408 C23.6742163,38.1772596 24.0656316,38.1942599 24.3862616,38.025907 L24.5028772,37.9540911 L34.1624764,31.0543775 C34.6442693,30.7102397 34.9465277,30.1722341 34.9935583,29.5874472 L35,29.4269105 L35,12.1099532 C35,11.143631 34.3090967,10.3155052 33.3584242,10.1423304 L32.8161748,10.0448201 L31.7622715,9.86293112 L30.7492932,9.69852341 C30.5838826,9.67257703 30.4201837,9.64735766 30.2581999,9.62286458 L29.3069032,9.48461611 L28.3969237,9.36376541 C26.4701752,9.12074567 24.8354735,9 23.5,9 Z" id="矩形" fill="#4D4D4D" fill-rule="nonzero"></path>
    </g>
</svg>