<svg viewBox="0 0 48 48" xmlns="http://www.w3.org/2000/svg">
    <path fill-rule="evenodd" clip-rule="evenodd"
        d="M26.0002 23.5C26.0002 24.8807 24.881 26 23.5002 26C22.1195 26 21.0002 24.8807 21.0002 23.5C21.0002 22.1193 22.1195 21 23.5002 21C24.881 21 26.0002 22.1193 26.0002 23.5ZM14.6062 22.3168C14.1782 23.0475 14.1782 23.9525 14.6062 24.6832C16.4789 27.8801 19.7624 30 23.5001 30C27.2378 30 30.5213 27.8801 32.3941 24.6832C32.8221 23.9525 32.8221 23.0475 32.3941 22.3168C30.5213 19.1199 27.2378 17 23.5001 17C19.7624 17 16.4789 19.1199 14.6062 22.3168ZM17.4 23.5C18.8191 25.6913 21.0731 27 23.5001 27C25.9271 27 28.1812 25.6913 29.6002 23.5C28.1812 21.3087 25.9271 20 23.5001 20C21.0731 20 18.8191 21.3087 17.4 23.5ZM31.747 7.91569C29.2591 7.343 26.4879 7 23.5 7C20.5121 7 17.7409 7.34256 15.253 7.91569C14.4672 8.0946 13.6895 8.30698 12.922 8.55225C12.545 8.67387 12.2673 8.77362 12.096 8.841C10.3252 9.42287 9 11.3667 9 13.2873V29.0798C9 30.8538 10.0414 33.0019 11.4237 34.0471L20.8004 41.1351C22.3273 42.2896 24.6758 42.287 26.1996 41.1351L35.5763 34.0471C36.9648 32.9976 38 30.8599 38 29.0798V13.2873C38 11.3794 36.6708 9.44344 34.9119 8.84406C34.7415 8.77669 34.4611 8.67606 34.078 8.55225C33.4026 8.33437 32.6227 8.11694 31.747 7.91569ZM30.0407 10.7587C28.0676 10.2842 25.8697 10 23.5 10C21.1303 10 18.9324 10.2838 16.9593 10.7587C16.3361 10.907 15.7193 11.0829 15.1106 11.2861C14.8116 11.3869 14.5913 11.4696 14.4554 11.5254C13.051 12.0075 12 13.6181 12 15.2095V28.2947C12 29.7646 12.8259 31.5445 13.9222 32.4105L21.3589 38.2833C22.5699 39.24 24.4325 39.2378 25.6411 38.2833L33.0778 32.4105C34.179 31.5408 35 29.7697 35 28.2947V15.2095C35 13.6286 33.9458 12.0246 32.5508 11.5279C32.4156 11.4721 32.1933 11.3887 31.8894 11.2861C31.3538 11.1056 30.7352 10.9255 30.0407 10.7587Z" />
</svg>