<?xml version="1.0" encoding="UTF-8"?>
<svg width="48px" height="48px" viewBox="0 0 48 48" version="1.1" xmlns="http://www.w3.org/2000/svg" xmlns:xlink="http://www.w3.org/1999/xlink">
    <title>应用双开_lm</title>
    <g id="应用双开_lm" stroke="none" stroke-width="1" fill="none" fill-rule="evenodd">
        <g transform="translate(6.000000, 8.000000)" fill="#4D4D4D" fill-rule="nonzero">
            <path d="M13,0 C15.209139,0 17,1.790861 17,4 L17,4 L17,22 C17,24.209139 15.209139,26 13,26 L13,26 L4,26 C1.790861,26 0,24.209139 0,22 L0,22 L0,4 C0,1.790861 1.790861,0 4,0 L4,0 Z M13,3 L4,3 C3.44771525,3 3,3.44771525 3,4 L3,4 L3,22 C3,22.5522847 3.44771525,23 4,23 L4,23 L13,23 C13.5522847,23 14,22.5522847 14,22 L14,22 L14,4 C14,3.44771525 13.5522847,3 13,3 L13,3 Z M8.5,8 C9.32842712,8 10,8.67157288 10,9.5 L10,16.5 C10,17.3284271 9.32842712,18 8.5,18 C7.67157288,18 7,17.3284271 7,16.5 L7,9.5 C7,8.67157288 7.67157288,8 8.5,8 Z" id="形状结合"></path>
            <path d="M33,0 C35.209139,0 37,1.790861 37,4 L37,4 L37,22 C37,24.209139 35.209139,26 33,26 L33,26 L24,26 C21.790861,26 20,24.209139 20,22 L20,22 L20,4 C20,1.790861 21.790861,0 24,0 L24,0 Z M33,3 L24,3 C23.4477153,3 23,3.44771525 23,4 L23,4 L23,22 C23,22.5522847 23.4477153,23 24,23 L24,23 L33,23 C33.5522847,23 34,22.5522847 34,22 L34,22 L34,4 C34,3.44771525 33.5522847,3 33,3 L33,3 Z M28.5,8 C29.3284271,8 30,8.67157288 30,9.5 L30,16.5 C30,17.3284271 29.3284271,18 28.5,18 C27.6715729,18 27,17.3284271 27,16.5 L27,9.5 C27,8.67157288 27.6715729,8 28.5,8 Z" id="形状结合"></path>
            <rect id="矩形" x="0" y="29" width="17" height="3" rx="1.5"></rect>
            <rect id="矩形" x="20" y="29" width="17" height="3" rx="1.5"></rect>
        </g>
    </g>
</svg>