<svg viewBox="0 0 48 48" xmlns="http://www.w3.org/2000/svg">
    <path fill-rule="evenodd" clip-rule="evenodd"
        d="M13.5 26C12.6716 26 12 25.3284 12 24.5L12 17.5C12 16.6716 12.6716 16 13.5 16C14.3284 16 15 16.6716 15 17.5V24.5C15 25.3284 14.3284 26 13.5 26ZM5 11C5 9.34315 6.34315 8 8 8H19C20.6569 8 22 9.34315 22 11V31C22 32.6569 20.6569 34 19 34H8C6.34315 34 5 32.6569 5 31V11ZM8 11H19V31H8L8 11ZM32 24.5C32 25.3284 32.6716 26 33.5 26C34.3284 26 35 25.3284 35 24.5V17.5C35 16.6716 34.3284 16 33.5 16C32.6716 16 32 16.6716 32 17.5V24.5ZM25 11C25 9.34315 26.3431 8 28 8H39C40.6569 8 42 9.34315 42 11V31C42 32.6569 40.6569 34 39 34H28C26.3431 34 25 32.6569 25 31V11ZM28 11H39V31H28V11ZM5 38.5C5 37.6716 5.67157 37 6.5 37H20.5C21.3284 37 22 37.6716 22 38.5C22 39.3284 21.3284 40 20.5 40H6.5C5.67157 40 5 39.3284 5 38.5ZM26.5 37C25.6716 37 25 37.6716 25 38.5C25 39.3284 25.6716 40 26.5 40H40.5C41.3284 40 42 39.3284 42 38.5C42 37.6716 41.3284 37 40.5 37H26.5Z" />
</svg>