<svg width="16" height="16" viewBox="0 0 16 16" fill="none" xmlns="http://www.w3.org/2000/svg">
<path opacity="0.55" fill-rule="evenodd" clip-rule="evenodd" d="M8.00001 6.13502L1.6631 11.7485C1.24969 12.1148 0.617686 12.0765 0.251472 11.6631C-0.114743 11.2497 -0.0764857 10.6177 0.336921 10.2515L6.90565 4.43259C6.90587 4.43239 6.90609 4.4322 6.90631 4.432C7.19041 4.17971 7.56612 4 8.00001 4C8.43359 4 8.80907 4.17945 9.0931 4.43146C9.09316 4.43151 9.09322 4.43156 9.09327 4.43161C9.09364 4.43194 9.09401 4.43226 9.09437 4.43259L15.6631 10.2515C16.0765 10.6177 16.1148 11.2497 15.7486 11.6631C15.3823 12.0765 14.7503 12.1148 14.3369 11.7485L8.00001 6.13502Z" fill="black"/>
</svg>
