<?xml version="1.0" encoding="UTF-8"?>
<svg width="48px" height="48px" viewBox="0 0 48 48" version="1.1" xmlns="http://www.w3.org/2000/svg" xmlns:xlink="http://www.w3.org/1999/xlink">
    <title>授权管理_lm</title>
    <g id="授权管理_lm" stroke="none" stroke-width="1" fill="none" fill-rule="evenodd">
        <g transform="translate(6.098630, 6.000000)" fill="#4D4D4D" fill-rule="nonzero">
            <path d="M19.90137,0 C25.42417,0 29.90137,4.4772 29.90137,10 C29.90137,15.5228 25.42417,20 19.90137,20 C14.37857,20 9.90137,15.5228 9.90137,10 C9.90137,4.4772 14.37857,0 19.90137,0 Z M19.90137,3 C16.0354242,3 12.90137,6.13405425 12.90137,10 C12.90137,13.8659458 16.0354242,17 19.90137,17 C23.7673158,17 26.90137,13.8659458 26.90137,10 C26.90137,6.13405425 23.7673158,3 19.90137,3 Z" id="路径"></path>
            <path d="M18.90117,20.0289 C10.64477,20.5079 3.96937,26.8791 3.01766,35 L0,35 C0.971,25.2202 8.98697,17.5128 18.90117,17.0246 L18.90117,20.0289 Z" id="路径"></path>
            <path d="M29.40137,19 C32.43897,19 34.90137,21.4624 34.90137,24.5 C34.90137,27.5376 32.43897,30 29.40137,30 C28.5564538,30 27.7560401,29.8094869 27.0407422,29.469074 L25.73037,30.777 L27.8670069,32.6930141 L25.8644214,34.9267668 L23.60537,32.902 L21.0226903,35.4856203 L18.90137,33.3643 L24.780953,27.4848167 C24.2244629,26.6251472 23.90137,25.6003097 23.90137,24.5 C23.90137,21.4624 26.36377,19 29.40137,19 Z M29.40137,22 C28.0206242,22 26.90137,23.1192542 26.90137,24.5 C26.90137,25.8807458 28.0206242,27 29.40137,27 C30.7821158,27 31.90137,25.8807458 31.90137,24.5 C31.90137,23.1192542 30.7821158,22 29.40137,22 Z" id="形状结合"></path>
        </g>
    </g>
</svg>