<svg width="48" height="48" viewBox="0 0 48 48" fill="none" xmlns="http://www.w3.org/2000/svg">
<g clip-path="url(#clip0_6583_195953)">
<path fill-rule="evenodd" clip-rule="evenodd" d="M40 22H43C42.182 12.3875 34.8953 5 25 5L23 5.04877L29 11L31 9C37 11.5 39.5 17.5 40 22Z" fill="#4D4D4D"/>
<path fill-rule="evenodd" clip-rule="evenodd" d="M7 25L4 25C4.81796 34.6125 12.1047 42 22 42L24 41.9512L18 36L16 38C10 35.5 7.5 29.5 7 25Z" fill="#4D4D4D"/>
<path fill-rule="evenodd" clip-rule="evenodd" d="M9.8578 16.9288L16.9289 9.85775C18.8815 7.90513 22.0473 7.90513 23.9999 9.85775L38.1421 23.9999C40.0947 25.9525 40.0947 29.1183 38.1421 31.071L31.071 38.142C29.1184 40.0946 25.9526 40.0946 23.9999 38.142L9.8578 23.9999C7.90518 22.0473 7.90518 18.8814 9.8578 16.9288ZM11.9791 19.0501C11.1981 19.8312 11.1981 21.0975 11.9791 21.8786L26.1213 36.0207C26.9023 36.8018 28.1686 36.8018 28.9497 36.0207L36.0207 28.9496C36.8018 28.1686 36.8018 26.9023 36.0207 26.1212L21.8786 11.9791C21.0976 11.198 19.8312 11.198 19.0502 11.9791L11.9791 19.0501Z" fill="#4D4D4D"/>
</g>
<defs>
<clipPath id="clip0_6583_195953">
<rect width="48" height="48" fill="white"/>
</clipPath>
</defs>
</svg>
