<svg width="48" height="48" viewBox="0 0 48 48" fill="none" xmlns="http://www.w3.org/2000/svg">
<g clip-path="url(#clip0_6583_197073)">
<mask id="mask0_6583_197073" style="mask-type:alpha" maskUnits="userSpaceOnUse" x="5" y="5" width="38" height="38">
<path fill-rule="evenodd" clip-rule="evenodd" d="M5 5H43V43H5V5Z" fill="white"/>
</mask>
<g mask="url(#mask0_6583_197073)">
<path fill-rule="evenodd" clip-rule="evenodd" d="M36.0104 31.0978L36.0204 30.976C36.1069 29.9161 36.4909 28.9424 37.0527 28.1397L37.1335 28.0244L39.5882 25.1364C40.1374 24.4608 40.1378 23.4914 39.5896 22.8154L37.1397 19.9435L37.0612 19.8325C36.4845 19.0172 36.1104 18.0586 36.0059 17.0346L35.9904 16.8827V13.7301C35.9904 12.7628 35.2094 11.9901 34.2604 11.9901H31.1282L31.0063 11.9801C29.9923 11.8973 28.9961 11.5463 28.138 10.9393L28.0244 10.8589L25.1579 8.40343C24.4804 7.86135 23.516 7.86227 22.8395 8.4062L19.9751 10.8409L19.8813 10.9089C19.0562 11.5071 18.0844 11.8805 17.065 11.9846L16.9131 12.0001H13.7004C12.7514 12.0001 11.9704 12.7728 11.9704 13.7401V16.8748L11.9601 16.9992C11.8778 17.9859 11.545 18.9578 10.9481 19.8104L10.8684 19.9244L8.40539 22.8286C7.86878 23.5099 7.86878 24.4702 8.40537 25.1514L10.8849 28.0752L10.977 28.2116C11.5152 29.009 11.8747 29.9565 11.9601 30.9809L11.9704 31.1053V34.2601C11.9704 35.2273 12.7514 36.0001 13.7004 36.0001H16.9227L17.0445 36.01C18.0653 36.0933 19.0448 36.4472 19.8808 37.0324L20.0034 37.1182L22.888 39.5996C23.21 39.8645 23.6062 40.0037 24.0039 40.0002L24.0305 39.9999L24.0572 40.0002C24.4527 40.0037 24.8402 39.8602 25.1306 39.6074L25.1396 39.5995L28.0444 37.1112L28.158 37.0308C28.9856 36.4455 29.9565 36.0786 30.9659 35.9756L31.1178 35.9601H34.2804C35.2294 35.9601 36.0104 35.1873 36.0104 34.2201V31.0978ZM20.9504 41.8901L18.1604 39.4901C17.7604 39.2101 17.2904 39.0401 16.8004 39.0001H13.7004C11.0904 39.0001 8.97043 36.8801 8.97043 34.2601V31.2301C8.93043 30.7501 8.76043 30.2901 8.49043 29.8901L6.09043 27.0601C4.64043 25.2701 4.64043 22.7101 6.09043 20.9201L8.49043 18.0901C8.77043 17.6901 8.93043 17.2301 8.97043 16.7501V13.7401C8.97043 11.1201 11.0904 9.00006 13.7004 9.00006H16.7604C17.2504 8.95006 17.7204 8.77006 18.1204 8.48006L20.9204 6.10006C22.7104 4.63006 25.2904 4.63006 27.0804 6.10006L29.8704 8.49006C30.2804 8.78006 30.7604 8.95006 31.2504 8.99006H34.2604C36.8704 8.99006 38.9904 11.1101 38.9904 13.7301V16.7301C39.0404 17.2201 39.2204 17.6901 39.5104 18.1001L41.8904 20.8901C43.3704 22.6801 43.3704 25.2701 41.8904 27.0601L39.5104 29.8601C39.2304 30.2601 39.0504 30.7301 39.0104 31.2201V34.2201C39.0104 36.8401 36.8904 38.9601 34.2804 38.9601H31.2704C30.7804 39.0101 30.3004 39.1901 29.8904 39.4801L27.1004 41.8701C26.2504 42.6101 25.1504 43.0101 24.0304 43.0001C22.9004 43.0101 21.8104 42.6101 20.9504 41.8901Z" fill="#4D4D4D"/>
</g>
<g clip-path="url(#clip1_6583_197073)">
<path fill-rule="evenodd" clip-rule="evenodd" d="M32 32L29 33L27 28H21L19 33L16 32L23 15H25L32 32ZM22.2 25H25.8L24 20.5L22.2 25Z" fill="#4D4D4D"/>
</g>
</g>
<defs>
<clipPath id="clip0_6583_197073">
<rect width="38" height="38" fill="white" transform="translate(5 5)"/>
</clipPath>
<clipPath id="clip1_6583_197073">
<rect width="16" height="18" fill="white" transform="translate(16 15)"/>
</clipPath>
</defs>
</svg>
