<svg width="30px" height="30px" viewBox="0 0 30 30" version="1.1" xmlns="http://www.w3.org/2000/svg"
    xmlns:xlink="http://www.w3.org/1999/xlink">
    <path
        d="M23.7603072,2.50008 L21.8403168,2.50008 C21.600288,1.16671 21.2003136,0.16673 20.7203136,0 L1.4400096,0 C0.6400032,0 0,2.25002 0,5.00004 C0,7.75006 0.6397632,10.00014 1.4397696,10.00014 L20.8001568,10.00014 C21.2800704,9.83354 21.6801312,8.83359 21.9200448,7.50012 L23.840064,7.50012 C24,6.75008 24,5.91697 24,5.0001 C24,4.08324 23.920032,3.25012 23.7597792,2.50008 L23.7603072,2.50008 Z zM21,9 L15,9 L15,1 L21,1 L21,9 L21,9 Z"
        transform="translate(3.000000, 10.000000)" />
</svg>