<svg width="36" height="36" viewBox="0 0 36 36" fill="none" xmlns="http://www.w3.org/2000/svg">
<path fill-rule="evenodd" clip-rule="evenodd" d="M27 11H5C3.34315 11 2 12.3431 2 14V22C2 23.6569 3.34315 25 5 25H27C28.6569 25 30 23.6569 30 22V14C30 12.3431 28.6569 11 27 11ZM5 9C2.23858 9 0 11.2386 0 14V22C0 24.7614 2.23858 27 5 27H27C29.7614 27 32 24.7614 32 22V14C32 11.2386 29.7614 9 27 9H5Z" fill="#333333"/>
<path fill-rule="evenodd" clip-rule="evenodd" d="M33 14.1579C33 14.0707 33.0707 14 33.1579 14C34.7275 14 36 15.2725 36 16.8421V19.1579C36 20.7275 34.7275 22 33.1579 22C33.0707 22 33 21.9293 33 21.8421V14.1579Z" fill="#333333"/>
<path fill-rule="evenodd" clip-rule="evenodd" d="M4 14C4 13.4477 4.44772 13 5 13C5.55228 13 6 13.4477 6 14V22C6 22.5523 5.55228 23 5 23C4.44772 23 4 22.5523 4 22V14Z" fill="#EC4949"/>
<path d="M15.3616 20.008C15.3616 20.592 15.2216 21.112 14.9416 21.568C14.6696 22.024 14.2816 22.38 13.7776 22.636C13.2816 22.892 12.7056 23.02 12.0496 23.02C11.3936 23.02 10.8136 22.892 10.3096 22.636C9.80556 22.38 9.41356 22.024 9.13356 21.568C8.85356 21.112 8.71356 20.592 8.71356 20.008C8.71356 19.456 8.85356 18.968 9.13356 18.544C9.41356 18.112 9.80556 17.776 10.3096 17.536C9.94156 17.328 9.65356 17.052 9.44556 16.708C9.24556 16.364 9.14556 15.984 9.14556 15.568C9.14556 15.056 9.26556 14.6 9.50556 14.2C9.74556 13.8 10.0856 13.488 10.5256 13.264C10.9656 13.032 11.4736 12.916 12.0496 12.916C12.6256 12.916 13.1296 13.032 13.5616 13.264C14.0016 13.488 14.3416 13.8 14.5816 14.2C14.8216 14.6 14.9416 15.056 14.9416 15.568C14.9416 15.984 14.8376 16.364 14.6296 16.708C14.4296 17.052 14.1456 17.328 13.7776 17.536C14.2736 17.776 14.6616 18.108 14.9416 18.532C15.2216 18.956 15.3616 19.448 15.3616 20.008ZM10.5136 15.544C10.5136 15.984 10.6536 16.34 10.9336 16.612C11.2216 16.884 11.5936 17.02 12.0496 17.02C12.5056 17.02 12.8736 16.884 13.1536 16.612C13.4336 16.34 13.5736 15.984 13.5736 15.544C13.5736 15.096 13.4336 14.736 13.1536 14.464C12.8816 14.184 12.5136 14.044 12.0496 14.044C11.5856 14.044 11.2136 14.184 10.9336 14.464C10.6536 14.736 10.5136 15.096 10.5136 15.544ZM13.9576 19.972C13.9576 19.412 13.7816 18.964 13.4296 18.628C13.0856 18.292 12.6256 18.124 12.0496 18.124C11.4656 18.124 11.0016 18.292 10.6576 18.628C10.3136 18.964 10.1416 19.412 10.1416 19.972C10.1416 20.532 10.3136 20.98 10.6576 21.316C11.0096 21.652 11.4736 21.82 12.0496 21.82C12.6256 21.82 13.0856 21.652 13.4296 21.316C13.7816 20.98 13.9576 20.532 13.9576 19.972ZM23.212 19.888C23.212 20.496 23.072 21.036 22.792 21.508C22.52 21.98 22.132 22.348 21.628 22.612C21.124 22.884 20.552 23.02 19.912 23.02C19.136 23.02 18.476 22.84 17.932 22.48C17.396 22.12 17.04 21.652 16.864 21.076L17.98 20.416C18.116 20.84 18.352 21.172 18.688 21.412C19.024 21.652 19.432 21.772 19.912 21.772C20.456 21.772 20.9 21.6 21.244 21.256C21.588 20.904 21.76 20.448 21.76 19.888C21.76 19.336 21.588 18.892 21.244 18.556C20.9 18.212 20.46 18.04 19.924 18.04C19.564 18.04 19.256 18.108 19 18.244C18.752 18.38 18.564 18.56 18.436 18.784L17.224 18.472L17.776 13.072H22.792V14.332H19.072L18.772 17.236C19.22 16.94 19.688 16.792 20.176 16.792C20.768 16.792 21.292 16.928 21.748 17.2C22.212 17.464 22.572 17.832 22.828 18.304C23.084 18.776 23.212 19.304 23.212 19.888Z" fill="#262626"/>
</svg>
