<svg width="36" height="36" viewBox="0 0 36 36" fill="none" xmlns="http://www.w3.org/2000/svg">
<path fill-rule="evenodd" clip-rule="evenodd" d="M28 11H4C2.89543 11 2 11.8954 2 13V23C2 24.1046 2.89543 25 4 25H28C29.1046 25 30 24.1046 30 23V13C30 11.8954 29.1046 11 28 11ZM4 9C1.79086 9 0 10.7909 0 13V23C0 25.2091 1.79086 27 4 27H28C30.2091 27 32 25.2091 32 23V13C32 10.7909 30.2091 9 28 9H4Z" fill="#333333"/>
<path fill-rule="evenodd" clip-rule="evenodd" d="M33 14.1579C33 14.0707 33.0707 14 33.1579 14C34.7275 14 36 15.2725 36 16.8421V19.1579C36 20.7275 34.7275 22 33.1579 22C33.0707 22 33 21.9293 33 21.8421V14.1579Z" fill="#333333"/>
<path d="M17 16.6H21L14 25L15 19.4H11L18 11L17 16.6Z" fill="#333333"/>
</svg>
