<svg viewBox="0 0 48 48" xmlns="http://www.w3.org/2000/svg">
  <path fill-rule="evenodd" clip-rule="evenodd"
    d="M9 11C5.68629 11 3 13.6863 3 17V31C3 34.3137 5.68629 37 9 37H37C40.3137 37 43 34.3137 43 31V17C43 13.6863 40.3137 11 37 11H9ZM37 14H9C7.34315 14 6 15.3431 6 17V31C6 32.6569 7.34315 34 9 34H37C38.6569 34 40 32.6569 40 31V17C40 15.3431 38.6569 14 37 14ZM11.5 17C10.6716 17 10 17.6716 10 18.5V29.5C10 30.3284 10.6716 31 11.5 31C12.3284 31 13 30.3284 13 29.5V18.5C13 17.6716 12.3284 17 11.5 17ZM16 18.5C16 17.6716 16.6716 17 17.5 17C18.3284 17 19 17.6716 19 18.5V29.5C19 30.3284 18.3284 31 17.5 31C16.6716 31 16 30.3284 16 29.5V18.5ZM23.5 17C22.6716 17 22 17.6716 22 18.5V29.5C22 30.3284 22.6716 31 23.5 31C24.3284 31 25 30.3284 25 29.5V18.5C25 17.6716 24.3284 17 23.5 17ZM44 19.2105C44 19.0943 44.0943 19 44.2105 19C46.3034 19 48 20.6966 48 22.7895V25.2105C48 27.3034 46.3034 29 44.2105 29C44.0943 29 44 28.9057 44 28.7895V19.2105Z" />
</svg>