<svg width="36" height="36" viewBox="0 0 36 36" fill="none" xmlns="http://www.w3.org/2000/svg">
<path fill-rule="evenodd" clip-rule="evenodd" d="M27 11H5C3.34315 11 2 12.3431 2 14V22C2 23.6569 3.34315 25 5 25H27C28.6569 25 30 23.6569 30 22V14C30 12.3431 28.6569 11 27 11ZM5 9C2.23858 9 0 11.2386 0 14V22C0 24.7614 2.23858 27 5 27H27C29.7614 27 32 24.7614 32 22V14C32 11.2386 29.7614 9 27 9H5Z" fill="#333333"/>
<path fill-rule="evenodd" clip-rule="evenodd" d="M33 14.1579C33 14.0707 33.0707 14 33.1579 14C34.7275 14 36 15.2725 36 16.8421V19.1579C36 20.7275 34.7275 22 33.1579 22C33.0707 22 33 21.9293 33 21.8421V14.1579Z" fill="#333333"/>
<path opacity="0.3" fill-rule="evenodd" clip-rule="evenodd" d="M4 14.5C4 13.6716 4.67157 13 5.5 13H16.5C17.3284 13 18 13.6716 18 14.5V21.5C18 22.3284 17.3284 23 16.5 23H5.5C4.67157 23 4 22.3284 4 21.5V14.5Z" fill="#333333"/>
</svg>
