<?xml version="1.0" encoding="UTF-8"?>
<svg width="32px" height="32px" viewBox="0 0 32 32" version="1.1" xmlns="http://www.w3.org/2000/svg" xmlns:xlink="http://www.w3.org/1999/xlink">
    <title>蓝牙_lm</title>
    <g id="蓝牙_lm" stroke="none" stroke-width="1" fill="none" fill-rule="evenodd">
        <path d="M20.5761602,6.69054354 C20.6651772,6.75612861 20.7430561,6.83645909 20.8066397,6.92827819 L26.3152714,14.883128 C26.6334972,15.3426683 26.530308,15.9812928 26.084792,16.3095359 C25.9166617,16.4334093 25.7152091,16.5 25.5085932,16.5 L14.4913298,16.5 C13.9438334,16.5 13.5,16.0421953 13.5,15.4774646 C13.5,15.2643447 13.5645585,15.0565508 13.6846516,14.883128 L19.1932833,6.92827819 C19.5115091,6.46873792 20.1306441,6.36230049 20.5761602,6.69054354 Z M20,9 L16.5,14.5 L23.5,14.5 L20,9 Z" id="三角形" fill="#333333" fill-rule="nonzero" transform="translate(20.000000, 11.500000) rotate(-270.000000) translate(-20.000000, -11.500000) "></path>
        <path d="M20.5761602,16.6905435 C20.6651772,16.7561286 20.7430561,16.8364591 20.8066397,16.9282782 L26.3152714,24.883128 C26.6334972,25.3426683 26.530308,25.9812928 26.084792,26.3095359 C25.9166617,26.4334093 25.7152091,26.5 25.5085932,26.5 L14.4913298,26.5 C13.9438334,26.5 13.5,26.0421953 13.5,25.4774646 C13.5,25.2643447 13.5645585,25.0565508 13.6846516,24.883128 L19.1932833,16.9282782 C19.5115091,16.4687379 20.1306441,16.3623005 20.5761602,16.6905435 Z M20,19 L16.5,24.5 L23.5,24.5 L20,19 Z" id="三角形备份" fill="#333333" fill-rule="nonzero" transform="translate(20.000000, 21.500000) rotate(-270.000000) translate(-20.000000, -21.500000) "></path>
        <path d="M7.16042984,10.4567487 C7.46045924,9.99306693 8.07956948,9.86040045 8.54325128,10.1604298 L18.3407688,16.5 L8.54325128,22.8395702 C8.07956948,23.1395996 7.46045924,23.0069331 7.16042984,22.5432513 C6.86040045,22.0795695 6.99306693,21.4604592 7.45674872,21.1604298 L14.659,16.5 L7.45674872,11.8395702 C6.99306693,11.5395408 6.86040045,10.9204305 7.16042984,10.4567487 Z" id="路径-2" fill="#333333" fill-rule="nonzero"></path>
    </g>
</svg>