<svg viewBox="0 0 48 48" xmlns="http://www.w3.org/2000/svg">
    <path fill-rule="evenodd" clip-rule="evenodd"
        d="M35.2608 13.4861C36.6195 14.4851 36.6195 16.5153 35.2608 17.5143L26.44 24.0002L35.2608 30.4861C36.6195 31.4851 36.6195 33.5153 35.2608 34.5143L24.981 42.073C23.3301 43.2869 21 42.1081 21 40.0589L21 27.011L10.721 34.2084L9.00022 31.751L20.6348 23.6044L9 15.4576L10.7207 13.0002L21 20.1978V7.9415C21 5.89228 23.3301 4.71344 24.981 5.92737L35.2608 13.4861ZM24 8.92976L32.9358 15.5002L24 22.0706V8.92976ZM24 25.9298L32.9358 32.5002L24 39.0706V25.9298Z" />
</svg>