<svg viewBox="0 0 48 48" xmlns="http://www.w3.org/2000/svg">
  <path
    d="M14 24C14 29.521 18.479 34 24 34C29.5202 34 33.9988 29.5222 34 24.0023C33.992 18.4797 29.5207 14.0082 23.9981 14C18.478 14.001 14 18.4796 14 24ZM24 11C31.1779 11.0093 36.9907 16.8221 37 24C37 31.1779 31.1779 37 24 37C16.8221 37 11 31.1779 11 24C11 16.8221 16.8221 11 24 11ZM11.8155 9.78405L11.8155 9.78403L11.8137 9.7823C11.2543 9.24439 10.352 9.25533 9.80367 9.80367C9.25533 10.352 9.24439 11.2543 9.7823 11.8137L9.78228 11.8137L9.78405 11.8155L10.7337 12.7551C10.7338 12.7552 10.7338 12.7553 10.7339 12.7553C11.293 13.3141 12.1961 13.3141 12.7551 12.7551C13.3141 12.1961 13.3141 11.293 12.7553 10.7339C12.7553 10.7338 12.7552 10.7338 12.7551 10.7337L11.8155 9.78405ZM38.2137 11.8151L38.215 11.8137C38.752 11.2553 38.7531 10.3527 38.1933 9.80333C37.6446 9.25496 36.7531 9.24508 36.1843 9.78164L36.1843 9.7816L36.1819 9.78405L35.2422 10.7337C35.2422 10.7337 35.2422 10.7337 35.2421 10.7338C34.6832 11.2928 34.6832 12.1961 35.2422 12.7551C35.511 13.0239 35.8764 13.1744 36.253 13.1744C36.6391 13.1744 37.0046 13.0241 37.2737 12.7551L38.2137 11.8151ZM11.8137 38.2144L11.8151 38.213L12.7551 37.273C13.3141 36.7139 13.3141 35.8006 12.7551 35.2416C12.4863 34.9728 12.1209 34.8223 11.7444 34.8223C11.3679 34.8223 11.0025 34.9728 10.7337 35.2415C10.7337 35.2415 10.7337 35.2416 10.7337 35.2416L9.78405 36.1812L9.78401 36.1812L9.78164 36.1837C9.24519 36.7523 9.25496 37.6436 9.80299 38.1923C10.3523 38.7524 11.2552 38.7514 11.8137 38.2144ZM23.9944 8.1C24.8693 8.1 25.6 7.46632 25.6 6.67V5.33C25.6 4.53368 24.8693 3.9 23.9944 3.9C23.1302 3.9 22.4 4.53413 22.4 5.33V6.67C22.4 7.46587 23.1302 8.1 23.9944 8.1ZM23.9967 39.9C23.2114 39.9 22.5667 40.5448 22.5667 41.33V42.67C22.5667 43.4552 23.2114 44.1 23.9967 44.1C24.7914 44.1 25.4367 43.4557 25.4367 42.67V41.33C25.4367 40.5443 24.7914 39.9 23.9967 39.9ZM42.67 22.5667H41.33C40.5448 22.5667 39.9 23.2114 39.9 23.9967C39.9 24.7914 40.5443 25.4367 41.33 25.4367H42.67C43.4557 25.4367 44.1 24.7914 44.1 23.9967C44.1 23.2114 43.4552 22.5667 42.67 22.5667ZM6.67 22.5667H5.33C4.54477 22.5667 3.9 23.2114 3.9 23.9967C3.9 24.7914 4.54428 25.4367 5.33 25.4367H6.67C7.45572 25.4367 8.1 24.7914 8.1 23.9967C8.1 23.2114 7.45523 22.5667 6.67 22.5667ZM37.2736 35.2421C36.7145 34.6831 35.8012 34.6831 35.2421 35.2421C34.6831 35.8012 34.6831 36.7145 35.2421 37.2736L36.1811 38.2125C36.1813 38.2127 36.1814 38.2128 36.1815 38.2129C36.5473 38.5892 37.0742 38.7283 37.5776 38.5997C38.083 38.4707 38.4707 38.083 38.5997 37.5776C38.7283 37.0742 38.5892 36.5473 38.2129 36.1815C38.2128 36.1814 38.2127 36.1813 38.2125 36.1811L37.2736 35.2421Z" />
</svg>