<svg viewBox="0 0 48 48" xmlns="http://www.w3.org/2000/svg">
  <path
    d="M17.9233 31.8792L26 36.3111L26 15.6888L17.9232 20.1207L10 20.1207V31.8792H17.9233ZM17.1542 17.1207H10C8.34315 17.1207 7 18.4639 7 20.1207V31.8792C7 33.536 8.34315 34.8792 10 34.8792H17.1543L26.0379 39.7538C27.3708 40.4852 29 39.5208 29 38.0004L29 13.9994C29 12.4791 27.3708 11.5147 26.0379 12.246L17.1542 17.1207ZM33.5001 25.2361C33.5001 23.9345 32.9133 22.8299 32.0815 22.1856L33.9187 19.814C35.5064 21.0438 36.5001 23.0354 36.5001 25.2361C36.5001 27.4369 35.5064 29.4285 33.9187 30.6583L32.0815 28.2867C32.9133 27.6424 33.5001 26.5378 33.5001 25.2361ZM40.5 25.0002C40.5 21.0854 38.6735 17.8267 36.2007 16.2695L37.7993 13.731C41.2664 15.9143 43.5 20.2077 43.5 25.0002C43.5 29.7928 41.2664 34.0862 37.7993 36.2695L36.2007 33.731C38.6735 32.1737 40.5 28.915 40.5 25.0002Z" />
</svg>