<svg viewBox="0 0 48 48" xmlns="http://www.w3.org/2000/svg">
    <path fill-rule="evenodd" clip-rule="evenodd"
        d="M17.5 7C16.6716 7 16 7.67157 16 8.5V9H11C8.79086 9 7 10.7909 7 13V37C7 39.2091 8.79086 41 11 41H37C39.2091 41 41 39.2091 41 37V13C41 10.7909 39.2091 9 37 9H32V8.5C32 7.67157 31.3284 7 30.5 7C29.6716 7 29 7.67157 29 8.5V9H19V8.5C19 7.67157 18.3284 7 17.5 7ZM29 13.5V12H19V13.5C19 14.3284 18.3284 15 17.5 15C16.6716 15 16 14.3284 16 13.5V12H11C10.4477 12 10 12.4477 10 13V17H38V13C38 12.4477 37.5523 12 37 12H32V13.5C32 14.3284 31.3284 15 30.5 15C29.6716 15 29 14.3284 29 13.5ZM38 20H10V37C10 37.5523 10.4477 38 11 38H37C37.5523 38 38 37.5523 38 37V20ZM20 23H28V26L24 35H21L25 26H20V23Z" />
</svg>