<?xml version="1.0" encoding="UTF-8"?>
<svg width="48px" height="48px" viewBox="0 0 48 48" version="1.1" xmlns="http://www.w3.org/2000/svg" xmlns:xlink="http://www.w3.org/1999/xlink">
    <title>日历_lm</title>
    <g id="日历_lm" stroke="none" stroke-width="1" fill="none" fill-rule="evenodd">
        <g id="日历" transform="translate(7.000000, 7.000000)" fill="#4D4D4D" fill-rule="nonzero">
            <path d="M30,2 C32.209139,2 34,3.790861 34,6 L34,30 C34,32.209139 32.209139,34 30,34 L4,34 C1.790861,34 0,32.209139 0,30 L0,6 C0,3.790861 1.790861,2 4,2 L30,2 Z M30,5 L4,5 C3.48716416,5 3.06449284,5.38604019 3.00672773,5.88337887 L3,6 L3,30 C3,30.5128358 3.38604019,30.9355072 3.88337887,30.9932723 L4,31 L30,31 C30.5128358,31 30.9355072,30.6139598 30.9932723,30.1166211 L31,30 L31,6 C31,5.48716416 30.6139598,5.06449284 30.1166211,5.00672773 L30,5 Z" id="矩形"></path>
            <rect id="矩形" x="9" y="0" width="3" height="8" rx="1.5"></rect>
            <rect id="矩形" x="22" y="0" width="3" height="8" rx="1.5"></rect>
            <rect id="矩形" x="3" y="10" width="28" height="3"></rect>
            <rect id="矩形" x="13" y="16" width="8" height="3"></rect>
            <polygon id="路径" points="14 28 18 19 21 19 17 28"></polygon>
        </g>
    </g>
</svg>