<svg width="48" height="48" viewBox="0 0 48 48" fill="none" xmlns="http://www.w3.org/2000/svg">
<path fill-rule="evenodd" clip-rule="evenodd" d="M14.4359 30.0658C14.9843 29.9078 15.752 29.1464 15.7589 28.5071C15.7795 27.8678 15.7453 27.2429 15.6561 26.6036C15.567 25.9643 15.519 25.3394 15.5121 24.7289C15.5121 24.1111 15.567 23.6658 15.7932 23.5149C16.561 22.9977 19.4058 21.7551 24.0946 21.7551C28.9891 21.7551 31.8956 22.9331 32.3892 23.5077C32.5742 23.7161 32.6702 24.1039 32.6702 24.7217C32.6633 25.3322 32.6153 25.9571 32.5262 26.5965C32.4371 27.2357 32.4235 28.1839 32.4097 28.4999C32.4097 29.2182 33.7465 30.2454 34.3017 30.3819L39.9913 31.8184C41.4926 32.2567 41.8833 31.4737 42.3221 30.4681C42.7471 29.4624 43.3023 27.2285 42.8019 25.2963C42.5551 24.2907 41.7873 22.8253 40.7454 21.4749C40.7248 21.4534 40.7043 21.4319 40.6837 21.4103C39.8337 20.4621 36.5364 15.7716 24.0946 16.0087C11.5225 16.2385 7.75914 21.1589 7.47808 21.4534C3.49533 25.6267 5.39417 29.5845 5.86716 30.4824C6.77202 32.2351 7.26558 32.1346 8.17729 31.8113L14.4359 30.0658Z" fill="#4D4D4D"/>
</svg>
