<svg width="48" height="48" viewBox="0 0 48 48" fill="none" xmlns="http://www.w3.org/2000/svg">
<path fill-rule="evenodd" clip-rule="evenodd" d="M16.1881 19.3402C16.6181 18.9202 17.0881 18.5203 17.5981 18.1403C18.1082 17.7604 18.7782 17.1104 19.0082 16.9004C19.5082 16.4005 19.2482 14.7106 18.9382 14.2107L15.7881 9.06116C14.9981 7.66129 14.168 7.92126 13.148 8.30123C12.138 8.69119 10.1779 9.84109 9.19789 11.5509C8.67787 12.4308 8.21786 14.0107 8.03785 15.7105C8.03785 15.7405 8.03785 15.7705 8.03785 15.8005C7.99785 17.0804 7.13783 22.7499 16.3781 31.6591C25.7084 40.6682 31.8786 39.9883 32.2886 39.9883C38.0988 39.9883 39.4688 35.8487 39.7488 34.8788C40.3088 32.9989 39.8788 32.709 38.9888 32.269L33.2086 28.9193C32.6986 28.6294 31.6086 28.5994 31.1586 29.0393C30.6985 29.4693 30.2885 29.9292 29.9085 30.4392C29.5285 30.9491 29.1285 31.4191 28.7085 31.8491C28.2785 32.279 27.9285 32.549 27.6584 32.489C26.7384 32.289 23.7983 31.0791 20.3782 27.6594C16.8081 24.0898 15.5081 21.15 15.5481 20.3901C15.5581 20.1101 15.7581 19.7702 16.1881 19.3402Z" fill="#4D4D4D"/>
</svg>
