<svg width="32" height="32" viewBox="0 0 32 32" fill="none" xmlns="http://www.w3.org/2000/svg">
<path fill-rule="evenodd" clip-rule="evenodd" d="M21.4594 26.9915C25.636 26.9915 26.6187 24.0167 26.8226 23.3214C27.2199 21.9674 26.9115 21.7582 26.279 21.4498L22.1233 19.0397C21.7573 18.8253 20.9733 18.8096 20.6439 19.1181C20.3198 19.4265 20.0219 19.7664 19.7501 20.1323C19.4783 20.4931 19.1907 20.8329 18.8823 21.1413C18.5792 21.4498 18.323 21.6484 18.1348 21.6066C17.4657 21.455 15.3539 20.5924 12.8971 18.1352C10.3305 15.563 9.3948 13.4509 9.42617 12.902C9.43662 12.7085 9.57776 12.4576 9.8914 12.1544C10.1998 11.8511 10.5344 11.5636 10.9003 11.2918C11.2662 11.0199 11.7471 10.5494 11.9091 10.3925C12.2698 10.037 12.0816 8.82413 11.8621 8.4634L9.59867 4.75674C9.03412 3.75296 8.43298 3.94639 7.70639 4.21825C6.97979 4.49011 5.56842 5.32136 4.85751 6.54994C4.4916 7.18776 4.15705 8.32224 4.0316 9.54037C4.0316 9.56128 4.02637 9.58219 4.02637 9.60833C4.00024 10.5285 3.37819 14.6011 10.0221 21.0054C16.7287 27.4829 21.1667 26.9915 21.4594 26.9915Z" fill="#4D4D4D"/>
</svg>
