<svg width="56" height="56" viewBox="0 0 56 56" fill="none" xmlns="http://www.w3.org/2000/svg">
<path fill-rule="evenodd" clip-rule="evenodd" d="M38.8824 48.9846C46.5092 48.9846 48.3038 43.5524 48.676 42.2827C49.4015 39.8101 48.8383 39.4282 47.6833 38.8649L40.0947 34.4638C39.4265 34.0724 37.9946 34.0438 37.3933 34.607C36.8015 35.1703 36.2574 35.7909 35.761 36.4591C35.2646 37.1179 34.7396 37.7384 34.1764 38.3017C33.6228 38.8649 33.1551 39.2277 32.8114 39.1513C31.5896 38.8745 27.7332 37.2993 23.2469 32.8122C18.56 28.1152 16.8514 24.2583 16.9087 23.2559C16.9277 22.9026 17.1855 22.4444 17.7582 21.8907C18.3214 21.3369 18.9323 20.8119 19.6005 20.3154C20.2687 19.819 21.1469 18.9598 21.4428 18.6734C22.1014 18.0242 21.7578 15.8093 21.3569 15.1506L17.2237 8.38187C16.1927 6.54888 15.095 6.90211 13.7682 7.39855C12.4414 7.89498 9.86408 9.41293 8.56589 11.6564C7.89771 12.8212 7.2868 14.8928 7.0577 17.1172C7.0577 17.1554 7.04816 17.1936 7.04816 17.2413C7.00043 18.9216 5.86452 26.3586 17.9968 38.0535C30.2437 49.882 38.3478 48.9846 38.8824 48.9846Z" fill="#4D4D4D"/>
</svg>
