<svg viewBox="0 0 48 48" xmlns="http://www.w3.org/2000/svg">
    <g transform="translate(9.500394, 7.509350)">
        <path
            d="M7.03732221,-1.9821384 L5.90752241,-3.26570904 L4.08787073,-2.9185922 L4.02888624,-2.90497169 C3.89099667,-2.87195966 3.76310501,-2.83573499 3.62175907,-2.78993212 L3.31417939,-2.68366935 C3.25761,-2.66320171 3.1978085,-2.64119829 3.13390629,-2.61742335 C1.44580863,-1.96146104 -0.395271023,-0.617452204 -1.44496063,1.03311542 L-1.598156,1.28596195 C-2.23962515,2.37154391 -2.74066409,4.12768651 -2.94406168,5.95057502 L-2.96256417,6.11639798 L-2.96281015,6.27125348 L-2.9766542,6.53384237 C-3.06759206,8.25059706 -2.90499754,9.79354316 -2.1895565,11.8529419 C-0.978861779,15.3377522 1.57810569,19.1256488 5.83698754,23.2324717 C10.0856861,27.335431 14.0606149,29.8568513 17.6863997,31.11304 C19.0132922,31.5728532 20.2156722,31.834109 21.293738,31.9402223 C21.7784959,31.9879789 22.1216898,31.9999692 22.5023324,31.9916441 L22.7874058,31.98195 C25.7796744,31.98195 28.0695706,31.0096262 29.6762955,29.3263531 C30.6674382,28.2880901 31.2409392,27.1989525 31.602423,26.0711526 L31.693484,25.7710347 C31.8233497,25.3357542 31.9148369,24.9347667 31.9614222,24.5767838 L32.2312072,22.5036302 L30.188,21.434 L24.1956148,17.9611922 L23.8660614,17.8604953 L23.6818068,17.8098601 L23.5322623,17.7762183 C23.2380892,17.7164918 22.9254382,17.6901094 22.6176322,17.6988622 C22.4567157,17.7033314 22.2990938,17.7175887 22.1474194,17.740657 L21.2080515,17.8835267 L20.5222143,18.541137 C20.1381902,18.9093559 19.7834609,19.2985158 19.4503173,19.7168347 L19.2043865,20.0361696 C18.8637392,20.4932208 18.5069198,20.9124755 18.1298833,21.2983676 L18.044,21.382 L17.9730364,21.3565124 C17.5151957,21.1812621 16.8975011,20.8848917 16.2158551,20.4818074 C14.8419075,19.6693378 13.3870767,18.5402802 11.9381262,17.0913297 C10.397827,15.5511131 9.20352602,14.0382265 8.3947437,12.6911281 C8.11907921,12.2320845 7.9019098,11.8132827 7.74998177,11.4596764 L7.64675646,11.2026417 L7.594,11.057 L7.7261399,10.9142049 C8.01941036,10.6278012 8.32854532,10.3555008 8.65774129,10.0934621 L9.22596187,9.65601611 C9.26395491,9.62577998 9.30185133,9.59511014 9.34003419,9.56369743 L9.5756332,9.36383332 L9.83649391,9.13130029 L10.1410034,8.85125844 L11.192007,7.86012662 L11.2760914,6.69744247 C11.2935608,6.45588256 11.2918877,6.19893724 11.271911,5.93404629 C11.2453925,5.58121828 11.186532,5.22069127 11.1029473,4.89241569 C11.0746106,4.78055418 11.042819,4.67091645 11.0079774,4.56568537 L10.9394898,4.37496644 L10.8421406,4.1239081 L7.553,-1.253 L7.59765334,-1.17839186 C7.42147223,-1.49055882 7.23736273,-1.75487145 7.03732221,-1.9821384 Z M4.78540583,1.77635684e-15 L4.84762503,0.07840816 C4.87213223,0.11205792 4.90027463,0.15373104 4.93165543,0.20495648 L4.99400583,0.31215 L8.14240583,5.45955 L8.17725027,5.56446852 C8.18317249,5.58491667 8.18937249,5.60765 8.19570583,5.63265 C8.23430583,5.78425 8.26630583,5.97205 8.28040583,6.15965 C8.29040583,6.29225 8.28970583,6.40085 8.28390583,6.48105 L7.85518183,6.8776588 C7.63499383,7.077286 7.40292583,7.27885 7.20120583,7.42915 C6.78090583,7.74235 6.38271208,8.0698375 6.0072152,8.41195 L5.63300583,8.76505 C5.16630583,9.23185 4.58540583,9.92665 4.54880583,10.81685 C4.52460583,11.34535 4.70540583,11.92205 4.88690583,12.38455 C5.09560583,12.91625 5.40630583,13.54195 5.82270583,14.23535 C6.65730583,15.62545 7.95270583,17.34865 9.81680583,19.21265 C11.8417734,21.2376176 13.7429131,22.5610762 15.240327,23.377596 L15.656932,23.5972612 C15.7244546,23.631629 15.7910013,23.6648894 15.8565419,23.6970632 L16.2374696,23.8772365 L16.5927991,24.0323425 L16.9210796,24.1633895 C16.9734583,24.1832818 17.0246496,24.2022136 17.0746231,24.2202061 L17.35961,24.3170556 L17.6139212,24.3923675 L17.8361058,24.44715 C18.4610751,24.5845654 18.9825857,24.3695056 19.2924978,24.1933344 L19.4399058,24.10345 C19.6895858,23.94113 19.9223058,23.73753 20.1234226,23.5445668 L20.2805058,23.39005 C20.6324058,23.029825 20.9695683,22.6465938 21.2923308,22.2411156 L21.6103058,21.82825 C21.9148058,21.41945 22.2389058,21.05135 22.5985058,20.70655 L22.7029058,20.69765 C22.7591725,20.69605 22.8150836,20.6990278 22.8656614,20.7051611 L22.9681808,20.72365 L22.9894058,20.72955 L28.7782058,24.08465 L28.9865058,24.18965 L28.9550725,24.3765352 C28.9334558,24.4848796 28.9022642,24.6164907 28.858235,24.775481 L28.7823469,25.0369367 L28.7175354,25.2376423 L28.6271091,25.4829899 C28.4355812,25.9685816 28.0962183,26.6368875 27.5062058,27.25495 C26.7237267,28.0747083 25.4043492,28.9093448 23.0943634,28.9774746 L22.3394965,28.9938485 C22.3026777,28.9938485 22.2636558,28.9938485 22.2221558,28.99315 L21.9412183,28.9826562 C21.8361933,28.9765875 21.7190558,28.9676 21.5876058,28.95465 L21.2271123,28.9121509 C20.5828392,28.8240861 19.7227558,28.6436833 18.6685058,28.27835 L18.2366545,28.122223 C18.1628996,28.094459 18.0882594,28.0658045 18.012741,28.0362307 L17.5491487,27.847527 C17.3121395,27.7474297 17.0673528,27.638542 16.814978,27.5200883 L16.300167,27.2701965 C14.1134326,26.1739214 11.4085119,24.3774389 8.29498354,21.4319523 L7.91940583,21.07295 C4.52179502,17.7966473 2.58228676,15.0227575 1.47495025,12.8170676 L1.25017307,12.3531406 C1.21475705,12.277277 1.18034546,12.202144 1.14690976,12.1277448 L0.957778325,11.6901784 C0.89848605,11.5472739 0.842869277,11.4073283 0.790699897,11.2703655 L0.644305827,10.86845 C0.152499161,9.45278333 0.0226036052,8.35982778 0.00286804962,7.56558333 L0.000420475924,7.24341132 C0.000891972522,7.19274074 0.00174201787,7.14357669 0.00287886595,7.09591045 L0.0374358274,6.28325 C0.199857702,4.82759375 0.574772741,3.58436914 0.920187842,2.92831982 L0.998905827,2.78785 C1.73930583,1.49585 3.33820583,0.52155 4.18000583,0.19428 L4.44490503,0.09845296 C4.48299463,0.08528104 4.51838903,0.07342896 4.55159063,0.06277704 L4.72850583,0.01231 L4.78540583,1.77635684e-15 Z">
        </path>
    </g>
</svg>