<svg viewBox="0 0 48 48" xmlns="http://www.w3.org/2000/svg">
  <path
    d="M14.3759 11L15.8657 7.7519C16.3532 6.67848 17.408 6 18.5721 6H29.4279C30.592 6 31.6468 6.67848 32.1343 7.7519L33.6241 11H38C41.3137 11 44 13.6863 44 17V35C44 38.3137 41.3137 41 38 41H10C6.68629 41 4 38.3137 4 35V17C4 13.6863 6.68629 11 10 11H14.3759ZM17.6764 11H30.3236L29.4063 9H18.5937L18.5926 9.00258L17.6764 11ZM10 14C8.34315 14 7 15.3431 7 17V35C7 36.6569 8.34315 38 10 38H38C39.6569 38 41 36.6569 41 35V17C41 15.3431 39.6569 14 38 14H10ZM24 22C21.7915 22 20 23.7897 20 26C20 28.2103 21.7915 30 24 30C26.2142 30 28 28.2125 28 26C28 23.7875 26.2142 22 24 22ZM17 26C17 22.1318 20.1357 19 24 19C27.8722 19 31 22.1318 31 26C31 29.8682 27.8722 33 24 33C20.1357 33 17 29.8682 17 26ZM37 16C35.9 16 35 16.89 35 17.9951C35 19.1002 35.9 20 37 20C38.1 20 39 19.1002 39 17.9951C39 16.89 38.1 16 37 16Z" />
</svg>