<svg viewBox="0 0 48 48" xmlns="http://www.w3.org/2000/svg">
  <path fill-rule="evenodd" clip-rule="evenodd"
    d="M24 34C29.5228 34 34 29.5228 34 24C34 18.4772 29.5228 14 24 14C18.4772 14 14 18.4772 14 24C14 29.5228 18.4772 34 24 34ZM24 31C27.866 31 31 27.866 31 24C31 20.134 27.866 17 24 17C20.134 17 17 20.134 17 24C17 27.866 20.134 31 24 31ZM43 24C43 34.4845 34.4845 43 24 43C13.5155 43 5 34.4845 5 24C5 13.5155 13.5155 5 24 5C34.4845 5.00864 42.9914 13.5155 43 24ZM8 24C8 32.8277 15.1723 40 24 40C32.8269 40 39.9987 32.829 40 24.0025C39.9927 15.1732 32.8278 8.00791 23.9987 8C15.1716 8.0007 8 15.1727 8 24ZM24 26C25.1046 26 26 25.1046 26 24C26 22.8954 25.1046 22 24 22C22.8954 22 22 22.8954 22 24C22 25.1046 22.8954 26 24 26Z" />
</svg>