<svg width="56" height="56" viewBox="0 0 56 56" fill="none" xmlns="http://www.w3.org/2000/svg">
<path fill-rule="evenodd" clip-rule="evenodd" d="M39 15L37.284 11.49C36.536 9.96 35.0107 9 33.346 9H22.654C20.9893 9 19.464 9.96 18.716 11.49L17 15H12C8.68629 15 6 17.6863 6 21V41C6 44.3137 8.68629 47 12 47H44C47.3137 47 50 44.3137 50 41V21C50 17.6863 47.3137 15 44 15H39ZM28 21C23.0292 21 19 25.0292 19 30C19 34.9708 23.0292 39 28 39C32.9708 39 37 34.9708 37 30C37 25.0292 32.9708 21 28 21ZM22 30C22 26.6867 24.6867 24 28 24C31.3133 24 34 26.6867 34 30C34 33.3133 31.3133 36 28 36C24.6867 36 22 33.3133 22 30Z" fill="#4D4D4D"/>
</svg>
