<svg width="48" height="48" viewBox="0 0 48 48" fill="none" xmlns="http://www.w3.org/2000/svg">
<g clip-path="url(#clip0_6482_301188)">
<path d="M33 10H5.5C4.67157 10 4 10.6716 4 11.5C4 12.3284 4.67157 13 5.5 13H8H33C34.1046 13 35 13.8954 35 15L35 42.5C35 43.3284 35.6716 44 36.5 44C37.3284 44 38 43.3284 38 42.5C38 42.4989 38 42.4977 38 42.4966V15C38 12.2386 35.7614 10 33 10Z" fill="#4D4D4D"/>
<path d="M9 6.5C9 5.67157 9.67157 5 10.5 5C11.3284 5 12 5.67157 12 6.5V13H9V6.5Z" fill="#4D4D4D"/>
<path d="M14 36H31.5C32.3284 36 33 36.6716 33 37.5C33 38.3284 32.3284 39 31.5 39H14C11.2386 39 9 36.7614 9 34V16.5C9 15.6716 9.67157 15 10.5 15C11.3284 15 12 15.6716 12 16.5V34C12 35.1046 12.8954 36 14 36Z" fill="#4D4D4D"/>
<path d="M41.5 39H35V36H41.5C42.3284 36 43 36.6716 43 37.5C43 38.3284 42.3284 39 41.5 39Z" fill="#4D4D4D"/>
</g>
<defs>
<clipPath id="clip0_6482_301188">
<rect width="48" height="48" fill="white"/>
</clipPath>
</defs>
</svg>
