<svg viewBox="0 0 48 48" xmlns="http://www.w3.org/2000/svg">
  <path
    d="M9 6.5C9 5.67157 9.67157 5 10.5 5C11.3284 5 12 5.67157 12 6.5V10H33C35.7614 10 38 12.2386 38 15V36H41.5C42.3284 36 43 36.6716 43 37.5C43 38.3284 42.3284 39 41.5 39H38V42.5C38 43.3284 37.3284 44 36.5 44C35.6716 44 35 43.3284 35 42.5L35 15C35 13.8954 34.1046 13 33 13H5.5C4.67157 13 4 12.3284 4 11.5C4 10.6716 4.67157 10 5.5 10H9V6.5ZM14 36H31.5C32.3284 36 33 36.6716 33 37.5C33 38.3284 32.3284 39 31.5 39H14C11.2386 39 9 36.7614 9 34V16.5C9 15.6716 9.67157 15 10.5 15C11.3284 15 12 15.6716 12 16.5V34C12 35.1046 12.8954 36 14 36Z" />
</svg>