<svg width="32" height="32" viewBox="0 0 32 32" fill="none" xmlns="http://www.w3.org/2000/svg">
  <path fill-rule="evenodd" clip-rule="evenodd" d="M24 13H8C6.89543 13 6 13.8954 6 15V25C6 26.1046 6.89543 27 8 27H24C25.1046 27 26 26.1046 26 25V15C26 13.8954 25.1046 13 24 13ZM8 11C5.79086 11 4 12.7909 4 15V25C4 27.2091 5.79086 29 8 29H24C26.2091 29 28 27.2091 28 25V15C28 12.7909 26.2091 11 24 11H8ZM11 9C11 6.23858 13.2386 4 16 4C18.0503 4 19.8124 5.2341 20.584 7H22.7101C21.8496 4.10851 19.171 2 16 2C12.134 2 9 5.13401 9 9V12H11V9ZM18 20C18 21.1046 17.1046 22 16 22C14.8954 22 14 21.1046 14 20C14 18.8954 14.8954 18 16 18C17.1046 18 18 18.8954 18 20Z" fill="#333333"/>
</svg>
