<svg viewBox="0 0 48 48" xmlns="http://www.w3.org/2000/svg">
  <path
    d="M40.1899 7.95413C40.7819 8.53371 40.7919 9.48341 40.2123 10.0753L24.5714 26.0495C23.9918 26.6414 23.0422 26.6514 22.4502 26.0718C21.8583 25.4922 21.8483 24.5425 22.4279 23.9506L38.0687 7.97649C38.6483 7.38456 39.598 7.37455 40.1899 7.95413ZM26 11H12C11.4477 11 11 11.4477 11 12V36C11 36.5523 11.4477 37 12 37H36C36.5523 37 37 36.5523 37 36V22H40V36C40 38.2091 38.2091 40 36 40H12C9.79086 40 8 38.2091 8 36V12C8 9.79086 9.79086 8 12 8H26V11Z" />
</svg>