<svg width="32" height="32" viewBox="0 0 32 32" fill="none" xmlns="http://www.w3.org/2000/svg">
<path fill-rule="evenodd" clip-rule="evenodd" d="M20.7003 16.81C21.0803 16.44 21.1003 15.85 20.7503 15.45C20.4003 15.06 19.8003 14.99 19.3703 15.3L19.2603 15.4L17.0103 17.61V6C17.0103 5.45 16.5503 5 15.9903 5C15.4203 5 14.9703 5.45 14.9703 6V17.58L12.7403 15.4C12.3903 15.05 11.8203 15 11.4103 15.3L11.3003 15.4C10.9403 15.75 10.9003 16.3 11.2003 16.7L11.3003 16.81L15.2803 20.71C15.6403 21.06 16.2003 21.1 16.6103 20.8L16.7203 20.71L20.7003 16.81Z" fill="#333333"/>
<path fill-rule="evenodd" clip-rule="evenodd" d="M7 12C5.89543 12 5 12.8954 5 14V24C5 25.1046 5.89543 26 7 26H25C26.1046 26 27 25.1046 27 24V14C27 12.8954 26.1046 12 25 12H20V10H25C27.2091 10 29 11.7909 29 14V24C29 26.2091 27.2091 28 25 28H7C4.79086 28 3 26.2091 3 24V14C3 11.7909 4.79086 10 7 10H12V12H7Z" fill="#333333"/>
</svg>
