<?xml version="1.0" encoding="UTF-8"?>
<svg width="48px" height="48px" viewBox="0 0 48 48" version="1.1" xmlns="http://www.w3.org/2000/svg" xmlns:xlink="http://www.w3.org/1999/xlink">
    <title>手电筒_lm</title>
    <g id="手电筒_lm" stroke="none" stroke-width="1" fill="none" fill-rule="evenodd">
        <g transform="translate(11.000000, 3.000000)" fill="#4D4D4D">
            <path d="M9,22.9995 L9,39.0002 C9,39.2763 9.2239,39.5002 9.5,39.5002 L16.5,39.5002 C16.7761,39.5002 17,39.2763 17,39.0002 L17,22.9995 L20,22.9995 L20,39.0002 C20,40.9332 18.433,42.5002 16.5,42.5002 L9.5,42.5002 C7.567,42.5002 6,40.9332 6,39.0002 L6,22.9995 L9,22.9995 Z" id="路径"></path>
            <path d="M24.8182,9 C25.4682,9 26,9.525 26,10.1667 L26,12.7917 C26,13.0017 25.9409,13.2 25.8345,13.375 L20,23 L6,23 L0.1655,13.375 C0.0591,13.2 0,13.0017 0,12.7917 L0,10.1667 C0,9.525 0.5318,9 1.1818,9 L24.8182,9 Z M23,12 L3,12 L3,12.264 L7.69,20 L18.309,20 L23,12.263 L23,12 Z" id="路径" fill-rule="nonzero"></path>
            <path d="M20,20 L20,39 C20,41.209139 18.209139,43 16,43 L10,43 C7.790861,43 6,41.209139 6,39 L6,20 L20,20 Z M17,23 L9,23 L9,39 C9,39.5128358 9.38604019,39.9355072 9.88337887,39.9932723 L10,40 L16,40 C16.5128358,40 16.9355072,39.6139598 16.9932723,39.1166211 L17,39 L17,23 Z" id="矩形" fill-rule="nonzero"></path>
            <path d="M13,28 C11.9,28 11,28.9 11,30 C11,31.1 11.9,32 13,32 C14.1,32 15,31.1 15,30 C15,28.9 14.1,28 13,28 Z" id="路径"></path>
            <path d="M11.5,1.5 C11.5,0.67157 12.1716,0 13,0 C13.8284,0 14.5,0.67157 14.5,1.5 L14.5,6.5 C14.5,7.32843 13.8284,8 13,8 C12.1716,8 11.5,7.32843 11.5,6.5 L11.5,1.5 Z" id="路径"></path>
            <path d="M4,4.5 C4,3.67157 4.6716,3 5.5,3 C6.3284,3 7,3.67157 7,4.5 L7,6.5 C7,7.32843 6.3284,8 5.5,8 C4.6716,8 4,7.32843 4,6.5 L4,4.5 Z" id="路径"></path>
            <path d="M19,4.5 C19,3.67157 19.6716,3 20.5,3 C21.3284,3 22,3.67157 22,4.5 L22,6.5 C22,7.32843 21.3284,8 20.5,8 C19.6716,8 19,7.32843 19,6.5 L19,4.5 Z" id="路径"></path>
        </g>
    </g>
</svg>