<svg viewBox="0 0 48 48" xmlns="http://www.w3.org/2000/svg">
    <path fill-rule="evenodd" clip-rule="evenodd"
        d="M11.1655 14.375L17 24V40.0002C17 41.9332 18.567 43.5002 20.5 43.5002H27.5C29.433 43.5002 31 41.9332 31 40.0002V24L36.8345 14.375C36.9409 14.2 37 14.0017 37 13.7917V11.1667C37 10.525 36.4682 10 35.8182 10H12.1818C11.5318 10 11 10.525 11 11.1667V13.7917C11 14.0017 11.0591 14.2 11.1655 14.375ZM14 13V13.2638L18.6896 21H29.3104L34 13.2638V13H14ZM28 40.0002V24H20V40.0002C20 40.2763 20.2239 40.5002 20.5 40.5002H27.5C27.7761 40.5002 28 40.2763 28 40.0002ZM24 1C23.1716 1 22.5 1.67157 22.5 2.5V7.5C22.5 8.32843 23.1716 9 24 9C24.8284 9 25.5 8.32843 25.5 7.5V2.5C25.5 1.67157 24.8284 1 24 1ZM24 29C22.9 29 22 29.9 22 31C22 32.1 22.9 33 24 33C25.1 33 26 32.1 26 31C26 29.9 25.1 29 24 29ZM15 5.5C15 4.67157 15.6716 4 16.5 4C17.3284 4 18 4.67157 18 5.5V7.5C18 8.32843 17.3284 9 16.5 9C15.6716 9 15 8.32843 15 7.5V5.5ZM31.5 4C30.6716 4 30 4.67157 30 5.5V7.5C30 8.32843 30.6716 9 31.5 9C32.3284 9 33 8.32843 33 7.5V5.5C33 4.67157 32.3284 4 31.5 4Z" />
</svg>