<svg viewBox="0 0 48 48" xmlns="http://www.w3.org/2000/svg">
  <path
    d="M20.5119 28.5278H10.4639L7.99988 36.0158H4.67188L13.6959 10.3838H17.5039L26.5279 36.0158H22.9759L20.5119 28.5278ZM19.5839 25.6798L15.5199 13.2958L11.4239 25.6798H19.5839Z" />
  <path
    d="M39.9375 33.9531C38.8958 34.8385 37.8906 35.4635 36.9219 35.8281C35.9635 36.1927 34.9323 36.375 33.8281 36.375C32.0052 36.375 30.6042 35.9323 29.625 35.0469C28.6458 34.151 28.1562 33.0104 28.1562 31.625C28.1562 30.8125 28.3385 30.0729 28.7031 29.4062C29.0781 28.7292 29.5625 28.1875 30.1562 27.7812C30.7604 27.375 31.4375 27.0677 32.1875 26.8594C32.7396 26.7135 33.5729 26.5729 34.6875 26.4375C36.9583 26.1667 38.6302 25.8438 39.7031 25.4688C39.7135 25.0833 39.7188 24.8385 39.7188 24.7344C39.7188 23.5885 39.4531 22.7812 38.9219 22.3125C38.2031 21.6771 37.1354 21.3594 35.7188 21.3594C34.3958 21.3594 33.4167 21.5938 32.7812 22.0625C32.1562 22.5208 31.6927 23.3385 31.3906 24.5156L28.6406 24.1406C28.8906 22.9635 29.3021 22.0156 29.875 21.2969C30.4479 20.5677 31.276 20.0104 32.3594 19.625C33.4427 19.2292 34.6979 19.0312 36.125 19.0312C37.5417 19.0312 38.6927 19.1979 39.5781 19.5312C40.4635 19.8646 41.1146 20.2865 41.5312 20.7969C41.9479 21.2969 42.2396 21.9323 42.4062 22.7031C42.5 23.1823 42.5469 24.0469 42.5469 25.2969V29.0469C42.5469 31.6615 42.6042 33.3177 42.7188 34.0156C42.8438 34.7031 43.0833 35.3646 43.4375 36H40.5C40.2083 35.4167 40.0208 34.7344 39.9375 33.9531ZM39.7031 27.6719C38.6823 28.0885 37.151 28.4427 35.1094 28.7344C33.9531 28.901 33.1354 29.0885 32.6562 29.2969C32.1771 29.5052 31.8073 29.8125 31.5469 30.2188C31.2865 30.6146 31.1562 31.0573 31.1562 31.5469C31.1562 32.2969 31.4375 32.9219 32 33.4219C32.5729 33.9219 33.4062 34.1719 34.5 34.1719C35.5833 34.1719 36.5469 33.9375 37.3906 33.4688C38.2344 32.9896 38.8542 32.3385 39.25 31.5156C39.5521 30.8802 39.7031 29.9427 39.7031 28.7031V27.6719Z" />
</svg>