<svg width="48" height="48" viewBox="0 0 48 48" fill="none" xmlns="http://www.w3.org/2000/svg">
<path fill-rule="evenodd" clip-rule="evenodd" d="M36 25V33V34V37H38C38.5523 37 39 36.5523 39 36V25C39 16.7157 32.2843 10 24 10C15.7157 10 9 16.7157 9 25V36C9 36.5523 9.44772 37 10 37H12V34V33V25C12 18.3726 17.3726 13 24 13C30.6274 13 36 18.3726 36 25Z" fill="#4D4D4D"/>
<path d="M12 27H13C14.6569 27 16 28.3431 16 30V34C16 35.6569 14.6569 37 13 37H12V27Z" fill="#4D4D4D"/>
<path d="M36 27H35C33.3431 27 32 28.3431 32 30V34C32 35.6569 33.3431 37 35 37H36V27Z" fill="#4D4D4D"/>
</svg>
