<svg width="48" height="48" viewBox="0 0 48 48" fill="none" xmlns="http://www.w3.org/2000/svg">
<path fill-rule="evenodd" clip-rule="evenodd" d="M8 24C8 32.8277 15.1723 40 24 40C32.8269 40 39.9987 32.829 40 24.0025C39.9927 15.1732 32.8278 8.00791 23.9987 8C15.1716 8.0007 8 15.1727 8 24ZM43 24C43 34.4845 34.4845 43 24 43C13.5155 43 5 34.4845 5 24C5 13.5155 13.5155 5 24 5C34.4845 5.00864 42.9914 13.5155 43 24Z" fill="#4D4D4D"/>
<path d="M25.5681 29H22.4642V27.7097C22.4642 25.4823 23.4093 24.3613 25.6845 22.8222L25.8607 22.703C27.4662 21.616 27.8961 21.0895 27.8961 19.9677C27.8961 18.9411 27.4873 17.9565 26.7597 17.2306C26.032 16.5046 25.0452 16.0968 24.0162 16.0968C22.9871 16.0968 22.0003 16.5046 21.2726 17.2306C20.545 17.9565 20.1072 18.9734 20.1072 20H17C17 18.152 17.7681 16.3475 19.0778 15.0408C20.3875 13.7341 22.1639 13 24.0162 13C25.8684 13 27.6448 13.7341 28.9545 15.0408C30.2642 16.3475 31 18.1198 31 19.9677C31 22.4103 29.9835 23.6537 27.6035 25.2648L27.4266 25.3848C25.9367 26.3935 25.5681 26.8302 25.5681 27.7097V29Z" fill="#4D4D4D"/>
<path d="M22.6502 34.4142C23.0253 34.7893 23.534 35 24.0645 35C24.5949 35 25.1036 34.7893 25.4787 34.4142C25.8537 34.0391 26.0645 33.5304 26.0645 33C26.0645 32.4696 25.8537 31.9609 25.4787 31.5858C25.1036 31.2107 24.5949 31 24.0645 31C23.534 31 23.0253 31.2107 22.6502 31.5858C22.2752 31.9609 22.0645 32.4696 22.0645 33C22.0645 33.5304 22.2752 34.0391 22.6502 34.4142Z" fill="#4D4D4D"/>
</svg>
