<svg width="32" height="32" viewBox="0 0 32 32" fill="none" xmlns="http://www.w3.org/2000/svg">
<path d="M7.76429 7.75C7.49142 7.75 7.23305 7.85499 7.03431 8.04661L7.03351 8.04738C4.91221 10.1108 3.75 12.8604 3.75 15.8057V15.817C3.75 18.7405 4.92372 21.4895 7.03304 23.5521L7.03431 23.5534C7.23305 23.745 7.49142 23.85 7.76429 23.85C8.04881 23.85 8.30724 23.7445 8.51655 23.5416C8.72401 23.3413 8.8217 23.0695 8.8217 22.7956C8.8217 22.511 8.70599 22.2461 8.51173 22.0444L8.50608 22.0387C6.79748 20.3749 5.86483 18.1622 5.86483 15.8057C5.86483 13.4378 6.79746 11.2253 8.50568 9.56163C8.70836 9.36596 8.8217 9.09667 8.8217 8.80436C8.8217 8.53173 8.72492 8.26118 8.51943 8.06117C8.31539 7.8512 8.0422 7.75 7.76429 7.75Z" fill="#4D4D4D"/>
<path d="M24.2358 7.75C23.9556 7.75 23.6956 7.85265 23.4945 8.05813C23.2752 8.25918 23.1784 8.53202 23.1784 8.80436C23.1784 9.08897 23.2941 9.35385 23.4883 9.55556L23.494 9.56124C25.2025 11.225 26.1352 13.4376 26.1352 15.8057C26.1352 18.162 25.2028 20.3743 23.4946 22.0381C23.2918 22.2338 23.1784 22.5032 23.1784 22.7956C23.1784 23.0666 23.2742 23.3381 23.4912 23.5388C23.6874 23.7518 23.9627 23.85 24.2358 23.85C24.5145 23.85 24.7766 23.7482 24.9693 23.55C27.0888 21.4868 28.2501 18.7384 28.2501 15.7943C28.2501 12.8615 27.0887 10.1131 24.9693 8.05002C24.7753 7.85051 24.5018 7.75 24.2358 7.75Z" fill="#4D4D4D"/>
<path d="M11.0415 10.4641C10.7766 10.4641 10.5302 10.5712 10.3448 10.7488L10.3422 10.7513C8.98559 12.0895 8.22744 13.8868 8.22744 15.8008C8.22744 17.7141 8.9851 19.4991 10.3401 20.8368C10.5342 21.0369 10.7865 21.1261 11.0415 21.1261C11.2875 21.1261 11.5362 21.0359 11.7273 20.8527C11.9146 20.6732 12.0335 20.4168 12.0335 20.1511C12.0335 19.8822 11.9314 19.6334 11.7256 19.4477C10.7399 18.476 10.2004 17.1714 10.2004 15.7894C10.2004 14.4081 10.7395 13.1145 11.7256 12.1425C11.9329 11.9553 12.0335 11.6945 12.0335 11.4391C12.0335 11.1734 11.9146 10.917 11.7273 10.7375C11.5375 10.5556 11.3004 10.4641 11.0415 10.4641Z" fill="#4D4D4D"/>
<path d="M20.9677 10.4641C20.718 10.4641 20.4665 10.5498 20.2816 10.7376C20.0757 10.9247 19.9758 11.1845 19.9758 11.4391C19.9758 11.695 20.0765 11.9536 20.2698 12.1395C21.2577 13.1119 21.7979 14.4067 21.7979 15.7894C21.7979 17.1727 21.2573 18.4786 20.2698 19.4506C20.0779 19.6351 19.9758 19.8818 19.9758 20.1511C19.9758 20.4057 20.0757 20.6655 20.2816 20.8526C20.4665 21.0404 20.718 21.1261 20.9677 21.1261C21.2296 21.1261 21.4792 21.021 21.6578 20.8372C23.0245 19.499 23.7818 17.7023 23.7818 15.7894C23.7818 13.8892 23.0255 12.0939 21.6611 10.7562C21.4747 10.551 21.2187 10.4641 20.9677 10.4641Z" fill="#4D4D4D"/>
<circle cx="16" cy="16" r="2" fill="#4D4D4D"/>
</svg>
