<svg viewBox="0 0 48 48" xmlns="http://www.w3.org/2000/svg">
  <path
    d="M10.5861 13.8624C11.105 13.2166 11.0021 12.2725 10.3563 11.7536C9.71049 11.2347 8.76633 11.3376 8.24745 11.9834C5.58943 15.2915 4 19.4648 4 23.9998C4 28.5349 5.58943 32.7082 8.24745 36.0163C8.76633 36.6621 9.71049 36.765 10.3563 36.2461C11.0021 35.7272 11.105 34.783 10.5861 34.1372C8.33579 31.3366 7 27.8197 7 23.9998C7 20.1799 8.33579 16.6631 10.5861 13.8624ZM39.7526 11.9834C39.2337 11.3376 38.2895 11.2347 37.6437 11.7536C36.9979 12.2725 36.895 13.2166 37.4139 13.8624C39.6642 16.6631 41 20.1799 41 23.9998C41 27.8197 39.6642 31.3366 37.4139 34.1372C36.895 34.783 36.9979 35.7272 37.6437 36.2461C38.2895 36.765 39.2337 36.6621 39.7526 36.0163C42.4106 32.7082 44 28.5349 44 23.9998C44 19.4648 42.4106 15.2915 39.7526 11.9834ZM15.884 16.0696C16.5254 16.5938 16.6204 17.5388 16.0962 18.1803C14.7775 19.7937 14 21.8119 14 24.0002C14 26.1885 14.7775 28.2068 16.0962 29.8202C16.6204 30.4617 16.5254 31.4066 15.884 31.9309C15.2425 32.4552 14.2976 32.3602 13.7733 31.7187C12.0409 29.599 11 26.9177 11 24.0002C11 21.0827 12.0409 18.4015 13.7733 16.2818C14.2976 15.6403 15.2425 15.5453 15.884 16.0696ZM32.116 16.0696C32.7575 15.5453 33.7024 15.6403 34.2267 16.2818C35.9591 18.4014 37 21.0827 37 24.0002C37 26.9177 35.9591 29.599 34.2267 31.7187C33.7024 32.3602 32.7575 32.4552 32.116 31.9309C31.4746 31.4066 31.3796 30.4617 31.9038 29.8202C33.2225 28.2068 34 26.1885 34 24.0002C34 21.8119 33.2225 19.7937 31.9038 18.1803C31.3796 17.5388 31.4746 16.5938 32.116 16.0696ZM27 24C27 25.6569 25.6569 27 24 27C22.3431 27 21 25.6569 21 24C21 22.3431 22.3431 21 24 21C25.6569 21 27 22.3431 27 24Z" />
</svg>