<svg width="32" height="32" viewBox="0 0 32 32" fill="none" xmlns="http://www.w3.org/2000/svg">
<path fill-rule="evenodd" clip-rule="evenodd" d="M16 4C9.37226 4 4 9.37226 4 16C4 22.6277 9.37226 28 16 28C22.6277 28 28 22.6277 28 16C28 9.37226 22.6277 4 16 4ZM2 16C2 8.26769 8.26769 2 16 2C23.7323 2 30 8.26769 30 16C30 23.7323 23.7323 30 16 30C8.26769 30 2 23.7323 2 16Z" fill="#333333"/>
<path fill-rule="evenodd" clip-rule="evenodd" d="M16 9C15.175 9 14.5 9.675 14.5 10.5C14.5 11.325 15.175 12 16 12C16.825 12 17.5 11.325 17.5 10.5C17.5 9.675 16.825 9 16 9Z" fill="#333333"/>
<rect x="15" y="13" width="2" height="10" rx="1" fill="#333333"/>
</svg>
