<svg viewBox="0 0 48 48" xmlns="http://www.w3.org/2000/svg">
  <path
    d="M22.9998 14C25.5033 14 27.9012 14.4998 30.1026 15.4128L33.2533 13.5938C30.1862 11.9368 26.6987 11 22.9998 11C14.6816 11 7.43184 15.7378 3.6297 22.7498C3.20677 23.5298 3.20677 24.4702 3.6297 25.2502C4.38833 26.6492 5.2842 27.9578 6.29842 29.1562L8.94439 27.6286C7.96164 26.5294 7.09499 25.3132 6.36565 24C9.70763 17.9828 15.9328 14 22.9998 14ZM20.2336 21.1107L16.0143 23.5467C16.2479 19.892 19.2861 17 22.9998 17C24.1136 17 25.1666 17.2601 26.1015 17.7229L21.8845 20.1576C21.2569 20.3394 20.6929 20.6708 20.2336 21.1107ZM22.9998 37C18.7121 37 14.7084 35.7412 11.3143 33.561L14.3023 31.8359C16.9198 33.2226 19.8777 34 22.9998 34C30.0668 34 36.292 30.0172 39.634 24C38.6581 22.2428 37.4363 20.6592 36.0194 19.2975L38.7085 17.745C40.1376 19.2271 41.3725 20.9102 42.37 22.7498C42.7929 23.5298 42.7929 24.4702 42.37 25.2502C38.5678 32.2622 31.3181 37 22.9998 37ZM22.9998 31C21.303 31 19.7472 30.3962 18.5355 29.3918L21.4706 27.6973C21.9417 27.8923 22.4582 28 22.9998 28C25.0312 28 26.7088 26.4858 26.9657 24.5246L29.9024 22.8292C29.9665 23.2099 29.9998 23.601 29.9998 24C29.9998 27.866 26.8658 31 22.9998 31ZM4.29904 32.25C3.5816 32.6642 3.33579 33.5816 3.75 34.299C4.16421 35.0165 5.0816 35.2623 5.79904 34.8481L39.7868 15.2252C40.5042 14.811 40.7501 13.8936 40.3358 13.1762C39.9216 12.4588 39.0042 12.2129 38.2868 12.6272L4.29904 32.25Z" />
</svg>