<svg width="48" height="48" viewBox="0 0 48 48" fill="none" xmlns="http://www.w3.org/2000/svg">
<path d="M11.3143 33.561C14.7084 35.7412 18.7121 37 22.9998 37C31.3181 37 38.5678 32.2622 42.37 25.2502C42.7929 24.4702 42.7929 23.5298 42.37 22.7498C41.3725 20.9102 40.1376 19.2271 38.7085 17.745L36.0194 19.2975C37.4363 20.6592 38.6581 22.2428 39.634 24C36.292 30.0172 30.0668 34 22.9998 34C19.8777 34 16.9198 33.2226 14.3023 31.8359L11.3143 33.561Z" fill="#4D4D4D"/>
<path d="M18.5355 29.3918C19.7472 30.3962 21.303 31 22.9998 31C26.8658 31 29.9998 27.866 29.9998 24C29.9998 23.601 29.9665 23.2099 29.9024 22.8292L26.9657 24.5246C26.7088 26.4858 25.0312 28 22.9998 28C22.4582 28 21.9417 27.8923 21.4706 27.6973L18.5355 29.3918Z" fill="#4D4D4D"/>
<path d="M20.2336 21.1107L16.0143 23.5467C16.2479 19.892 19.2861 17 22.9998 17C24.1136 17 25.1666 17.2601 26.1015 17.7229L21.8845 20.1576C21.2569 20.3394 20.6929 20.6708 20.2336 21.1107Z" fill="#4D4D4D"/>
<path d="M30.1026 15.4128C27.9012 14.4998 25.5033 14 22.9998 14C15.9328 14 9.70763 17.9828 6.36565 24C7.09499 25.3132 7.96164 26.5294 8.94439 27.6286L6.29842 29.1562C5.2842 27.9578 4.38833 26.6492 3.6297 25.2502C3.20677 24.4702 3.20677 23.5298 3.6297 22.7498C7.43184 15.7378 14.6816 11 22.9998 11C26.6987 11 30.1862 11.9368 33.2533 13.5938L30.1026 15.4128Z" fill="#4D4D4D"/>
<rect x="3" y="33" width="42.2457" height="3" rx="1.5" transform="rotate(-30 3 33)" fill="#4D4D4D"/>
</svg>
