<svg viewBox="0 0 48 48" xmlns="http://www.w3.org/2000/svg">
    <path fill-rule="evenodd" clip-rule="evenodd"
        d="M24.6524 43.4402C33.8987 35.5044 41 29.2662 41 20.4103C41 11.3471 33.3888 4 24 4C14.6112 4 7 11.3471 7 20.4103C7 29.2662 14.1013 35.5044 23.3476 43.4402C23.7222 43.7617 24.2778 43.7617 24.6524 43.4402ZM33.9523 30.3945C36.6151 27.0709 38 23.9404 38 20.4103C38 13.1029 31.8327 7 24 7C16.1673 7 10 13.1029 10 20.4103C10 23.9404 11.3849 27.0709 14.0477 30.3945C16.5134 33.4721 19.9079 36.5164 24 40.0446C28.0921 36.5164 31.4866 33.4721 33.9523 30.3945ZM17 13H20V29H17V13ZM27.0488 29H24V14.4634C24 13.6098 24.7317 13 25.4634 13H28.7561C31.6829 13 34 15.0732 34 18C34 20.9268 31.6829 23 28.7561 23H27.0488V29ZM27.0488 20H28.7561C29.9756 20 31 19.2195 31 18C31 16.7805 29.9756 16 28.7561 16H27.0488V20Z" />
</svg>