<?xml version="1.0" encoding="UTF-8"?>
<svg width="48px" height="48px" viewBox="0 0 48 48" version="1.1" xmlns="http://www.w3.org/2000/svg" xmlns:xlink="http://www.w3.org/1999/xlink">
    <title>IP_lm</title>
    <g id="IP_lm" stroke="none" stroke-width="1" fill="none" fill-rule="evenodd">
        <g transform="translate(17.000000, 13.000000)" fill="#4D4D4D" fill-rule="nonzero">
            <path d="M10.0488,16 L7,16 L7,1.4634 C7,0.6098 7.7317,0 8.4634,0 L11.7561,0 C14.6829,0 17,2.0732 17,5 C17,7.9268 14.6829,10 11.7561,10 L10.0488,10 L10.0488,16 Z M10.0488,7 L11.7561,7 C12.9756,7 14,6.2195 14,5 C14,3.7805 12.9756,3 11.7561,3 L10.0488,3 L10.0488,7 Z" id="形状"></path>
            <polygon id="路径" points="3 0 0 0 0 16 3 16"></polygon>
        </g>
        <path d="M24,4 C33.3888407,4 41,11.6111593 41,21 C41,24.2909339 39.0956531,28.1006264 36.5573683,31.661084 L36.1031136,32.2866565 L35.637249,32.9061167 L35.1613261,33.5185266 C35.0812536,33.6199553 35.0008267,33.7210511 34.9200776,33.8217946 L34.4319762,34.4218706 C34.3500679,34.5211264 34.2679021,34.6199907 34.1855111,34.718444 L33.688722,35.3040757 L33.1880805,35.8789055 L32.6851381,36.4419955 L32.1814461,36.9924078 L31.6785563,37.5292044 L31.1780199,38.0514475 L30.6813886,38.5581991 L30.1902138,39.0485214 L29.706047,39.5214763 L29.2304396,39.9761261 L28.5364714,40.6217268 L28.0890505,41.0265102 L27.6556193,41.4097058 L27.2377292,41.7703755 L26.6434276,42.2670926 L26.2711782,42.5673444 L25.7526102,42.9690382 L25.4356982,43.2030103 L25.1436363,43.408829 L24.877976,43.5855566 L24.6402687,43.7322552 C24.3426507,43.9074169 24.1237113,44 24,44 C23.8762887,44 23.6573493,43.9074169 23.3597313,43.7322552 L23.122024,43.5855566 L22.8563637,43.408829 L22.5643018,43.2030103 L22.2473898,42.9690382 L21.7288218,42.5673444 L21.3565724,42.2670926 L20.9649031,41.9419701 L20.5553654,41.592915 L19.9109495,41.0265102 L19.4635286,40.6217268 L19.0036694,40.1962934 L18.5329236,39.751148 L18.0528426,39.2872284 L17.5649778,38.8054725 L17.0708808,38.3068184 L16.572103,37.7922038 L16.070196,37.2625667 L15.5667112,36.718845 L15.0632001,36.1619766 C14.9793656,36.0681218 14.8955946,35.9737582 14.8119195,35.8789055 L14.311278,35.3040757 L13.8144889,34.718444 L13.3231037,34.1229484 C13.2417427,34.0229292 13.1606715,33.9225381 13.0799224,33.8217946 L12.5995521,33.2132615 C12.5202208,33.1111867 12.4412763,33.0087986 12.362751,32.9061167 L11.8968864,32.2866565 L11.4426317,31.661084 C8.9043469,28.1006264 7,24.2909339 7,21 C7,11.6111593 14.6111593,4 24,4 Z M24,7 C16.2680135,7 10,13.2680135 10,21 C10,23.7556736 12.0054793,27.6757278 15.3816644,31.8972918 L15.9569448,32.6035296 C16.348781,33.0760187 16.7571042,33.5516383 17.1810436,34.0292048 C18.9719936,36.046705 20.9282529,37.9653355 22.6604724,39.4463553 L22.9038594,39.6527387 L23.3687264,40.0368249 C23.4435465,40.0974948 23.5169631,40.1564401 23.5888644,40.2135817 L23.999,40.533 L24.2000892,40.3795169 L24.4111356,40.2135817 L24.8598323,39.8497195 C24.9373474,39.7856789 25.0161541,39.7199923 25.0961406,39.6527387 L25.3395276,39.4463553 C27.0717471,37.9653355 29.0280064,36.046705 30.8189564,34.0292048 C31.2428958,33.5516383 31.651219,33.0760187 32.0430552,32.6035296 L32.6183356,31.8972918 C35.9945207,27.6757278 38,23.7556736 38,21 C38,13.2680135 31.7319865,7 24,7 Z" id="椭圆形" fill="#4D4D4D" fill-rule="nonzero"></path>
    </g>
</svg>