<svg viewBox="0 0 16 16" fill="none" xmlns="http://www.w3.org/2000/svg">
  <path
    d="M1.92958 2.00824C1.92958 1.4514 2.38099 1 2.93782 1H13.9915C14.5484 1 14.9998 1.4514 14.9998 2.00824C14.9998 2.56507 14.5484 3.01648 13.9915 3.01648H2.93782C2.38099 3.01648 1.92958 2.56507 1.92958 2.00824ZM13.9947 14.1071C13.4394 14.1071 12.9893 13.657 12.9893 13.1017L12.9893 2.0054C12.9893 1.45013 13.4394 1 13.9947 1C14.5499 1 15.0001 1.45013 15.0001 2.0054V13.1017C15.0001 13.657 14.5499 14.1071 13.9947 14.1071ZM1.71526 14.2824C1.32017 13.8862 1.32017 13.2439 1.71526 12.8477L12.8144 1.71721C13.2095 1.32101 13.85 1.32101 14.2451 1.71721C14.6402 2.1134 14.6402 2.75577 14.2451 3.15197L3.14598 14.2824C2.7509 14.6786 2.11034 14.6786 1.71526 14.2824Z"
    fill="#333333" />
</svg>