<svg width="48" height="48" viewBox="0 0 48 48" fill="none" xmlns="http://www.w3.org/2000/svg">
<path fill-rule="evenodd" clip-rule="evenodd" d="M13.5 11C13.2239 11 13 11.2239 13 11.5V36.5C13 36.7761 13.2239 37 13.5 37H34.5C34.7761 37 35 36.7761 35 36.5V20.0765H38V36.5C38 38.433 36.433 40 34.5 40H13.5C11.567 40 10 38.433 10 36.5V11.5C10 9.567 11.567 8 13.5 8H28.4643V11H13.5Z" fill="#4D4D4D"/>
<path d="M36 4.74707V11.7471H29C29.9195 11.7486 30.8303 11.5683 31.6799 11.2165C32.5294 10.8648 33.3011 10.3486 33.9505 9.69762C34.6015 9.04822 35.1177 8.27653 35.4694 7.42693C35.8211 6.57734 36.0014 5.66659 36 4.74707Z" fill="#4D4D4D"/>
<path d="M36 18.7471V11.7471H29C30.8565 11.7471 32.637 12.4846 33.9497 13.7973C35.2625 15.1101 36 16.8906 36 18.7471Z" fill="#4D4D4D"/>
<path d="M36 4.74707V11.7471H43C42.0805 11.7486 41.1697 11.5683 40.3201 11.2165C39.4705 10.8648 38.6988 10.3486 38.0494 9.69762C37.3985 9.04822 36.8823 8.27653 36.5305 7.42693C36.1788 6.57734 35.9985 5.66659 36 4.74707V4.74707Z" fill="#4D4D4D"/>
<path d="M36 18.7471V11.7471H43C41.1435 11.7471 39.363 12.4846 38.0502 13.7973C36.7375 15.1101 36 16.8906 36 18.7471Z" fill="#4D4D4D"/>
</svg>
