<svg viewBox="0 0 32 32" xmlns="http://www.w3.org/2000/svg">
  <path
    d="M22 12.255C22 8.74 19.2556 6 16 6C12.7444 6 10 8.74 10 12.255C10 13.3894 10.4217 14.6897 11.5302 16.321C12.5186 17.7757 13.9889 19.3994 16 21.2883C18.0111 19.3994 19.4814 17.7757 20.4698 16.321C21.5783 14.6897 22 13.3894 22 12.255ZM15.4682 23.52C10.5129 19.01 8 15.585 8 12.255C8 7.695 11.5812 4 16 4C20.4188 4 24 7.695 24 12.255C24 15.585 21.4871 19.01 16.5318 23.52L16 24L15.4682 23.52ZM6.00202 23.7834C6.00999 23.7605 6.03721 23.7045 6.12335 23.6134C6.27197 23.4564 6.5387 23.2603 6.96126 23.0508C7.8035 22.6331 9.0725 22.2557 10.6667 21.9862L10.3333 20.0142C8.63959 20.3005 7.15859 20.7206 6.07281 21.2589C5.53136 21.5274 5.03957 21.8489 4.67067 22.2388C4.29718 22.6334 4 23.1552 4 23.7851C4 24.7259 4.64614 25.4102 5.29594 25.8592C5.97631 26.3294 6.89546 26.7127 7.94128 27.0183C10.0462 27.6335 12.8951 28.0002 16 28.0002C19.1049 28.0002 21.9538 27.6335 24.0587 27.0183C25.1045 26.7127 26.0237 26.3294 26.7041 25.8592C27.3539 25.4102 28 24.7259 28 23.7851C28 23.1552 27.7028 22.6334 27.3293 22.2388C26.9604 21.8489 26.4686 21.5274 25.9272 21.2589C24.8414 20.7206 23.3604 20.3005 21.6667 20.0142L21.3333 21.9862C22.9275 22.2557 24.1965 22.6331 25.0387 23.0508C25.4613 23.2603 25.728 23.4564 25.8766 23.6134C25.9628 23.7045 25.99 23.7605 25.998 23.7834C25.986 23.8191 25.9189 23.9707 25.5671 24.2139C25.1342 24.513 24.4424 24.8225 23.4976 25.0987C21.6213 25.6471 18.9702 26.0002 16 26.0002C13.0298 26.0002 10.3787 25.6471 8.50237 25.0987C7.55759 24.8225 6.86582 24.513 6.43293 24.2139C6.0811 23.9707 6.01395 23.8191 6.00202 23.7834ZM5.99902 23.7953C5.99888 23.7953 5.999 23.7937 5.9998 23.7906C5.99956 23.7937 5.99916 23.7953 5.99902 23.7953ZM26.001 23.7953C26.0008 23.7953 26.0004 23.7937 26.0002 23.7906C26.001 23.7937 26.0011 23.7953 26.001 23.7953ZM18 12C18 10.896 17.104 10 16 10C14.896 10 14 10.896 14 12C14 13.104 14.896 14 16 14C17.104 14 18 13.104 18 12Z" />
</svg>