<svg viewBox="0 0 32 32"  xmlns="http://www.w3.org/2000/svg">
    <path fill-rule="evenodd" clip-rule="evenodd"
        d="M9 10V11H8C5.79086 11 4 12.7909 4 15V25C4 27.2091 5.79086 29 8 29H24C26.2091 29 28 27.2091 28 25V15C28 12.7909 26.2091 11 24 11H23V10C23 6.13401 19.866 3 16 3C12.134 3 9 6.13401 9 10ZM11 10V11H21V10C21 7.23858 18.7614 5 16 5C13.2386 5 11 7.23858 11 10ZM6 15C6 13.8954 6.89543 13 8 13H24C25.1046 13 26 13.8954 26 15V25C26 26.1046 25.1046 27 24 27H8C6.89543 27 6 26.1046 6 25V15ZM16 22C17.1046 22 18 21.1046 18 20C18 18.8954 17.1046 18 16 18C14.8954 18 14 18.8954 14 20C14 21.1046 14.8954 22 16 22Z"
         />
</svg>