<svg width="96" height="96" viewBox="0 0 96 96" fill="none" xmlns="http://www.w3.org/2000/svg">
<path fill-rule="evenodd" clip-rule="evenodd" d="M36 42H60V36C60 29.3726 54.6274 24 48 24C41.3726 24 36 29.3726 36 36V42ZM28 42H23C20.2386 42 18 44.2386 18 47V74C18 78.4183 21.5817 82 26 82H70C74.4183 82 78 78.4183 78 74V47C78 44.2386 75.7614 42 73 42H68V36C68 24.9543 59.0457 16 48 16C36.9543 16 28 24.9543 28 36V42ZM50 61.4649C51.1956 60.7733 52 59.4806 52 58C52 55.7909 50.2091 54 48 54C45.7909 54 44 55.7909 44 58C44 59.4806 44.8044 60.7733 46 61.4649V66C46 67.1046 46.8954 68 48 68C49.1046 68 50 67.1046 50 66V61.4649Z" fill="#4D4D4D"/>
</svg>
