<?xml version="1.0" encoding="UTF-8"?>
<svg width="32px" height="32px" viewBox="0 0 32 32" version="1.1" xmlns="http://www.w3.org/2000/svg" xmlns:xlink="http://www.w3.org/1999/xlink">
    <title>锁定_lm</title>
    <g id="锁定_lm" stroke="none" stroke-width="1" fill="none" fill-rule="evenodd">
        <g transform="translate(4.000000, 3.000000)" fill="#333333">
            <circle id="椭圆形" cx="12" cy="17" r="2"></circle>
            <path d="M20,8 C22.209139,8 24,9.790861 24,12 L24,22 C24,24.209139 22.209139,26 20,26 L4,26 C1.790861,26 0,24.209139 0,22 L0,12 C0,9.790861 1.790861,8 4,8 L20,8 Z M20,10 L4,10 C2.9456382,10 2.08183488,10.8158778 2.00548574,11.8507377 L2,12 L2,22 C2,23.0543618 2.81587779,23.9181651 3.85073766,23.9945143 L4,24 L20,24 C21.0543618,24 21.9181651,23.1841222 21.9945143,22.1492623 L22,22 L22,12 C22,10.9456382 21.1841222,10.0818349 20.1492623,10.0054857 L20,10 Z" id="矩形" fill-rule="nonzero"></path>
            <path d="M12,0 C15.8659932,0 19,3.13400675 19,7 L19,10 L5,10 L5,7 C5,3.13400675 8.13400675,0 12,0 Z M12,2 C9.3112453,2 7.11818189,4.12230671 7.00461951,6.78311038 L7,7 L7,8 L17,8 L17,7 C17,4.3112453 14.8776933,2.11818189 12.2168896,2.00461951 L12,2 Z" id="矩形" fill-rule="nonzero"></path>
        </g>
    </g>
</svg>