<?xml version="1.0" encoding="UTF-8"?>
<svg width="32px" height="32px" viewBox="0 0 32 32" version="1.1" xmlns="http://www.w3.org/2000/svg" xmlns:xlink="http://www.w3.org/1999/xlink">
    <title>手册_lm</title>
    <g id="手册_lm" stroke="none" stroke-width="1" fill="none" fill-rule="evenodd">
        <path d="M18,4 L18,12.9128897 C18,13.1890321 17.7761424,13.4128987 17.5,13.4128987 C17.3806444,13.4128987 17.2652259,13.3701936 17.1746043,13.292518 L14.5,11 L11.8253957,13.292518 C11.6157328,13.4722291 11.3000828,13.4479483 11.1203717,13.2382854 C11.0426961,13.1476638 11,13.0322453 11,12.9128897 L11,4 L18,4 Z M16,6 L13,6 L13,9.651 L14.5,8.36584444 L16,9.652 L16,6 Z" id="矩形" fill="#333333" fill-rule="nonzero"></path>
        <path d="M22,4 C24.209139,4 26,5.790861 26,8 L26,25 C26,27.209139 24.209139,29 22,29 L10,29 C7.790861,29 6,27.209139 6,25 L6,8 C6,5.790861 7.790861,4 10,4 L22,4 Z M22,6 L10,6 C8.9456382,6 8.08183488,6.81587779 8.00548574,7.85073766 L8,8 L8,25 C8,26.0543618 8.81587779,26.9181651 9.85073766,26.9945143 L10,27 L22,27 C23.0543618,27 23.9181651,26.1841222 23.9945143,25.1492623 L24,25 L24,8 C24,6.9456382 23.1841222,6.08183488 22.1492623,6.00548574 L22,6 Z" id="矩形" fill="#333333" fill-rule="nonzero"></path>
    </g>
</svg>