<svg width="48" height="48" viewBox="0 0 48 48" fill="none" xmlns="http://www.w3.org/2000/svg">
<path d="M32.0525 9.26714L24.8245 7.06083C23.9135 6.78703 23.0001 7.47151 23.0001 8.43277L23 21.3598L27.1294 15.8437L26 15.5V10.4764L30.1972 11.7455L32.0525 9.26714Z" fill="#4D4D4D"/>
<path d="M38.1479 11.1367L36 14.006V18.5429L33.2338 17.7012L31.4134 20.1329L37.1843 21.8736C38.0881 22.1586 39 21.4612 39 20.502V12.4624C39 11.877 38.6638 11.3597 38.1479 11.1367Z" fill="#4D4D4D"/>
<path d="M26 27.3643L22.8091 31.6268C22.9334 32.0631 23 32.5238 23 33C23 35.7487 20.7821 37.9793 18.0383 37.9999L15.9841 40.7439C16.6281 40.911 17.3037 41 18 41C22.4183 41 26 37.4183 26 33C26 32.9026 25.9983 32.8056 25.9948 32.709C25.9979 32.6801 25.9997 32.6505 26 32.6203V27.3643Z" fill="#4D4D4D"/>
<path d="M11.1683 37.1649L13.2098 34.4378C13.0733 33.9825 13 33.4998 13 33C13 30.2386 15.2386 28 18 28C18.0097 28 18.0194 28 18.0291 28.0001L20.0721 25.271C19.4112 25.0942 18.7166 25 18 25C13.5817 25 10 28.5817 10 33C10 34.5258 10.4271 35.9518 11.1683 37.1649Z" fill="#4D4D4D"/>
<path fill-rule="evenodd" clip-rule="evenodd" d="M36.899 7.79928C37.5622 8.29574 37.6974 9.23582 37.2009 9.89901L13.2009 41.959C12.7044 42.6222 11.7644 42.7574 11.1012 42.2609C10.438 41.7644 10.3028 40.8244 10.7993 40.1612L34.7993 8.10117C35.2957 7.43798 36.2358 7.30282 36.899 7.79928Z" fill="#4D4D4D"/>
</svg>
