<svg width="48" height="48" viewBox="0 0 48 48" fill="none" xmlns="http://www.w3.org/2000/svg">
<path fill-rule="evenodd" clip-rule="evenodd" d="M23.0001 8.43277C23.0001 7.47151 23.9135 6.78703 24.8245 7.06083L37.9934 11.0806C38.5957 11.2603 39 11.8204 39 12.4624V20.502C39 21.4612 38.0881 22.1586 37.1843 21.8736L26 18.5V32.6203C25.9997 32.6505 25.9979 32.6801 25.9948 32.709C25.9983 32.8056 26 32.9026 26 33C26 37.4183 22.4183 41 18 41C13.5817 41 10 37.4183 10 33C10 28.5817 13.5817 25 18 25C19.8919 25 21.6304 25.6567 23 26.7546L23.0001 8.43277ZM26 10.4764V15.5L36 18.5429V13.5L26 10.4764ZM23 33C23 35.7614 20.7614 38 18 38C15.2386 38 13 35.7614 13 33C13 30.2386 15.2386 28 18 28C20.7614 28 23 30.2386 23 33Z" fill="#4D4D4D"/>
</svg>
