<svg viewBox="0 0 48 48" xmlns="http://www.w3.org/2000/svg">
  <path fill-rule="evenodd" clip-rule="evenodd"
    d="M6 13.5C6 11.0147 8.01472 9 10.5 9H37.5C39.9853 9 42 11.0147 42 13.5V34.5C42 36.9853 39.9853 39 37.5 39H10.5C8.01472 39 6 36.9853 6 34.5V13.5ZM10.5 12H12V20.5C12 22.9853 14.0147 25 16.5 25H31.5C33.9853 25 36 22.9853 36 20.5V12H37.5C38.3284 12 39 12.6716 39 13.5V34.5C39 35.3284 38.3284 36 37.5 36H10.5C9.67157 36 9 35.3284 9 34.5V13.5C9 12.6716 9.67157 12 10.5 12ZM15 12H33V20.5C33 21.3284 32.3284 22 31.5 22H16.5C15.6716 22 15 21.3284 15 20.5V12ZM28.5 14C27.6716 14 27 14.6716 27 15.5V18.5C27 19.3284 27.6716 20 28.5 20C29.3284 20 30 19.3284 30 18.5V15.5C30 14.6716 29.3284 14 28.5 14Z" />
</svg>