<svg width="48" height="48" viewBox="0 0 48 48" fill="none" xmlns="http://www.w3.org/2000/svg">
<g clip-path="url(#clip0_1258_63614)">
<path fill-rule="evenodd" clip-rule="evenodd" d="M21 36C21 37.66 22.34 39 24 39C25.66 39 27 37.66 27 36C27 34.34 25.66 33 24 33C22.34 33 21 34.34 21 36Z" fill="#4D4D4D"/>
<path fill-rule="evenodd" clip-rule="evenodd" d="M21 24C21 25.66 22.34 27 24 27C25.66 27 27 25.66 27 24C27 22.34 25.66 21 24 21C22.34 21 21 22.34 21 24Z" fill="#4D4D4D"/>
<path fill-rule="evenodd" clip-rule="evenodd" d="M21 12C21 13.66 22.34 15 24 15C25.66 15 27 13.66 27 12C27 10.34 25.66 9 24 9C22.34 9 21 10.34 21 12Z" fill="#4D4D4D"/>
</g>
<defs>
<clipPath id="clip0_1258_63614">
<rect width="30" height="6" fill="white" transform="translate(21 39) rotate(-90)"/>
</clipPath>
</defs>
</svg>
