<svg width="48" height="48" viewBox="0 0 48 48" fill="none" xmlns="http://www.w3.org/2000/svg">
<path d="M35 37L36 41L28 37H35Z" fill="#4D4D4D"/>
<path d="M18 13H36C37.1046 13 38 13.8954 38 15V32C38 33.1046 37.1046 34 36 34H12C10.8954 34 10 33.1046 10 32V19.9291C8.89594 19.7712 7.87499 19.3556 7 18.7453V32C7 34.7614 9.23858 37 12 37H36C38.7614 37 41 34.7614 41 32V15C41 12.2386 38.7614 10 36 10H17.3264C17.7583 10.9093 18 11.9264 18 13Z" fill="#4D4D4D"/>
<circle cx="11" cy="13" r="4" fill="#4D4D4D"/>
</svg>
