<?xml version="1.0" encoding="UTF-8"?>
<svg width="48px" height="48px" viewBox="0 0 48 48" version="1.1" xmlns="http://www.w3.org/2000/svg" xmlns:xlink="http://www.w3.org/1999/xlink">
    <title>录音_lm</title>
    <g id="录音_lm" stroke="none" stroke-width="1" fill="none" fill-rule="evenodd">
        <path d="M24,4 C29.5228475,4 34,8.4771525 34,14 L34,23 C34,28.5228475 29.5228475,33 24,33 C18.4771525,33 14,28.5228475 14,23 L14,14 C14,8.4771525 18.4771525,4 24,4 Z M24,7 C20.2145483,7 17.1309013,10.0047834 17.004059,13.7593502 L17,14 L17,23 C17,26.8659932 20.1340068,30 24,30 C27.7854517,30 30.8690987,26.9952166 30.995941,23.2406498 L31,23 L31,14 C31,10.1340068 27.8659932,7 24,7 Z" id="矩形" fill="#4D4D4D" fill-rule="nonzero"></path>
        <path d="M9.92927821,23.5121792 C10.7493828,23.3950471 11.5091633,23.964919 11.6262954,24.7850236 C12.4996734,30.900011 17.7606393,35.5 24,35.5 C30.2124961,35.5 35.4583599,30.9387418 36.3632016,24.8570593 C36.4851143,24.0376517 37.2482052,23.4722203 38.0676128,23.594133 C38.8870204,23.7160457 39.4524517,24.4791365 39.330539,25.2985441 C38.2077406,32.8451719 31.7041715,38.5 24,38.5 C16.2625088,38.5 9.74018643,32.7971286 8.65643389,25.2091964 C8.53930179,24.3890918 9.1091736,23.6293113 9.92927821,23.5121792 Z" id="路径" fill="#4D4D4D" fill-rule="nonzero"></path>
        <rect id="矩形" fill="#4D4D4D" x="23" y="36" width="3" height="8" rx="1.5"></rect>
    </g>
</svg>