<svg viewBox="0 0 48 48" xmlns="http://www.w3.org/2000/svg">
    <path
        d="M33,5 C35.209139,5 37,6.790861 37,9 L37,39 C37,41.209139 35.209139,43 33,43 L15,43 C12.790861,43 11,41.209139 11,39 L11,9 C11,6.790861 12.790861,5 15,5 L33,5 Z M33,8 L15,8 C14.4871642,8 14.0644928,8.38604019 14.0067277,8.88337887 L14,9 L14,39 C14,39.5128358 14.3860402,39.9355072 14.8833789,39.9932723 L15,40 L33,40 C33.5128358,40 33.9355072,39.6139598 33.9932723,39.1166211 L34,39 L34,9 C34,8.48716416 33.6139598,8.06449284 33.1166211,8.00672773 L33,8 Z">
    </path>
    <rect x="19" y="35" width="10" height="3" rx="1.5"></rect>
</svg>