<svg viewBox="0 0 48 48" version="1.1" xmlns="http://www.w3.org/2000/svg">
    <path
        d="M38,11 C40.209139,11 42,12.790861 42,15 L42,33 C42,35.209139 40.209139,37 38,37 L10,37 C7.790861,37 6,35.209139 6,33 L6,15 C6,12.790861 7.790861,11 10,11 L38,11 Z zM38,14 L10,14 C9.48716416,14 9.06449284,14.3860402 9.00672773,14.8833789 L9,15 L9,33 C9,33.5128358 9.38604019,33.9355072 9.88337887,33.9932723 L10,34 L38,34 C38.5128358,34 38.9355072,33.6139598 38.9932723,33.1166211 L39,33 L39,15 C39,14.4871642 38.6139598,14.0644928 38.1166211,14.0067277 L38,14 Z" />
    <rect x="34" y="19" width="3" height="10" rx="1.5" />
</svg>