<svg width="48" height="48" viewBox="0 0 48 48" fill="none" xmlns="http://www.w3.org/2000/svg">
<g clip-path="url(#clip0_6583_195974)">
<path fill-rule="evenodd" clip-rule="evenodd" d="M23.9998 4.7998C16.1566 4.7998 9.7998 11.1255 9.7998 18.9342C9.7998 24.5345 13.0792 29.359 17.8237 31.6453V36.925C17.8237 40.3923 20.6457 43.1998 24.127 43.1998C27.6084 43.1998 30.4304 40.3923 30.4304 36.925V31.5198C35.0354 29.1838 38.1998 24.4311 38.1998 18.9342C38.1998 11.1255 31.843 4.7998 23.9998 4.7998ZM27.9402 38.5933C28.1833 38.5933 28.3836 38.7921 28.3843 39.0371C28.3811 39.2738 28.1942 39.4671 27.9626 39.4789L20.2551 37.5482H20.2304C19.9869 37.5482 19.7863 37.3488 19.7863 37.1031C19.7863 36.8642 19.9718 36.6702 20.2079 36.6586L27.9154 38.5933H27.9402ZM20.2551 34.3268L27.9626 36.2575C28.1942 36.2457 28.3811 36.0524 28.3843 35.8157C28.3836 35.5706 28.1833 35.3719 27.9402 35.3719H27.9154L20.2079 33.4372C19.9718 33.4488 19.7863 33.6428 19.7863 33.8817C19.7863 34.1273 19.9869 34.3268 20.2304 34.3268H20.2551ZM22.7157 30.2566C22.6489 30.2492 22.582 30.2413 22.5155 30.2327C20.0546 29.9167 17.8384 28.8234 16.124 27.2082C17.8848 28.8671 20.1748 29.9754 22.7157 30.2566L25.2604 30.2647C30.994 29.6355 35.4553 24.8073 35.4553 18.9344C35.4553 24.7389 31.0973 29.5226 25.4602 30.2408C25.4056 30.2478 25.3507 30.2544 25.2958 30.2606L25.2604 30.2647L22.7157 30.2566ZM35.2551 18.9342C35.2551 24.6271 30.9873 29.3223 25.4602 30.0392V23.1964C25.4602 23.083 25.507 22.9719 25.5842 22.8949L28.3046 20.1556C28.8295 19.628 28.4496 18.7342 27.7095 18.7342H20.2662C19.5255 18.7342 19.1479 19.6245 19.671 20.1555L22.3907 22.8941L22.3915 22.8949C22.4721 22.9751 22.5155 23.082 22.5155 23.1964V30.0311C17.0006 29.3102 12.7445 24.6154 12.7445 18.9342C12.7445 12.7491 17.7833 7.73261 23.9998 7.73261C30.2163 7.73261 35.2551 12.7491 35.2551 18.9342ZM18.0239 31.5193C18.0238 31.5192 18.0239 31.5193 18.0239 31.5193V31.5193Z" fill="#4D4D4D"/>
</g>
<defs>
<clipPath id="clip0_6583_195974">
<rect width="48" height="48" fill="white"/>
</clipPath>
</defs>
</svg>
