<svg viewBox="0 0 48 48" xmlns="http://www.w3.org/2000/svg">
    <path
        d="M21.9493936,9.1137213 C21.3371908,10.6225331 21,12.271889 21,14 C21,21.1797017 26.8202983,27 34,27 C35.607322,27 37.1465136,26.7082988 38.5675238,26.1749472 C39.4146009,25.8570115 41,26 40.5306324,27.9829243 C38.738355,35.4501279 32.0172985,41 24,41 C14.6111593,41 7,33.3888407 7,24 C7,16.1078352 12.3779797,9.47176482 19.6691239,7.55660405 C21.5,7 22.5,8 21.9493936,9.1137213 Z M18.24,11.235 L18.0864312,11.3051427 C13.2996703,13.5385858 10,18.3985961 10,24 C10,31.7319865 16.2680135,38 24,38 C29.6016097,38 34.4617286,34.7001021 36.6948914,29.9132921 L36.763,29.76 L36.6032965,29.7887904 C35.892215,29.9052936 35.1695157,29.9742982 34.4391255,29.9940634 L34,30 C25.163444,30 18,22.836556 18,14 C18,13.1202618 18.0713665,12.2504639 18.2110989,11.3973514 L18.24,11.235 Z">
    </path>
</svg>