<?xml version="1.0" encoding="UTF-8"?>
<svg width="48px" height="48px" viewBox="0 0 48 48" version="1.1" xmlns="http://www.w3.org/2000/svg" xmlns:xlink="http://www.w3.org/1999/xlink">
    <title>护眼模式_lm</title>
    <g id="护眼模式_lm" stroke="none" stroke-width="1" fill="none" fill-rule="evenodd">
        <path d="M23.8125025,11 C29.2591728,11 34.2322386,13.3020214 37.7933432,16.0950231 L38.2701084,16.4787602 C38.5819999,16.7363869 38.8818697,16.9973911 39.1690129,17.2604119 L39.5900947,17.6562855 C40.6870562,18.715075 41.5747521,19.7952462 42.2080622,20.8097169 L42.4335411,21.1868936 C43.0381129,22.2458713 43.3491399,23.2183908 43.3125025,24 C43.2308859,25.7411765 41.5660702,28.4297578 38.8235624,30.9110246 L38.3694647,31.3113926 C37.2882341,32.2404934 36.0566222,33.1309766 34.7020137,33.9202882 L34.1140166,34.2521881 C31.1371774,35.8788927 27.6135211,37 23.8125025,37 C18.3658322,37 13.3927664,34.6979786 9.8316618,31.9049769 L9.35489657,31.5212398 C9.04300514,31.2636131 8.7431353,31.0026089 8.45599207,30.7395881 L8.0349103,30.3437145 C6.93794878,29.284925 6.05025291,28.2047538 5.41694276,27.1902831 L5.19146391,26.8131064 C4.58689215,25.7541287 4.27586506,24.7816092 4.3125025,24 C4.39411906,22.2588235 6.05893483,19.5702422 8.80144259,17.0889754 L9.25554028,16.6886074 C10.3367709,15.7595066 11.5683828,14.8690234 12.9229913,14.0797118 L13.5109884,13.7478119 C16.4878276,12.1211073 20.0114839,11 23.8125025,11 Z M23.8125025,14 C19.6096986,14 15.4126185,15.640687 11.9459398,18.3603342 C10.4755253,19.5138905 9.2351142,20.7962309 8.37253564,22.014663 C7.67795021,22.995797 7.32465857,23.81094 7.30921211,24.1404689 C7.2922369,24.5026115 7.61736623,25.1875619 8.22056401,26.0231952 L8.49591525,26.3900474 C9.27458847,27.3902449 10.4045047,28.5551363 11.7900766,29.6277889 C15.2958733,32.341832 19.5912759,34 23.8125025,34 C28.0153064,34 32.2123865,32.359313 35.6790652,29.6396658 C37.1494797,28.4861095 38.3898908,27.2037691 39.2524694,25.985337 C39.9470548,25.004203 40.3003464,24.18906 40.3157929,23.8595311 C40.3327681,23.4973885 40.0076388,22.8124381 39.404441,21.9768048 L39.1290897,21.6099526 C38.3504165,20.6097551 37.2205003,19.4448637 35.8349284,18.3722111 C32.3291317,15.658168 28.0337291,14 23.8125025,14 Z" id="椭圆形" fill="#4D4D4D" fill-rule="nonzero"></path>
        <path d="M24,17 C27.8659932,17 31,20.1340068 31,24 C31,27.8659932 27.8659932,31 24,31 C20.1340068,31 17,27.8659932 17,24 C17,20.1340068 20.1340068,17 24,17 Z M24,20 C21.790861,20 20,21.790861 20,24 C20,26.209139 21.790861,28 24,28 C26.209139,28 28,26.209139 28,24 C28,21.790861 26.209139,20 24,20 Z" id="椭圆形" fill="#4D4D4D" fill-rule="nonzero"></path>
    </g>
</svg>