<svg width="32" height="32" viewBox="0 0 32 32" fill="none" xmlns="http://www.w3.org/2000/svg">
<path fill-rule="evenodd" clip-rule="evenodd" d="M5.5 14C4.675 14 4 14.675 4 15.5C4 16.325 4.675 17 5.5 17C6.325 17 7 16.325 7 15.5C7 14.675 6.325 14 5.5 14ZM15.5 14C14.675 14 14 14.675 14 15.5C14 16.325 14.675 17 15.5 17C16.325 17 17 16.325 17 15.5C17 14.675 16.325 14 15.5 14ZM24 15.5C24 14.675 24.675 14 25.5 14C26.325 14 27 14.675 27 15.5C27 16.325 26.325 17 25.5 17C24.675 17 24 16.325 24 15.5Z" fill="#333333"/>
</svg>
