<svg viewBox="0 0 32 32" xmlns="http://www.w3.org/2000/svg">
    <path fill-rule="evenodd" clip-rule="evenodd"
        d="M28 11V18L22 25H8C5.79086 25 4 23.2091 4 21V11C4 8.79086 5.79086 7 8 7H24C26.2091 7 28 8.79086 28 11ZM8 9H24C25.1046 9 26 9.89543 26 11V17.2602L21.0801 23H8C6.89543 23 6 22.1046 6 21V11C6 9.89543 6.89543 9 8 9ZM12.7295 11.3161C12.3518 10.9131 11.719 10.8927 11.3161 11.2705C10.9131 11.6482 10.8927 12.281 11.2705 12.6839L14.4792 16.1066L11.2929 19.2929C10.9024 19.6834 10.9024 20.3166 11.2929 20.7071C11.6834 21.0976 12.3166 21.0976 12.7071 20.7071L15.8478 17.5664L18.7705 20.6839C19.1482 21.0869 19.781 21.1073 20.1839 20.7295C20.5869 20.3518 20.6073 19.719 20.2295 19.3161L17.2627 16.1515L20.7071 12.7071C21.0976 12.3166 21.0976 11.6834 20.7071 11.2929C20.3166 10.9024 19.6834 10.9024 19.2929 11.2929L15.8941 14.6916L12.7295 11.3161Z" />
</svg>