<svg viewBox="0 0 32 32" xmlns="http://www.w3.org/2000/svg">
  <path
    d="M6.4986 15.2092C5.03056 14.4805 3.86876 13.5796 3.13933 12.5595L3.13285 12.5499L3.13219 12.5488L3.13041 12.546L3.12515 12.5372C3.12093 12.5301 3.11535 12.5203 3.1088 12.5082C3.09574 12.4841 3.07867 12.4501 3.06091 12.4082C3.02577 12.3253 2.986 12.2067 2.972 12.0688C2.95791 11.9299 2.96965 11.7675 3.04214 11.6036C3.1152 11.4385 3.24428 11.2847 3.44424 11.1561C3.64381 11.0275 3.83745 10.9759 4.01843 10.9825C4.19762 10.989 4.34897 11.0517 4.46737 11.127C4.58508 11.2019 4.67453 11.2918 4.73383 11.3611C4.76382 11.3961 4.787 11.427 4.80308 11.4497C4.81114 11.4611 4.81748 11.4705 4.82205 11.4775L4.82639 11.4843C5.52982 12.4968 6.97932 13.3997 8.9455 14.0493C10.9067 14.6972 13.3537 15.0836 16.0121 15.0836C18.6704 15.0836 21.1174 14.6972 23.0786 14.0493C25.0454 13.3995 26.4952 12.4962 27.1984 11.4833L27.2041 11.4747C27.2089 11.4678 27.2154 11.4585 27.2237 11.4473C27.2401 11.4251 27.2639 11.3951 27.2946 11.3614C27.3552 11.2949 27.4471 11.2096 27.5685 11.1428C27.6913 11.0753 27.8466 11.0257 28.0282 11.0372C28.2101 11.0488 28.4018 11.1207 28.5984 11.2692C28.9549 11.5382 29.0469 11.8538 29.0319 12.112C29.0248 12.2352 28.9939 12.339 28.9652 12.4117C28.9507 12.4483 28.9365 12.4779 28.9254 12.4992C28.9198 12.5099 28.915 12.5185 28.9112 12.525L28.9064 12.5331L28.9047 12.5359L28.9035 12.5379L28.8975 12.5468C28.1909 13.5405 27.0743 14.4215 25.6642 15.141L27.6501 17.3457C27.8944 17.6163 27.8944 18.057 27.6501 18.3276L27.3337 18.678C27.0894 18.9487 26.6915 18.9487 26.4472 18.678L23.9349 15.889L23.9323 15.89C23.1285 16.1831 22.2606 16.4326 21.3417 16.6321L22.9389 19.7293C23.1111 20.0624 23.0046 20.4892 22.7071 20.68L22.3218 20.9264C22.0242 21.1172 21.642 21.0027 21.4697 20.6696L19.5502 16.9472C18.7413 17.0578 17.903 17.1314 17.0426 17.1641C17.0432 17.1771 17.0436 17.1903 17.0436 17.2035V21.1241C17.0436 21.5058 16.7617 21.8181 16.4171 21.8181H15.9723C15.6277 21.8181 15.3458 21.5058 15.3458 21.1241V17.2035C15.3458 17.194 15.346 17.1847 15.3463 17.1754C14.5243 17.1551 13.7214 17.0977 12.9437 17.0063C12.9415 17.0108 12.9392 17.0152 12.9369 17.0196L10.9227 20.8847C10.7505 21.2143 10.3652 21.3288 10.0676 21.138L9.68229 20.8917C9.38471 20.7008 9.28134 20.2741 9.45362 19.9445L11.1318 16.724C10.1063 16.5231 9.13974 16.2607 8.24926 15.9454L5.38769 19.0597C5.14336 19.3269 4.7424 19.3234 4.49807 19.0562L4.18169 18.7058C3.93736 18.4352 3.94049 17.998 4.18482 17.7274L6.4986 15.2092ZM3.30202 12.4432L3.13285 12.5499C3.13285 12.5499 3.13441 12.55 3.30202 12.4432Z" />
</svg>