<svg width="32" height="32" viewBox="0 0 32 32" fill="none" xmlns="http://www.w3.org/2000/svg">
<path d="M15.3458 17.2035C15.3458 16.8218 15.6277 16.5095 15.9723 16.5095H16.4171C16.7617 16.5095 17.0436 16.8218 17.0436 17.2035V21.1241C17.0436 21.5058 16.7617 21.8181 16.4171 21.8181H15.9723C15.6277 21.8181 15.3458 21.5058 15.3458 21.1241V17.2035ZM7.06042 14.5978C7.30475 14.3306 7.70571 14.3341 7.95004 14.6012L8.26642 14.9517C8.51075 15.2223 8.50762 15.6595 8.26329 15.9301L5.38769 19.0597C5.14336 19.3269 4.7424 19.3234 4.49807 19.0562L4.18169 18.7058C3.93736 18.4352 3.94049 17.998 4.18482 17.7274L7.06042 14.5978ZM24.8935 14.2855C24.6492 14.0149 24.2514 14.0149 24.007 14.2855L23.6907 14.6359C23.4463 14.9066 23.4463 15.3472 23.6907 15.6178L26.4472 18.678C26.6915 18.9487 27.0894 18.9487 27.3337 18.678L27.6501 18.3276C27.8944 18.057 27.8944 17.6163 27.6501 17.3457L24.8935 14.2855ZM20.8151 15.6109C20.6428 15.2778 20.2606 15.1633 19.963 15.3541L19.5777 15.6005C19.2801 15.7913 19.1736 16.2181 19.3459 16.5512L21.4697 20.6696C21.642 21.0027 22.0242 21.1172 22.3218 20.9264L22.7071 20.68C23.0046 20.4892 23.1111 20.0624 22.9389 19.7293L20.8151 15.6109ZM11.4678 16.0793C11.6401 15.7497 12.0254 15.6352 12.323 15.826L12.7082 16.0724C13.0058 16.2632 13.1092 16.6899 12.9369 17.0196L10.9227 20.8847C10.7505 21.2143 10.3652 21.3288 10.0676 21.138L9.68229 20.8917C9.38471 20.7008 9.28134 20.2741 9.45362 19.9445L11.4678 16.0793Z" fill="#333333" stroke="#333333" stroke-width="0.3"/>
<path fill-rule="evenodd" clip-rule="evenodd" d="M3.30202 12.4432L3.13285 12.5499L3.13219 12.5488L3.13041 12.546L3.12515 12.5372C3.12093 12.5301 3.11535 12.5203 3.1088 12.5082C3.09574 12.4841 3.07867 12.4501 3.06091 12.4082C3.02577 12.3253 2.986 12.2067 2.972 12.0688C2.95791 11.9299 2.96965 11.7675 3.04214 11.6036C3.1152 11.4385 3.24428 11.2847 3.44424 11.1561C3.64381 11.0275 3.83745 10.9759 4.01843 10.9825C4.19762 10.989 4.34897 11.0517 4.46737 11.127C4.58508 11.2019 4.67453 11.2918 4.73383 11.3611C4.76382 11.3961 4.787 11.427 4.80308 11.4497C4.81114 11.4611 4.81748 11.4705 4.82205 11.4775L4.82639 11.4843C5.52982 12.4968 6.97932 13.3997 8.9455 14.0493C10.9067 14.6972 13.3537 15.0836 16.0121 15.0836C18.6704 15.0836 21.1174 14.6972 23.0786 14.0493C25.0454 13.3995 26.4952 12.4962 27.1984 11.4833L27.2041 11.4747C27.2089 11.4678 27.2154 11.4585 27.2237 11.4473C27.2401 11.4251 27.2639 11.3951 27.2946 11.3614C27.3552 11.2949 27.4471 11.2096 27.5685 11.1428C27.6913 11.0753 27.8466 11.0257 28.0282 11.0372C28.2101 11.0488 28.4018 11.1207 28.5984 11.2692C28.9549 11.5382 29.0469 11.8538 29.0319 12.112C29.0248 12.2352 28.9939 12.339 28.9652 12.4117C28.9507 12.4483 28.9365 12.4779 28.9254 12.4992C28.9198 12.5099 28.915 12.5185 28.9112 12.525L28.9064 12.5331L28.9047 12.5359L28.9035 12.5379L28.8975 12.5468C27.9219 13.9188 26.1647 15.076 23.9323 15.89C21.696 16.7054 18.9643 17.1836 16.0152 17.1836C13.0691 17.1836 10.3405 16.707 8.10582 15.8939C5.87506 15.0822 4.11802 13.9282 3.13933 12.5595L3.13285 12.5499C3.13292 12.55 3.13441 12.55 3.30202 12.4432Z" fill="#333333"/>
</svg>
