<?xml version="1.0" encoding="UTF-8"?>
<svg width="32px" height="32px" viewBox="0 0 32 32" version="1.1" xmlns="http://www.w3.org/2000/svg" xmlns:xlink="http://www.w3.org/1999/xlink">
    <title>无卡_lm备份</title>
    <g id="无卡_lm备份" stroke="none" stroke-width="1" fill="none" fill-rule="evenodd">
        <g id="静音_lm" transform="translate(4.000000, 7.000000)" fill="#333333">
            <path d="M20,0 C22.209139,0 24,1.790861 24,4 L24,11 L18,18 L4,18 C1.790861,18 0,16.209139 0,14 L0,4 C0,1.790861 1.790861,0 4,0 L20,0 Z M20.1492623,2.00548574 L20,2 L4,2 C2.9456382,2 2.08183488,2.81587779 2.00548574,3.85073766 L2,4 L2,14 C2,15.0543618 2.81587779,15.9181651 3.85073766,15.9945143 L4,16 L17.079,16 L22,10.259 L22,4 C22,2.99835629 21.2636703,2.16869161 20.3027743,2.0227694 L20.1492623,2.00548574 Z" id="矩形" fill-rule="nonzero"></path>
            <path d="M7.3161,4.2705 C7.719,3.8927 8.3518,3.9131 8.7295,4.3161 L11.8941,7.6916 L15.2929,4.2929 C15.6834,3.9024 16.3166,3.9024 16.7071,4.2929 C17.0976,4.6834 17.0976,5.3166 16.7071,5.7071 L13.2627,9.1515 L16.2295,12.3161 C16.6073,12.719 16.5869,13.3518 16.1839,13.7295 C15.781,14.1073 15.1482,14.0869 14.7705,13.6839 L11.8478,10.5664 L8.7071,13.7071 C8.3166,14.0976 7.6834,14.0976 7.2929,13.7071 C6.9024,13.3166 6.9024,12.6834 7.2929,12.2929 L10.4792,9.1066 L7.2705,5.6839 C6.8927,5.281 6.9131,4.6482 7.3161,4.2705 Z" id="路径"></path>
        </g>
    </g>
</svg>