<?xml version="1.0" encoding="UTF-8"?>
<svg width="48px" height="48px" viewBox="0 0 48 48" version="1.1" xmlns="http://www.w3.org/2000/svg" xmlns:xlink="http://www.w3.org/1999/xlink">
    <title>密码_lm</title>
    <g id="密码_lm" stroke="none" stroke-width="1" fill="none" fill-rule="evenodd">
        <path d="M35,17 C37.7614237,17 40,19.2385763 40,22 L40,34 C40,36.7614237 37.7614237,39 35,39 L13,39 C10.2385763,39 8,36.7614237 8,34 L8,22 C8,19.2385763 10.2385763,17 13,17 L35,17 Z M35,20 L13,20 C11.9456382,20 11.0818349,20.8158778 11.0054857,21.8507377 L11,22 L11,34 C11,35.0543618 11.8158778,35.9181651 12.8507377,35.9945143 L13,36 L35,36 C36.0543618,36 36.9181651,35.1841222 36.9945143,34.1492623 L37,34 L37,22 C37,20.9456382 36.1841222,20.0818349 35.1492623,20.0054857 L35,20 Z" id="矩形" fill="#4D4D4D" fill-rule="nonzero"></path>
        <path d="M24,23 C26.7614237,23 29,25.2385763 29,28 C29,30.7614237 26.7614237,33 24,33 C21.2385763,33 19,30.7614237 19,28 C19,25.2385763 21.2385763,23 24,23 Z M24,26 C22.8954305,26 22,26.8954305 22,28 C22,29.1045695 22.8954305,30 24,30 C25.1045695,30 26,29.1045695 26,28 C26,26.8954305 25.1045695,26 24,26 Z" id="椭圆形" fill="#4D4D4D" fill-rule="nonzero"></path>
        <path d="M24,6 C29.5228475,6 34,10.4771525 34,16 L34,20 L14,20 L14,16 C14,10.4771525 18.4771525,6 24,6 Z M24,9 C20.2145483,9 17.1309013,12.0047834 17.004059,15.7593502 L17,16 L17,17 L31,17 L31,16 C31,12.2145483 27.9952166,9.13090132 24.2406498,9.00405902 L24,9 Z" id="矩形" fill="#4D4D4D" fill-rule="nonzero"></path>
    </g>
</svg>