<svg viewBox="0 0 48 48" xmlns="http://www.w3.org/2000/svg">
    <path fill-rule="evenodd" clip-rule="evenodd"
        d="M29 29C29 31.7614 26.7614 34 24 34C21.2386 34 19 31.7614 19 29C19 26.2386 21.2386 24 24 24C26.7614 24 29 26.2386 29 29ZM26 29C26 30.1046 25.1046 31 24 31C22.8954 31 22 30.1046 22 29C22 27.8954 22.8954 27 24 27C25.1046 27 26 27.8954 26 29ZM24 7C18.4772 7 14 11.4772 14 17V18H13C10.2386 18 8 20.2386 8 23V35C8 37.7614 10.2386 40 13 40H35C37.7614 40 40 37.7614 40 35V23C40 20.2386 37.7614 18 35 18H34V17C34 11.4772 29.5228 7 24 7ZM31 17.9286V17C31 13.134 27.866 10 24 10C20.134 10 17 13.134 17 17V17.9286H31ZM13 21C11.8954 21 11 21.8954 11 23V35C11 36.1046 11.8954 37 13 37H35C36.1046 37 37 36.1046 37 35V23C37 21.8954 36.1046 21 35 21H13Z" />
</svg>