<svg viewBox="0 0 32 32" xmlns="http://www.w3.org/2000/svg">
  <path
    d="M25.6155 7.64575L18.1967 3.56921C16.8165 2.81039 15.1687 2.81039 13.7886 3.56921L6.38207 7.64575C4.9209 8.44632 4.00737 9.97871 4 11.6486V19.5045C4.00982 21.1695 4.92336 22.6995 6.38207 23.5L13.8009 27.5766C14.4909 27.9572 15.2473 28.1463 16.0061 28.1463C16.7625 28.1463 17.5213 27.9572 18.2114 27.5766L25.6204 23.5C27.0791 22.6995 27.9926 21.1695 28 19.4996V11.6412C27.9902 9.97625 27.0766 8.44387 25.6155 7.64575ZM14.5 5.50009C14.9248 5.2668 15.5334 5.00009 16 5.00009C16.4666 5.00009 17.0752 5.2668 17.5 5.50009L24 9.00009C24.1768 9.09587 24.8527 9.51616 25 9.64631L16 14.5001L7 9.64631C7.14734 9.51862 7.82319 9.09832 8 9.00009L14.5 5.50009ZM7.5 22.0001C6.59874 21.5065 6.00491 20.5261 6 19.5045V12.0001C6 11.8516 6 11.5001 6.5 11.5001L15 16.0935V26.0368C14.8379 25.9828 14.1547 25.5836 14 25.5001L7.5 22.0001ZM26 19.5045C25.9951 20.531 25.8988 21.0065 25 21.5001L18 25.5001C17.8428 25.586 17.167 25.9461 17 26.0001V16.0001L25.6155 11.5001C26 11.5001 26 11.6412 26 12.0001V19.5045Z" />
</svg>