<svg width="48" height="48" viewBox="0 0 48 48" fill="none" xmlns="http://www.w3.org/2000/svg">
<g clip-path="url(#clip0_6482_301245)">
<rect x="22" y="6" width="3" height="18" fill="#4D4D4D"/>
<path d="M38 24.5001C38 32.5082 31.5081 39.0001 23.5 39.0001C15.4919 39.0001 9 32.5082 9 24.5001C9 18.8907 12.1852 14.0253 16.8455 11.6138L15.7267 8.81689C9.96205 11.6796 6 17.6272 6 24.5001C6 34.1651 13.835 42.0001 23.5 42.0001C33.165 42.0001 41 34.1651 41 24.5001C41 17.6272 37.038 11.6796 31.2733 8.81689L30.1545 11.6138C34.8148 14.0253 38 18.8907 38 24.5001Z" fill="#4D4D4D"/>
</g>
<defs>
<clipPath id="clip0_6482_301245">
<rect width="48" height="48" fill="white"/>
</clipPath>
</defs>
</svg>
