<svg width="32" height="32" viewBox="0 0 32 32" fill="none" xmlns="http://www.w3.org/2000/svg">
<g clip-path="url(#clip0_2073_78773)">
<path d="M25.31 18.4088C24.8345 16.9311 24.2877 15.6892 23.4466 13.6567C23.5774 8.31804 21.283 4 15.9987 4C10.655 4 8.41117 8.40428 8.55383 13.6567C7.70977 15.692 7.1659 16.9254 6.69037 18.4088C5.67989 21.5568 6.00681 22.8591 6.25646 22.8878C6.79142 22.9511 8.33984 20.5189 8.33984 20.5189C8.33984 21.9276 9.08879 23.7647 10.7115 25.09C9.9269 25.3228 8.16449 25.9495 8.58355 26.6366C8.92236 27.1915 14.4146 26.9902 15.9987 26.8178C17.5828 26.9902 23.0751 27.1915 23.4139 26.6366C23.833 25.9524 22.0676 25.3228 21.2859 25.09C22.9087 23.7618 23.6576 21.9247 23.6576 20.5189C23.6576 20.5189 25.206 22.9511 25.741 22.8878C25.9936 22.8562 26.3205 21.5539 25.31 18.4088Z" fill="#faf"/>
</g>
<defs>
<clipPath id="clip0_2073_78773">
<rect width="32" height="32" fill="white"/>
</clipPath>
</defs>
</svg>
