<svg viewBox="0 0 48 48" xmlns="http://www.w3.org/2000/svg">
  <path fill-rule="evenodd" clip-rule="evenodd"
    d="M6 13.5C6 11.0147 8.01472 9 10.5 9H37.5C39.9853 9 42 11.0147 42 13.5V34.5C42 36.9853 39.9853 39 37.5 39H10.5C8.01472 39 6 36.9853 6 34.5V13.5ZM10.5 12C9.67157 12 9 12.6716 9 13.5V34.5C9 35.3284 9.67157 36 10.5 36H37.5C38.3284 36 39 35.3284 39 34.5V13.5C39 12.6716 38.3284 12 37.5 12H10.5ZM28.5 18H33V22.5C33 23.3284 33.6716 24 34.5 24C35.3284 24 36 23.3284 36 22.5V16.5C36 15.6716 35.3284 15 34.5 15H28.5C27.6716 15 27 15.6716 27 16.5C27 17.3284 27.6716 18 28.5 18ZM12 31.5L12 25.5C12 24.6716 12.6716 24 13.5 24C14.3284 24 15 24.6716 15 25.5L15 30L19.5 30C20.3284 30 21 30.6716 21 31.5C21 32.3284 20.3284 33 19.5 33H13.5C12.6716 33 12 32.3284 12 31.5Z" />
</svg>