<svg viewBox="0 0 80 80" xmlns="http://www.w3.org/2000/svg">
  <path
    d="M37 12C37 10.3431 38.3431 9 40 9C41.6569 9 43 10.3431 43 12V22C43 23.6569 41.6569 25 40 25C38.3431 25 37 23.6569 37 22V12ZM37 58C37 56.3431 38.3431 55 40 55C41.6569 55 43 56.3431 43 58V68C43 69.6569 41.6569 71 40 71C38.3431 71 37 69.6569 37 68V58ZM57.6777 18.0793C58.8492 16.9078 60.7487 16.9078 61.9203 18.0793C63.0919 19.2509 63.0919 21.1504 61.9203 22.322L54.8492 29.393C53.6777 30.5646 51.7782 30.5646 50.6066 29.393C49.435 28.2215 49.435 26.322 50.6066 25.1504L57.6777 18.0793ZM25.1507 50.6062C26.3223 49.4347 28.2218 49.4347 29.3934 50.6062C30.565 51.7778 30.565 53.6773 29.3934 54.8489L22.3223 61.9199C21.1508 63.0915 19.2513 63.0915 18.0797 61.9199C16.9081 60.7484 16.9081 58.8489 18.0797 57.6773L25.1507 50.6062ZM18.0797 18.0799C16.9081 19.2514 16.9081 21.1509 18.0797 22.3225L25.1508 29.3936C26.3223 30.5651 28.2218 30.5651 29.3934 29.3936C30.565 28.222 30.565 26.3225 29.3934 25.1509L22.3223 18.0799C21.1508 16.9083 19.2513 16.9083 18.0797 18.0799ZM50.6066 50.6068C49.435 51.7783 49.435 53.6778 50.6066 54.8494L57.6777 61.9205C58.8492 63.092 60.7487 63.092 61.9203 61.9205C63.0919 60.7489 63.0919 58.8494 61.9203 57.6778L54.8492 50.6068C53.6777 49.4352 51.7782 49.4352 50.6066 50.6068ZM12 43C10.3431 43 9 41.6569 9 40C9 38.3431 10.3431 37 12 37H22C23.6569 37 25 38.3431 25 40C25 41.6569 23.6569 43 22 43H12ZM58 43C56.3431 43 55 41.6569 55 40C55 38.3431 56.3431 37 58 37H68C69.6569 37 71 38.3431 71 40C71 41.6569 69.6569 43 68 43H58Z" />
</svg>