<svg viewBox="0 0 48 48" xmlns="http://www.w3.org/2000/svg">
    <path fill-rule="evenodd" clip-rule="evenodd"
        d="M8 33C5.79086 33 4 31.2091 4 29V13C4 10.7909 5.79086 9 8 9H39C41.2091 9 43 10.7909 43 13V29C43 31.2091 41.2091 33 39 33H8ZM39 12H8C7.44772 12 7 12.4477 7 13V29C7 29.5523 7.44772 30 8 30H10V23.5C10 22.6716 10.6716 22 11.5 22C12.3284 22 13 22.6716 13 23.5V30H16V23.5C16 22.6716 16.6716 22 17.5 22C18.3284 22 19 22.6716 19 23.5V30H22V23.5C22 22.6716 22.6716 22 23.5 22C24.3284 22 25 22.6716 25 23.5V30H28V16.5C28 15.6716 28.6716 15 29.5 15C30.3284 15 31 15.6716 31 16.5V30H34V23.5C34 22.6716 34.6716 22 35.5 22C36.3284 22 37 22.6716 37 23.5V30H39C39.5523 30 40 29.5523 40 29V13C40 12.4477 39.5523 12 39 12ZM11.5 36C10.6716 36 10 36.6716 10 37.5C10 38.3284 10.6716 39 11.5 39H35.5C36.3284 39 37 38.3284 37 37.5C37 36.6716 36.3284 36 35.5 36H11.5Z" />
</svg>