<svg viewBox="0 0 48 48" xmlns="http://www.w3.org/2000/svg">
  <path fill-rule="evenodd" clip-rule="evenodd"
    d="M24 6C23.4965 6 23.0499 6.18274 22.7697 6.32764C22.4734 6.48093 22.1362 6.71044 21.8735 7.00948L23 8L21.872 7.01124L21.8437 7.04306C21.6272 7.28587 21 7.98935 21 9V9.07124C18.4822 9.60885 15.9509 10.9688 14.3142 13.0813C12.6262 15.2602 12 18.0476 12 20.7821V29.596L10.4409 32.2799C9.88571 33.2167 9.85843 34.3866 10.3388 35.3432C10.828 36.3174 11.8159 37 12.969 37H35.031C36.1841 37 37.1719 36.3174 37.6612 35.3432C38.1415 34.3866 38.1143 33.2167 37.559 32.2799L36 29.596V20.5C36 17.7019 35.3213 15.2348 33.6956 13.0942C32.0052 10.8586 29.4522 9.66408 27 9.07655V9C27 8.45025 26.7761 7.98344 26.6393 7.73499C26.4808 7.44727 26.2857 7.18323 26.1068 6.98761L26.0961 6.97586L26.0851 6.96434C25.8413 6.70889 25.5318 6.49218 25.2373 6.3369C24.9686 6.19519 24.5171 6 24 6ZM21.7874 11.9722L21.8189 11.9661L24 11.4426L26.1575 11.9604L26.1651 11.9621C28.2907 12.449 30.1596 13.3912 31.3033 14.9044L31.3056 14.9074C32.4597 16.4265 33 18.2189 33 20.5V30.404L34.9734 33.8014L34.9781 33.8092C35.003 33.8509 35.0105 33.9365 34.9802 33.9968L34.9786 34H13.0214L13.0197 33.9968C12.9894 33.9365 12.997 33.8509 13.0219 33.8092L13.0266 33.8014L15 30.404V20.7821C15 18.4566 15.5383 16.3998 16.6858 14.9187C17.8385 13.4307 19.7646 12.3671 21.7874 11.9722ZM24 41.9961C21.79 41.9961 20 40.2061 20 37.9961H28C28 40.2061 26.21 41.9961 24 41.9961Z" />
</svg>