<svg viewBox="0 0 48 48" xmlns="http://www.w3.org/2000/svg">
    <path fill-rule="evenodd" clip-rule="evenodd"
        d="M24.7262 4.283C24.2592 4.10098 23.7408 4.10098 23.2737 4.283L8.27375 10.1289C7.50572 10.4283 7 11.1681 7 11.9924V25.4977C7 29.5118 8.48591 33.4137 11.5357 36.0236C14.4236 38.4949 18.4339 41.4968 22.8006 43.4842C23.5587 43.8292 24.43 43.8064 25.1698 43.4237C28.897 41.4955 32.7782 38.6461 35.7648 36.244C39.2014 33.4799 41 29.2394 41 24.8292V11.9924C41 11.1681 40.4943 10.4283 39.7262 10.1289L24.7262 4.283ZM24 7.21974L10 12.6759V25.4977C10 28.8004 11.2185 31.8036 13.4863 33.7443C16.244 36.1042 19.9594 38.8717 23.9149 40.6949C27.3414 38.9038 30.9869 36.2369 33.8846 33.9063C36.5308 31.7779 38 28.442 38 24.8292V12.6759L24 7.21974ZM21 21C21 19.3431 22.3431 18 24 18C25.6569 18 27 19.3431 27 21C27 22.3062 26.1652 23.4175 25 23.8293V28C25 28.5523 24.5523 29 24 29C23.4477 29 23 28.5523 23 28V23.8293C21.8348 23.4175 21 22.3062 21 21Z" />
</svg>