<?xml version="1.0" encoding="UTF-8"?>
<svg width="48px" height="48px" viewBox="0 0 48 48" version="1.1" xmlns="http://www.w3.org/2000/svg" xmlns:xlink="http://www.w3.org/1999/xlink">
    <title>安全_lm</title>
    <g id="安全_lm" stroke="none" stroke-width="1" fill="none" fill-rule="evenodd">
        <g transform="translate(7.000000, 4.146485)" fill="#4D4D4D" fill-rule="nonzero">
            <path d="M16.2737,0.136515 C16.6824125,-0.0227525 17.1304016,-0.0426609375 17.5488662,0.0767896875 L17.7262,0.136515 L32.7262,5.982415 C33.4430933,6.261855 33.9314071,6.92493233 33.9933294,7.68228712 L34,7.845915 L34,20.682715 C34,25.092915 32.2014,29.333415 28.7648,32.097515 C25.7782,34.499615 21.897,37.349015 18.1698,39.277215 C17.43,39.659915 16.5587,39.682715 15.8006,39.337715 C11.4339,37.350315 7.4236,34.348415 4.5357,31.877115 C1.58121594,29.3487744 0.0943966016,25.607922 0.00435563141,21.7271722 L0,21.351215 L0,7.845915 C0,7.07656833 0.440538311,6.38083056 1.12371359,6.04806155 L1.27375,5.982415 L16.2737,0.136515 Z M17,3.073 L3,8.529 L3,21.351215 C3,24.5762746 4.15829716,27.4667396 6.24999357,29.3882839 L6.48623401,29.5977692 C9.73386547,32.3769069 13.1243936,34.7300121 16.4559596,36.3322783 L16.914,36.547 L17.3052302,36.3412076 C20.0655158,34.8536511 23.1339008,32.7343946 26.2915271,30.2332192 L26.8845743,29.7598342 C29.420208,27.7203926 30.8992532,24.5485849 30.9950389,21.0461793 L31,20.682715 L31,8.529 L17,3.073 Z" id="路径"></path>
            <rect id="矩形" x="14" y="13.853515" width="6" height="6" rx="3"></rect>
            <rect id="矩形" x="16" y="17.853515" width="2" height="7" rx="1"></rect>
        </g>
    </g>
</svg>