<svg viewBox="0 0 48 48" xmlns="http://www.w3.org/2000/svg">
    <path
        d="M39,10 C41.209139,10 43,11.790861 43,14 L43,31 C43,33.209139 41.209139,35 39,35 L31,35 L31,32 L39,32 C39.5128358,32 39.9355072,31.6139598 39.9932723,31.1166211 L40,31 L40,14 C40,13.4871642 39.6139598,13.0644928 39.1166211,13.0067277 L39,13 L9,13 C8.48716416,13 8.06449284,13.3860402 8.00672773,13.8833789 L8,14 L8,31 C8,31.5128358 8.38604019,31.9355072 8.88337887,31.9932723 L9,32 L17,32 L17,35 L9,35 C6.790861,35 5,33.209139 5,31 L5,14 C5,11.790861 6.790861,10 9,10 L39,10 ZM24.7525767,29.8600877 L29.5488085,35.3414954 C29.9124905,35.757132 29.870373,36.3888946 29.4547364,36.7525767 C29.2724449,36.9120818 29.0384549,37 28.7962318,37 L19.2037682,37 C18.6514835,37 18.2037682,36.5522847 18.2037682,36 C18.2037682,35.7577769 18.2916865,35.5237869 18.4511915,35.3414954 L23.2474233,29.8600877 C23.6111054,29.444451 24.242868,29.4023335 24.6585046,29.7660156 C24.6919154,29.79525 24.7233423,29.8266769 24.7525767,29.8600877 ZM24,23 C26.3662819,23 28.5806129,23.9738255 30.1749168,25.6587083 C30.7443052,26.260446 30.7180809,27.2098314 30.1163432,27.7792198 C29.5146054,28.3486083 28.5652201,28.322384 27.9958316,27.7206462 C26.9624248,26.6285273 25.5332493,26 24,26 C22.5109893,26 21.1196975,26.5924557 20.0924226,27.6294904 C19.5094122,28.2180398 18.5596753,28.2225301 17.971126,27.6395197 C17.3825766,27.0565093 17.3780863,26.1067724 17.9610967,25.5182231 C19.5461697,23.9180908 21.7021658,23 24,23 ZM24,17 C27.9608447,17 31.6713729,18.5977892 34.3820267,21.377564 C34.6225923,21.624264 34.854353,21.8794295 35.0768329,22.1425501 C35.611724,22.7751503 35.5325151,23.721589 34.8999149,24.2564801 C34.2673147,24.7913711 33.320876,24.7121623 32.7859849,24.079562 C32.6093017,23.8706039 32.4252356,23.6679496 32.2341704,23.4720123 C30.0824936,21.2654681 27.1437109,20 24,20 C21.0213646,20 18.2247462,21.1351663 16.1032926,23.1398105 C15.9700233,23.2657419 15.8397577,23.3948263 15.7126166,23.5269439 C15.5399314,23.7063881 15.3730762,23.891359 15.2123393,24.0815444 C14.6775902,24.7142646 13.7311693,24.7936858 13.0984491,24.2589367 C12.4657289,23.7241875 12.3863077,22.7777666 12.9210568,22.1450464 C13.1234582,21.9055632 13.3335505,21.6726609 13.550976,21.4467251 C13.7110515,21.2803841 13.8750599,21.1178628 14.0428521,20.9593095 C16.7158621,18.433478 20.2474074,17 24,17 Z">
    </path>
</svg>