<svg viewBox="0 0 48 48" xmlns="http://www.w3.org/2000/svg">
    <path fill-rule="evenodd" clip-rule="evenodd"
        d="M38 35V31.0027L42.5417 33.7753C43.0583 34.0854 43.6833 34.0761 44.1833 33.7377C44.6917 33.3993 45 32.7789 45 32.121V15.879C45 15.2211 44.6917 14.6007 44.1833 14.2623C43.6833 13.924 43.0583 13.9146 42.5417 14.2247L38 16.9973V13C38 10.7909 36.2091 9 34 9H6C3.79086 9 2 10.7909 2 13V35C2 37.2091 3.79086 39 6 39H34C36.2091 39 38 37.2091 38 35ZM34 12H6C5.44772 12 5 12.4477 5 13V35C5 35.5523 5.44772 36 6 36H34C34.5523 36 35 35.5523 35 35V13C35 12.4477 34.5523 12 34 12ZM42 29.9297L38 27.4878V20.5122L42 18.0703V29.9297ZM15 24C15 21.24 17.24 19 20 19C22.76 19 25 21.24 25 24C25 26.76 22.76 29 20 29C17.24 29 15 26.76 15 24Z" />
</svg>