<svg viewBox="0 0 48 48" xmlns="http://www.w3.org/2000/svg">
  <path fill-rule="evenodd" clip-rule="evenodd"
    d="M14.5 5C12.0147 5 10 7.01472 10 9.5V38.5C10 40.9853 12.0147 43 14.5 43H33.5C35.9853 43 38 40.9853 38 38.5V9.5C38 7.01472 35.9853 5 33.5 5H14.5ZM13 9.5C13 8.67157 13.6716 8 14.5 8H33.5C34.3284 8 35 8.67157 35 9.5V38.5C35 39.3284 34.3284 40 33.5 40H14.5C13.6716 40 13 39.3284 13 38.5V9.5ZM22.899 12.7993C23.5622 13.2957 23.6974 14.2358 23.2009 14.899L19.2009 20.2423C18.7044 20.9055 17.7644 21.0407 17.1012 20.5442C16.438 20.0478 16.3028 19.1077 16.7993 18.4445L20.7993 13.1012C21.2957 12.438 22.2358 12.3028 22.899 12.7993ZM29.899 13.7993C30.5622 14.2957 30.6974 15.2358 30.2009 15.899L22.2009 26.5857C21.7044 27.2489 20.7644 27.384 20.1012 26.8876C19.438 26.3911 19.3028 25.451 19.7993 24.7878L27.7993 14.1012C28.2957 13.438 29.2358 13.3028 29.899 13.7993Z" />
</svg>