<?xml version="1.0" encoding="UTF-8"?>
<svg width="48px" height="48px" viewBox="0 0 48 48" version="1.1" xmlns="http://www.w3.org/2000/svg" xmlns:xlink="http://www.w3.org/1999/xlink">
    <title>录屏_lm</title>
    <g id="录屏_lm" stroke="none" stroke-width="1" fill="none" fill-rule="evenodd">
        <g transform="translate(3.000000, 9.000000)" fill="#4D4D4D">
            <path d="M32,0 C34.209139,0 36,1.790861 36,4 L36,26 C36,28.209139 34.209139,30 32,30 L4,30 C1.790861,30 0,28.209139 0,26 L0,4 C0,1.790861 1.790861,0 4,0 L32,0 Z M32,3 L4,3 C3.48716416,3 3.06449284,3.38604019 3.00672773,3.88337887 L3,4 L3,26 C3,26.5128358 3.38604019,26.9355072 3.88337887,26.9932723 L4,27 L32,27 C32.5128358,27 32.9355072,26.6139598 32.9932723,26.1166211 L33,26 L33,4 C33,3.48716416 32.6139598,3.06449284 32.1166211,3.00672773 L32,3 Z" id="矩形" fill-rule="nonzero"></path>
            <circle id="椭圆形" cx="18" cy="15" r="5"></circle>
            <path d="M42.7526178,6.41889096 C42.9150273,6.71418093 43.000186,7.04572252 43.000186,7.38272846 L43.000186,22.6176436 C43.000186,23.7222131 42.1047555,24.6176436 41.000186,24.6176436 C40.6631801,24.6176436 40.3316385,24.5324849 40.0363485,24.3700754 L35,21.5993564 L35,18.1763564 L40.000186,20.927186 L40.000186,9.07418602 L35,11.8233564 L35,8.39935642 L40.0363485,5.63029664 C41.0041899,5.09798389 42.2203051,5.45104959 42.7526178,6.41889096 Z" id="形状结合" fill-rule="nonzero"></path>
        </g>
    </g>
</svg>