<?xml version="1.0" encoding="UTF-8"?>
<svg width="32px" height="32px" viewBox="0 0 32 32" version="1.1" xmlns="http://www.w3.org/2000/svg" xmlns:xlink="http://www.w3.org/1999/xlink">
    <title>搜索_lm</title>
    <g id="搜索_lm" stroke="none" stroke-width="1" fill="none" fill-rule="evenodd">
        <g transform="translate(4.000000, 4.000000)" fill="#333333" fill-rule="nonzero">
            <path d="M12,0 C18.6302182,0 24,5.36976 24,12 C24,18.6302182 18.6302182,24 12,24 C5.36976,24 0,18.6302182 0,12 C0,5.36976 5.36976,0 12,0 Z M12,2 C6.4743295,2 2,6.4743295 2,12 C2,17.5256568 6.4743376,22 12,22 C17.5256487,22 22,17.5256487 22,12 C22,6.4743376 17.5256568,2 12,2 Z" id="路径备份"></path>
            <path d="M19.2928932,19.2928932 C19.6533772,18.9324093 20.2206082,18.9046797 20.6128994,19.2097046 L20.7071068,19.2928932 L24.7071068,23.2928932 C25.0976311,23.6834175 25.0976311,24.3165825 24.7071068,24.7071068 C24.3466228,25.0675907 23.7793918,25.0953203 23.3871006,24.7902954 L23.2928932,24.7071068 L19.2928932,20.7071068 C18.9023689,20.3165825 18.9023689,19.6834175 19.2928932,19.2928932 Z" id="路径"></path>
        </g>
    </g>
</svg>