<svg viewBox="0 0 48 48" xmlns="http://www.w3.org/2000/svg">
    <path
        d="M39 23.5C39 14.9362 32.0637 8 23.5 8C14.9362 8 8 14.9362 8 23.5C8 32.0637 14.9362 39 23.5 39C27.2413 39 30.6719 37.6762 33.3493 35.4711L37.4389 39.5607C38.0246 40.1464 38.9744 40.1464 39.5602 39.5607C40.146 38.9749 40.146 38.0251 39.5602 37.4393L35.4707 33.3498C37.676 30.6724 39 27.2415 39 23.5ZM23.5 11C30.4069 11 36 16.5931 36 23.5C36 30.4069 30.4069 36 23.5 36C16.5931 36 11 30.4069 11 23.5C11 16.5931 16.5931 11 23.5 11Z" />
</svg>