<?xml version="1.0" encoding="UTF-8"?>
<svg width="32px" height="32px" viewBox="0 0 32 32" version="1.1" xmlns="http://www.w3.org/2000/svg" xmlns:xlink="http://www.w3.org/1999/xlink">
    <title>可见_lm</title>
    <g id="可见_lm" stroke="none" stroke-width="1" fill="none" fill-rule="evenodd">
        <g id="编组" transform="translate(2.000000, 7.000000)" fill="#333333" fill-rule="nonzero">
            <path d="M14,0 C21.7319865,0 28,6 28,9 C28,12 21.7319865,18 14,18 C6.2680135,18 0,12 0,9 C0,6 6.2680135,0 14,0 Z M14,2 C10.8969448,2 7.79598402,3.12819055 5.29027666,4.98262046 C4.21723671,5.77675844 3.32680574,6.65810537 2.72350159,7.49639618 C2.23307089,8.17784937 2,8.7417059 2,9 C2,9.2582941 2.23307089,9.82215063 2.72350159,10.5036038 C3.32680574,11.3418946 4.21723671,12.2232416 5.29027666,13.0173795 C7.79598402,14.8718094 10.8969448,16 14,16 C17.1030552,16 20.204016,14.8718094 22.7097233,13.0173795 C23.7827633,12.2232416 24.6731943,11.3418946 25.2764984,10.5036038 C25.7669291,9.82215063 26,9.2582941 26,9 C26,8.7417059 25.7669291,8.17784937 25.2764984,7.49639618 C24.6731943,6.65810537 23.7827633,5.77675844 22.7097233,4.98262046 C20.204016,3.12819055 17.1030552,2 14,2 Z" id="椭圆形"></path>
            <path d="M14,4 C16.7614237,4 19,6.23857625 19,9 C19,11.7614237 16.7614237,14 14,14 C11.2385763,14 9,11.7614237 9,9 C9,6.23857625 11.2385763,4 14,4 Z M14,6 C12.3431458,6 11,7.34314575 11,9 C11,10.6568542 12.3431458,12 14,12 C15.6568542,12 17,10.6568542 17,9 C17,7.34314575 15.6568542,6 14,6 Z" id="椭圆形"></path>
        </g>
    </g>
</svg>