<svg viewBox="0 0 48 48" xmlns="http://www.w3.org/2000/svg">
    <path fill-rule="evenodd" clip-rule="evenodd"
        d="M31.0005 24C31.0005 27.866 27.8665 31 24.0005 31C20.1345 31 17.0005 27.866 17.0005 24C17.0005 20.134 20.1345 17 24.0005 17C27.8665 17 31.0005 20.134 31.0005 24ZM28.0005 24C28.0005 26.2091 26.2096 28 24.0005 28C21.7913 28 20.0005 26.2091 20.0005 24C20.0005 21.7909 21.7913 20 24.0005 20C26.2096 20 28.0005 21.7909 28.0005 24ZM4.63019 25.2502C4.20725 24.4702 4.20725 23.5298 4.63019 22.7498C8.43233 15.7378 15.682 11 24.0003 11C32.3186 11 39.5683 15.7378 43.3705 22.7498C43.7934 23.5298 43.7934 24.4702 43.3705 25.2502C39.5683 32.2622 32.3186 37 24.0003 37C15.682 37 8.43233 32.2622 4.63019 25.2502ZM24.0003 34C16.9333 34 10.7081 30.0172 7.36614 24C10.7081 17.9828 16.9333 14 24.0003 14C31.0673 14 37.2925 17.9828 40.6345 24C37.2925 30.0172 31.0673 34 24.0003 34Z" />
</svg>