<svg viewBox="0 0 32 32" xmlns="http://www.w3.org/2000/svg">
  <path
    d="M11 16C11 13.2377 13.2377 11 16 11C18.7623 11 21 13.2377 21 16C21 18.7623 18.7623 21 16 21C13.2377 21 11 18.7623 11 16ZM16 13C14.3423 13 13 14.3423 13 16C13 17.6577 14.3423 19 16 19C17.6577 19 19 17.6577 19 16C19 14.3423 17.6577 13 16 13ZM13.6765 2.61024C14.3941 2.20083 15.2054 2 16 2C16.7946 2 17.6059 2.20083 18.3235 2.61024C18.3244 2.61075 18.3253 2.61125 18.3261 2.61176L27.3097 7.67811C27.3099 7.67821 27.3095 7.67801 27.3097 7.67811C28.3405 8.2573 29 9.33285 29 10.52V21.48C29 22.6674 28.3408 23.7428 27.3097 24.3219L18.3261 29.3882C18.3253 29.3888 18.3244 29.3893 18.3235 29.3898C17.6059 29.7992 16.7946 30 16 30C15.2054 30 14.3941 29.7992 13.6765 29.3898C13.6756 29.3893 13.6747 29.3888 13.6739 29.3882L4.69031 24.3219C4.69024 24.3219 4.69037 24.3219 4.69031 24.3219C3.65929 23.7427 3 22.6673 3 21.48V10.52C3 9.33299 3.65879 8.25786 4.68941 7.67861C4.68971 7.67844 4.69001 7.67827 4.69031 7.67811L13.6765 2.61024ZM16 4C15.5356 4 15.0679 4.11867 14.6661 4.34824L14.6612 4.35105L5.66969 9.42189C5.24082 9.66277 5 10.0874 5 10.52V21.48C5 21.9126 5.24083 22.3372 5.66969 22.5781L5.67123 22.579L14.6661 27.6517C15.0679 27.8813 15.5356 28 16 28C16.4644 28 16.9321 27.8813 17.3339 27.6518L17.3388 27.649L26.3303 22.5781C26.7592 22.3372 27 21.9126 27 21.48V10.52C27 10.0874 26.7592 9.66277 26.3303 9.42189L17.3339 4.34826C16.9321 4.11869 16.4644 4 16 4Z" />
</svg>