<svg width="80" height="80" viewBox="0 0 80 80" fill="none" xmlns="http://www.w3.org/2000/svg">
<path d="M37 13C37 11.3431 38.3431 10 40 10C41.6569 10 43 11.3431 43 13V35C43 36.6569 41.6569 38 40 38C38.3431 38 37 36.6569 37 35V13Z" fill="#4D4D4D"/>
<path fill-rule="evenodd" clip-rule="evenodd" d="M23.9874 17.9939C25.0953 19.2259 24.9948 21.1227 23.7628 22.2306C18.9785 26.5334 16 32.6905 16 39.5207C16 52.4332 26.6898 63 40 63C53.3102 63 64 52.4332 64 39.5207C64 32.6905 61.0215 26.5334 56.2372 22.2306C55.0052 21.1227 54.9047 19.2259 56.0126 17.9939C57.1206 16.762 59.0174 16.6615 60.2493 17.7694C66.2297 23.1478 70 30.8979 70 39.5207C70 55.8565 56.5132 69 40 69C23.4868 69 10 55.8565 10 39.5207C10 30.8979 13.7703 23.1478 19.7507 17.7694C20.9826 16.6615 22.8794 16.762 23.9874 17.9939Z" fill="#4D4D4D"/>
</svg>
