<?xml version="1.0" encoding="UTF-8"?>
<svg width="32px" height="32px" viewBox="0 0 32 32" version="1.1" xmlns="http://www.w3.org/2000/svg" xmlns:xlink="http://www.w3.org/1999/xlink">
    <title>icon/ 32/ 信号_3格 4g_lm</title>
    <g id="icon/-32/-信号_3格-4g_lm" stroke="none" stroke-width="1" fill="none" fill-rule="evenodd">
        <g id="信号_4格-4g_lm-23" transform="translate(5.000000, 1.000000)" fill="#333333">
            <rect id="矩形" fill-rule="nonzero" opacity="0.4" x="19" y="6" width="3" height="18" rx="1"></rect>
            <rect id="矩形" fill-rule="nonzero" opacity="0.4" x="1" y="18" width="3" height="6" rx="1"></rect>
            <rect id="矩形" x="1" y="18" width="3" height="6" rx="1"></rect>
            <rect id="矩形备份" x="7" y="14" width="3" height="10" rx="1"></rect>
            <rect id="矩形备份-2" x="13" y="11" width="3" height="13" rx="1"></rect>
            <g id="编组">
                <path d="M12,8 C13.1046,8 14,7.10457 14,6 L12,6 L12,4 L16,4 L16,6 C16,8.20914 14.2091,10 12,10 C9.7909,10 8,8.20914 8,6 L8,4 C8,1.79086 9.7909,0 12,0 C13.566,0 14.9218,0.89989 15.5785,2.21075 L13.7892,3.10538 C13.4609,2.44994 12.783,2 12,2 C10.8954,2 10,2.89543 10,4 L10,6 C10,7.10457 10.8954,8 12,8 Z" id="路径" fill-rule="nonzero"></path>
                <path d="M6,0 L6,10 L4,10 L4,8 L0,8 L0,6 L4.06136,0 L6,0 Z M4,3 L2,6 L4,6 L4,3 Z" id="形状结合"></path>
                <polygon id="路径" fill-rule="nonzero" points="6 6 7 6 7 8 6 8"></polygon>
            </g>
        </g>
    </g>
</svg>