<svg width="32" height="32" viewBox="0 0 32 32" fill="none" xmlns="http://www.w3.org/2000/svg">
<rect opacity="0.4" x="23" y="7" width="3" height="18" rx="1" fill="#333333"/>
<rect opacity="0.4" x="17" y="12" width="3" height="13" rx="1" fill="#333333"/>
<rect opacity="0.4" x="11" y="15" width="3" height="10" rx="1" fill="#333333"/>
<rect x="5" y="19" width="3" height="6" rx="1" fill="#333333"/>
<g clip-path="url(#clip0_6476_261169)">
<path d="M16 9C17.1046 9 18 8.10457 18 7H16V5H20V7C20 9.20914 18.2091 11 16 11C13.7909 11 12 9.20914 12 7V5C12 2.79086 13.7909 1 16 1C17.566 1 18.9218 1.89989 19.5785 3.21075L17.7892 4.10538C17.4609 3.44994 16.783 3 16 3C14.8954 3 14 3.89543 14 5V7C14 8.10457 14.8954 9 16 9Z" fill="#333333"/>
<path fill-rule="evenodd" clip-rule="evenodd" d="M5 1L4.02649 6.84106C4.01647 6.89364 4.00763 6.94662 4 7H6.04991C6.16871 6.66387 6.40392 6.38273 6.70711 6.20501C6.92941 6.0747 7.18826 6 7.46456 6C8.29298 6 8.96456 6.67157 8.96456 7.5C8.96456 8.32843 8.29298 9 7.46456 9C7.09598 9 6.75846 8.86707 6.49731 8.64653C6.29571 8.47628 6.13962 8.25382 6.04991 8C6.02524 7.93019 6.00558 7.85802 5.99139 7.7839L4.23043 8.84047C4.75652 10.1083 6.0064 11 7.46456 11C9.39755 11 10.9646 9.433 10.9646 7.5C10.9646 5.567 9.39755 4 7.46456 4C7.21286 4 6.96737 4.02657 6.73074 4.07705L7 3H10V1H5Z" fill="#333333"/>
</g>
<defs>
<clipPath id="clip0_6476_261169">
<rect width="16" height="10" fill="white" transform="translate(4 1)"/>
</clipPath>
</defs>
</svg>
