<svg width="48" height="48" viewBox="0 0 48 48" fill="none" xmlns="http://www.w3.org/2000/svg">
<g clip-path="url(#clip0_6583_197846)">
<path d="M9.36446 23.4776C9.24788 23.6026 9.15663 23.7426 9.0907 23.8911C9.00792 24.0772 8.96191 24.2833 8.96191 24.5001C8.96191 24.7116 9.00568 24.9129 9.08466 25.0954C9.15765 25.2644 9.26319 25.4227 9.4013 25.5608L16.8944 33.054L19.0158 30.9327L14.0832 26.0001L29 26.0001L29 23.0001L14.0833 23.0001L19.0158 18.0676L16.8944 15.9463L9.40526 23.4355C9.39139 23.4492 9.37778 23.4633 9.36446 23.4776Z" fill="#4D4D4D"/>
<path fill-rule="evenodd" clip-rule="evenodd" d="M20 11H34C35.1046 11 36 11.8954 36 13V35C36 36.1046 35.1046 37 34 37H20H18.5C17.6716 37 17 37.6716 17 38.5C17 39.3284 17.6716 40 18.5 40H34C36.7614 40 39 37.7614 39 35V13C39 10.2386 36.7614 8 34 8H18.5C17.6716 8 17 8.67157 17 9.5C17 10.3284 17.6716 11 18.5 11H20Z" fill="#4D4D4D"/>
</g>
<defs>
<clipPath id="clip0_6583_197846">
<rect width="48" height="48" fill="white"/>
</clipPath>
</defs>
</svg>
