<svg width="32" height="32" viewBox="0 0 32 32" fill="none" xmlns="http://www.w3.org/2000/svg">
<rect opacity="0.4" x="23" y="7" width="3" height="18" rx="1" fill="#333333"/>
<rect opacity="0.4" x="17" y="12" width="3" height="13" rx="1" fill="#333333"/>
<rect opacity="0.4" x="11" y="15" width="3" height="10" rx="1" fill="#333333"/>
<rect opacity="0.4" x="5" y="19" width="3" height="6" rx="1" fill="#333333"/>
<g clip-path="url(#clip0_6455_260737)">
<path fill-rule="evenodd" clip-rule="evenodd" d="M9.97765 5C9.97765 6.10457 9.08222 7 7.97765 7C7.61336 7 7.27182 6.90261 6.97765 6.73244V7H6.97754V11H8.97754V8.87401C10.7028 8.43001 11.9776 6.86388 11.9776 5C11.9776 2.79086 10.1868 1 7.97765 1C5.9122 1 4.21238 2.56547 4 4.57462L5.98262 4.85785C6.05553 3.81962 6.92087 3 7.97765 3C9.08222 3 9.97765 3.89543 9.97765 5ZM7.97754 14C8.52982 14 8.97754 13.5523 8.97754 13C8.97754 12.4477 8.52982 12 7.97754 12C7.42525 12 6.97754 12.4477 6.97754 13C6.97754 13.5523 7.42525 14 7.97754 14Z" fill="#333333"/>
</g>
<defs>
<clipPath id="clip0_6455_260737">
<rect width="8" height="13" fill="white" transform="translate(4 1)"/>
</clipPath>
</defs>
</svg>
