<svg width="32" height="32" viewBox="0 0 32 32" fill="none" xmlns="http://www.w3.org/2000/svg">
<path opacity="0.4" d="M28.8285 9.28583C28.9062 9.15636 29.0938 9.15636 29.1715 9.28583L31.8183 13.6971C31.8982 13.8304 31.8022 14 31.6468 14H26.3532C26.1978 14 26.1018 13.8304 26.1817 13.6971L28.8285 9.28583Z" fill="#333333"/>
<path d="M28.8285 22.7142C28.9062 22.8436 29.0938 22.8436 29.1715 22.7142L31.8183 18.3029C31.8982 18.1696 31.8022 18 31.6468 18H26.3532C26.1978 18 26.1018 18.1696 26.1817 18.3029L28.8285 22.7142Z" fill="#333333"/>
<g clip-path="url(#clip0_6460_260830)">
<path d="M12 9C13.1046 9 14 8.10457 14 7H12V5H16V7C16 9.20914 14.2091 11 12 11C9.79086 11 8 9.20914 8 7V5C8 2.79086 9.79086 1 12 1C13.566 1 14.9218 1.89989 15.5785 3.21075L13.7892 4.10538C13.4609 3.44994 12.783 3 12 3C10.8954 3 10 3.89543 10 5V7C10 8.10457 10.8954 9 12 9Z" fill="#333333"/>
<path fill-rule="evenodd" clip-rule="evenodd" d="M2.50002 6.5L1.00002 5.5L4.50002 3H0.999992L1 1H7.00002V3L5.17033 4.4231C6.26064 5.016 7.00069 6.17155 7.00069 7.49994C7.00069 9.43294 5.43369 10.9999 3.50069 10.9999C2.10449 10.9999 0.899236 10.1824 0.337504 8.99994C0.189834 8.68909 0.0866359 8.35302 0.0361328 7.99994H2.08604C2.29196 8.58254 2.84758 8.99994 3.50069 8.99994C4.32912 8.99994 5.00069 8.32837 5.00069 7.49994C5.00069 6.86089 4.60106 6.31517 4.03807 6.09907C3.87124 6.03504 3.69006 5.99994 3.50069 5.99994C3.38278 5.99994 3.26806 6.01355 3.15799 6.03927C3.14578 6.04212 3.13362 6.04513 3.12153 6.04828C3.09993 6.0539 3.07852 6.06 3.05731 6.06655L2.50002 6.5Z" fill="#333333"/>
</g>
<rect opacity="0.4" x="19" y="7" width="3" height="18" rx="1" fill="#333333"/>
<rect x="13" y="12" width="3" height="13" rx="1" fill="#333333"/>
<rect x="7" y="15" width="3" height="10" rx="1" fill="#333333"/>
<rect x="1" y="19" width="3" height="6" rx="1" fill="#333333"/>
<defs>
<clipPath id="clip0_6460_260830">
<rect width="16" height="10" fill="white" transform="translate(0 1)"/>
</clipPath>
</defs>
</svg>
