<svg width="32" height="32" viewBox="0 0 32 32" fill="none" xmlns="http://www.w3.org/2000/svg">
<path d="M28.8285 9.28583C28.9062 9.15636 29.0938 9.15636 29.1715 9.28583L31.8183 13.6971C31.8982 13.8304 31.8022 14 31.6468 14H26.3532C26.1978 14 26.1018 13.8304 26.1817 13.6971L28.8285 9.28583Z" fill="#333333"/>
<path opacity="0.4" d="M28.8285 22.7142C28.9062 22.8436 29.0938 22.8436 29.1715 22.7142L31.8183 18.3029C31.8982 18.1696 31.8022 18 31.6468 18H26.3532C26.1978 18 26.1018 18.1696 26.1817 18.3029L28.8285 22.7142Z" fill="#333333"/>
<g clip-path="url(#clip0_6460_260830)">
<path d="M12 9C13.1046 9 14 8.10457 14 7H12V5H16V7C16 9.20914 14.2091 11 12 11C9.79086 11 8 9.20914 8 7V5C8 2.79086 9.79086 1 12 1C13.566 1 14.9218 1.89989 15.5785 3.21075L13.7892 4.10538C13.4609 3.44994 12.783 3 12 3C10.8954 3 10 3.89543 10 5V7C10 8.10457 10.8954 9 12 9Z" fill="#333333"/>
<path fill-rule="evenodd" clip-rule="evenodd" d="M1 1L0.0264894 6.84106C0.0164742 6.89364 0.00763494 6.94662 0 7H2.04991C2.16871 6.66387 2.40392 6.38273 2.70711 6.20501C2.92941 6.0747 3.18826 6 3.46456 6C4.29298 6 4.96456 6.67157 4.96456 7.5C4.96456 8.32843 4.29298 9 3.46456 9C3.09598 9 2.75846 8.86707 2.49731 8.64653C2.29571 8.47628 2.13962 8.25382 2.04991 8C2.02524 7.93019 2.00558 7.85802 1.99139 7.7839L0.230434 8.84047C0.756517 10.1083 2.0064 11 3.46456 11C5.39755 11 6.96456 9.433 6.96456 7.5C6.96456 5.567 5.39755 4 3.46456 4C3.21286 4 2.96737 4.02657 2.73074 4.07705L3 3H6V1H1Z" fill="#333333"/>
</g>
<rect opacity="0.4" x="19" y="7" width="3" height="18" rx="1" fill="#333333"/>
<rect opacity="0.4" x="13" y="12" width="3" height="13" rx="1" fill="#333333"/>
<rect opacity="0.4" x="7" y="15" width="3" height="10" rx="1" fill="#333333"/>
<rect opacity="0.4" x="1" y="19" width="3" height="6" rx="1" fill="#333333"/>
<defs>
<clipPath id="clip0_6460_260830">
<rect width="16" height="10" fill="white" transform="translate(0 1)"/>
</clipPath>
</defs>
</svg>
