<svg width="32" height="32" viewBox="0 0 32 32" fill="none" xmlns="http://www.w3.org/2000/svg">
<rect x="23" y="7" width="3" height="18" rx="1" fill="#333333"/>
<rect x="17" y="12" width="3" height="13" rx="1" fill="#333333"/>
<rect x="11" y="15" width="3" height="10" rx="1" fill="#333333"/>
<rect x="5" y="19" width="3" height="6" rx="1" fill="#333333"/>
<g clip-path="url(#clip0_6476_261423)">
<path d="M16 9C17.1046 9 18 8.10457 18 7H16V5H20V7C20 9.20914 18.2091 11 16 11C13.7909 11 12 9.20914 12 7V5C12 2.79086 13.7909 1 16 1C17.566 1 18.9218 1.89989 19.5785 3.21075L17.7892 4.10538C17.4609 3.44994 16.783 3 16 3C14.8954 3 14 3.89543 14 5V7C14 8.10457 14.8954 9 16 9Z" fill="#333333"/>
<path fill-rule="evenodd" clip-rule="evenodd" d="M6.50002 6.5L5.00002 5.5L8.50002 3H4.99999L5 1H11V3L9.17033 4.4231C10.2606 5.016 11.0007 6.17155 11.0007 7.49994C11.0007 9.43294 9.43369 10.9999 7.50069 10.9999C6.10449 10.9999 4.89924 10.1824 4.3375 8.99994C4.18983 8.68909 4.08664 8.35302 4.03613 7.99994H6.08604C6.29196 8.58254 6.84758 8.99994 7.50069 8.99994C8.32912 8.99994 9.00069 8.32837 9.00069 7.49994C9.00069 6.86089 8.60106 6.31517 8.03807 6.09907C7.87124 6.03504 7.69006 5.99994 7.50069 5.99994C7.38278 5.99994 7.26806 6.01355 7.15799 6.03927C7.14578 6.04212 7.13362 6.04513 7.12153 6.04828C7.09993 6.0539 7.07852 6.06 7.05731 6.06655L6.50002 6.5Z" fill="#333333"/>
</g>
<defs>
<clipPath id="clip0_6476_261423">
<rect width="16" height="10" fill="white" transform="translate(4 1)"/>
</clipPath>
</defs>
</svg>
