<svg width="32" height="32" viewBox="0 0 32 32" fill="none" xmlns="http://www.w3.org/2000/svg">
<path d="M28.8285 9.28583C28.9062 9.15636 29.0938 9.15636 29.1715 9.28583L31.8183 13.6971C31.8982 13.8304 31.8022 14 31.6468 14H26.3532C26.1978 14 26.1018 13.8304 26.1817 13.6971L28.8285 9.28583Z" fill="#333333"/>
<path d="M28.8285 22.7142C28.9062 22.8436 29.0938 22.8436 29.1715 22.7142L31.8183 18.3029C31.8982 18.1696 31.8022 18 31.6468 18H26.3532C26.1978 18 26.1018 18.1696 26.1817 18.3029L28.8285 22.7142Z" fill="#333333"/>
<g clip-path="url(#clip0_6460_260830)">
<path d="M12 9C13.1046 9 14 8.10457 14 7H12V5H16V7C16 9.20914 14.2091 11 12 11C9.79086 11 8 9.20914 8 7V5C8 2.79086 9.79086 1 12 1C13.566 1 14.9218 1.89989 15.5785 3.21075L13.7892 4.10538C13.4609 3.44994 12.783 3 12 3C10.8954 3 10 3.89543 10 5V7C10 8.10457 10.8954 9 12 9Z" fill="#333333"/>
<path d="M4.2459 5.81621L4.23466 5.80808C4.25495 5.79666 4.27494 5.78478 4.29463 5.77246C4.7059 5.39821 4.93227 5.05819 5 4.49988C4.99994 3.67151 4.32839 3 3.5 3C2.67157 3 2 3.67157 2 4.5L0 4.49999C0 4.15251 0.0506397 3.81685 0.144941 3.5C0.575217 2.05425 1.91449 1 3.5 1C5.43296 1 6.99994 2.56694 7 4.49988C7 4.49992 7 4.49984 7 4.49988C6.9991 4.51292 6.92565 5.54176 5.99544 6.44852L3 8.99988H7V10.9999H0V8.99988L3 6.81621C3.21076 6.64533 3.40355 6.49451 3.57907 6.35722C3.83832 6.15442 4.05987 5.98111 4.2459 5.81621Z" fill="#333333"/>
</g>
<rect opacity="0.4" x="19" y="7" width="3" height="18" rx="1" fill="#333333"/>
<rect opacity="0.4" x="13" y="12" width="3" height="13" rx="1" fill="#333333"/>
<rect opacity="0.4" x="7" y="15" width="3" height="10" rx="1" fill="#333333"/>
<rect opacity="0.4" x="1" y="19" width="3" height="6" rx="1" fill="#333333"/>
<defs>
<clipPath id="clip0_6460_260830">
<rect width="16" height="10" fill="white" transform="translate(0 1)"/>
</clipPath>
</defs>
</svg>
