<svg width="32" height="32" viewBox="0 0 32 32" fill="none" xmlns="http://www.w3.org/2000/svg">
<rect opacity="0.4" x="23" y="7" width="3" height="18" rx="1" fill="#333333"/>
<rect opacity="0.4" x="17" y="12" width="3" height="13" rx="1" fill="#333333"/>
<rect opacity="0.4" x="11" y="15" width="3" height="10" rx="1" fill="#333333"/>
<rect x="5" y="19" width="3" height="6" rx="1" fill="#333333"/>
<g clip-path="url(#clip0_6476_261263)">
<path d="M16 9C17.1046 9 18 8.10457 18 7H16V5H20V7C20 9.20914 18.2091 11 16 11C13.7909 11 12 9.20914 12 7V5C12 2.79086 13.7909 1 16 1C17.566 1 18.9218 1.89989 19.5785 3.21075L17.7892 4.10538C17.4609 3.44994 16.783 3 16 3C14.8954 3 14 3.89543 14 5V7C14 8.10457 14.8954 9 16 9Z" fill="#333333"/>
<path d="M8.2459 5.81621L8.23466 5.80808C8.25495 5.79666 8.27494 5.78478 8.29463 5.77246C8.7059 5.39821 8.93227 5.05819 9 4.49988C8.99994 3.67151 8.32839 3 7.5 3C6.67157 3 6 3.67157 6 4.5L4 4.49999C4 4.15251 4.05064 3.81685 4.14494 3.5C4.57522 2.05425 5.91449 1 7.5 1C9.43296 1 10.9999 2.56694 11 4.49988C11 4.49992 11 4.49984 11 4.49988C10.9991 4.51292 10.9257 5.54176 9.99544 6.44852L7 8.99988H11V10.9999H4V8.99988L7 6.81621C7.21076 6.64533 7.40355 6.49451 7.57907 6.35722C7.83832 6.15442 8.05987 5.98111 8.2459 5.81621Z" fill="#333333"/>
</g>
<defs>
<clipPath id="clip0_6476_261263">
<rect width="16" height="10" fill="white" transform="translate(4 1)"/>
</clipPath>
</defs>
</svg>
