<svg width="48" height="48" viewBox="0 0 48 48" fill="none" xmlns="http://www.w3.org/2000/svg">
<path fill-rule="evenodd" clip-rule="evenodd" d="M15 8C12.7909 8 11 9.79086 11 12V36C11 38.2091 12.7909 40 15 40H33C35.2091 40 37 38.2091 37 36V16.8284C37 16.298 36.7893 15.7893 36.4142 15.4142L29.5858 8.58579C29.2107 8.21071 28.702 8 28.1716 8H15ZM28 30V28H23.4813L25.627 25.5677C26.1954 24.9976 26.6406 24.5178 26.9627 24.1283C27.2848 23.7292 27.5311 23.3254 27.7016 22.9169C27.8721 22.5083 28 22.0665 28 21.5914C28 20.8979 27.7916 20.2803 27.46 19.7387C27.1285 19.1971 26.5933 18.7743 25.9964 18.4703C25.3996 18.1568 24.7223 18 23.9645 18C22.9698 18 22.1456 18.2185 21.492 18.6556C20.8478 19.0831 20.4973 19.5 20 20.5L21.6625 21.4632C21.9893 21 22.2167 20.7363 22.5861 20.4418C22.9556 20.1473 23.4198 20 23.9787 20C24.5565 20 25.1297 20.158 25.4707 20.5C25.8117 20.842 25.968 21.1544 25.968 21.5914C25.968 22.0285 25.8686 22.4276 25.6696 22.7886C25.4707 23.1496 25.1107 23.5914 24.5897 24.114L20 28.5748V30H28Z" fill="#4D4D4D"/>
</svg>
