<svg width="32" height="32" viewBox="0 0 32 32" fill="none" xmlns="http://www.w3.org/2000/svg">
<path fill-rule="evenodd" clip-rule="evenodd" d="M5 8.13C5 7.01 5.95 6.1 7.12 6.1C7.54 6.1 7.95 6.22 8.3 6.44L20.76 14.38C20.83 14.42 20.89 14.47 20.95 14.52V7.75C20.95 6.23 22.18 5 23.7 5H24.25C25.77 5 27 6.23 27 7.75V24.25C27 25.77 25.77 27 24.25 27H23.7C22.18 27 20.95 25.77 20.95 24.25V16.87C20.91 16.91 20.86 16.94 20.81 16.97L8.36 25.52C7.41 26.17 6.08 25.96 5.4 25.06C5.14 24.71 5 24.3 5 23.87V8.13Z" fill="black"/>
</svg>
