<svg width="48" height="48" viewBox="0 0 48 48" fill="none" xmlns="http://www.w3.org/2000/svg">
<path d="M20.9888 25.9777C19.6109 24.5998 16 16 16 16C16 16 24.6005 19.6109 25.9777 20.9888C26.6344 21.6514 27.002 22.5471 27 23.4801C26.9979 24.413 26.6264 25.3071 25.9668 25.9668C25.3071 26.6264 24.413 26.9979 23.4801 27C22.5471 27.002 21.6514 26.6344 20.9888 25.9777Z" fill="#4D4D4D"/>
<path fill-rule="evenodd" clip-rule="evenodd" d="M8 24C8 32.8277 15.1723 40 24 40C32.8269 40 39.9987 32.829 40 24.0025C39.9927 15.1732 32.8278 8.00791 23.9987 8C15.1716 8.0007 8 15.1727 8 24ZM43 24C43 34.4845 34.4845 43 24 43C13.5155 43 5 34.4845 5 24C5 13.5155 13.5155 5 24 5C34.4845 5.00864 42.9914 13.5155 43 24Z" fill="#4D4D4D"/>
</svg>
