<svg width="48" height="48" viewBox="0 0 48 48" fill="none" xmlns="http://www.w3.org/2000/svg">
<path fill-rule="evenodd" clip-rule="evenodd" d="M5 33.5C5 35.9853 7.01472 38 9.5 38L38.5 38C40.9853 38 43 35.9853 43 33.5V19.5V12.5C43 10.0147 40.9853 8 38.5 8H9.5C7.01472 8 5 10.0147 5 12.5V19.5V33.5ZM40 15.2561V12.5C40 11.6716 39.3284 11 38.5 11L9.5 11C8.67157 11 8 11.6716 8 12.5V15.2561C8.46917 15.0902 8.97405 15 9.5 15L38.5 15C39.026 15 39.5308 15.0902 40 15.2561ZM8 19.5L8 33.5C8 34.3284 8.67157 35 9.5 35L38.5 35C39.3284 35 40 34.3284 40 33.5V19.5C40 18.6716 39.3284 18 38.5 18L9.5 18C8.67157 18 8 18.6716 8 19.5Z" fill="#4D4D4D"/>
<rect x="32" y="12" width="2" height="2" fill="#4D4D4D"/>
<rect x="36" y="12" width="2" height="2" fill="#4D4D4D"/>
<path fill-rule="evenodd" clip-rule="evenodd" d="M19.229 22.1399C19.7041 22.8186 19.539 23.7539 18.8604 24.229L15.6159 26.5001L18.8604 28.7713C19.539 29.2464 19.7041 30.1816 19.229 30.8603C18.7539 31.539 17.8187 31.704 17.14 31.229L12.7251 28.1386C11.5877 27.3424 11.5877 25.6579 12.7251 24.8617L17.14 21.7713C17.8187 21.2962 18.7539 21.4613 19.229 22.1399Z" fill="#4D4D4D"/>
<path fill-rule="evenodd" clip-rule="evenodd" d="M28.771 22.1399C28.2959 22.8186 28.461 23.7539 29.1396 24.229L32.3841 26.5001L29.1396 28.7713C28.461 29.2464 28.2959 30.1816 28.771 30.8603C29.2461 31.539 30.1813 31.704 30.86 31.229L35.2749 28.1386C36.4123 27.3424 36.4123 25.6579 35.2749 24.8617L30.86 21.7713C30.1813 21.2962 29.2461 21.4613 28.771 22.1399Z" fill="#4D4D4D"/>
<path fill-rule="evenodd" clip-rule="evenodd" d="M26.744 21.6974C27.4633 22.1084 27.7131 23.0247 27.3021 23.744L23.3021 30.744C22.8911 31.4633 21.9748 31.7131 21.2556 31.3021C20.5363 30.8911 20.2864 29.9748 20.6974 29.2556L24.6974 22.2556C25.1084 21.5363 26.0247 21.2864 26.744 21.6974Z" fill="#4D4D4D"/>
</svg>
