<svg viewBox="0 0 48 48" xmlns="http://www.w3.org/2000/svg">
  <path fill-rule="evenodd" clip-rule="evenodd"
    d="M9.5 38C7.01472 38 5 35.9853 5 33.5V12.5C5 10.0147 7.01472 8 9.5 8H38.5C40.9853 8 43 10.0147 43 12.5V33.5C43 35.9853 40.9853 38 38.5 38L9.5 38ZM40 12.5V15.2561C39.5308 15.0902 39.026 15 38.5 15L9.5 15C8.97405 15 8.46917 15.0902 8 15.2561V12.5C8 11.6716 8.67157 11 9.5 11L38.5 11C39.3284 11 40 11.6716 40 12.5ZM8 33.5L8 19.5C8 18.6716 8.67157 18 9.5 18L38.5 18C39.3284 18 40 18.6716 40 19.5V33.5C40 34.3284 39.3284 35 38.5 35L9.5 35C8.67157 35 8 34.3284 8 33.5ZM34 12H32V14H34V12ZM36 12H38V14H36V12ZM18.8604 24.229C19.539 23.7539 19.7041 22.8186 19.229 22.1399C18.7539 21.4613 17.8187 21.2962 17.14 21.7713L12.7251 24.8617C11.5877 25.6579 11.5877 27.3424 12.7251 28.1386L17.14 31.229C17.8187 31.704 18.7539 31.539 19.229 30.8603C19.7041 30.1816 19.539 29.2464 18.8604 28.7713L15.6159 26.5001L18.8604 24.229ZM28.771 22.1399C28.2959 22.8186 28.461 23.7539 29.1396 24.229L32.3841 26.5001L29.1396 28.7713C28.461 29.2464 28.2959 30.1816 28.771 30.8603C29.2461 31.539 30.1813 31.704 30.86 31.229L35.2749 28.1386C36.4123 27.3424 36.4123 25.6579 35.2749 24.8617L30.86 21.7713C30.1813 21.2962 29.2461 21.4613 28.771 22.1399ZM27.3021 23.744C27.7131 23.0247 27.4633 22.1084 26.744 21.6974C26.0247 21.2864 25.1084 21.5363 24.6974 22.2556L20.6974 29.2556C20.2864 29.9748 20.5363 30.8911 21.2556 31.3021C21.9748 31.7131 22.8911 31.4633 23.3021 30.744L27.3021 23.744Z" />
</svg>