<svg viewBox="0 0 48 48" xmlns="http://www.w3.org/2000/svg">
    <path fill-rule="evenodd" clip-rule="evenodd"
        d="M39.9018 17.2018C39.8662 17.0957 39.8211 16.9903 39.7658 16.8866L35.6237 9.11805C34.9286 7.81437 33.5715 7 32.0941 7H16.9015C15.4241 7 14.067 7.81435 13.3719 9.11799L9.22966 16.8866C9.17249 16.9938 9.12617 17.1028 9.09012 17.2127C8.4054 18.1297 8 19.2675 8 20.5C8 23.5376 10.4624 26 13.5 26H35.5C38.5376 26 41 23.5376 41 20.5C41 19.2626 40.5914 18.1207 39.9018 17.2018ZM32.0941 10H16.9015C16.5322 10 16.1929 10.2036 16.0191 10.5295L13.6354 15H35.3601L32.9765 10.5295C32.8027 10.2036 32.4635 10 32.0941 10ZM35.5 18H13.5C12.1193 18 11 19.1193 11 20.5C11 21.8807 12.1193 23 13.5 23H35.5C36.8807 23 38 21.8807 38 20.5C38 19.1193 36.8807 18 35.5 18ZM8 33.5C8 30.4624 10.4624 28 13.5 28H35.5C38.5376 28 41 30.4624 41 33.5C41 36.5376 38.5376 39 35.5 39H13.5C10.4624 39 8 36.5376 8 33.5ZM13.5 31H35.5C36.8807 31 38 32.1193 38 33.5C38 34.8807 36.8807 36 35.5 36H13.5C12.1193 36 11 34.8807 11 33.5C11 32.1193 12.1193 31 13.5 31ZM13 21C13 20.4477 13.4477 20 14 20H18C18.5523 20 19 20.4477 19 21C19 21.5523 18.5523 22 18 22H14C13.4477 22 13 21.5523 13 21ZM14 33C13.4477 33 13 33.4477 13 34C13 34.5523 13.4477 35 14 35H18C18.5523 35 19 34.5523 19 34C19 33.4477 18.5523 33 18 33H14Z" />
</svg>