<?xml version="1.0" encoding="UTF-8"?>
<svg width="48px" height="48px" viewBox="0 0 48 48" version="1.1" xmlns="http://www.w3.org/2000/svg" xmlns:xlink="http://www.w3.org/1999/xlink">
    <title>储存_lm</title>
    <g id="储存_lm" stroke="none" stroke-width="1" fill="none" fill-rule="evenodd">
        <g id="储存" transform="translate(7.000000, 8.000000)" fill="#4D4D4D" fill-rule="nonzero">
            <path d="M27.5,21 C30.5376,21 33,23.4624 33,26.5 C33,29.4635122 30.6562522,31.8795407 27.7212095,31.9956329 L27.5,32 L5.5,32 C2.4624,32 0,29.5376 0,26.5 C0,23.5364878 2.34374777,21.1204593 5.2787905,21.0043671 L5.5,21 L27.5,21 Z M27.5,24 L5.5,24 C4.11925425,24 3,25.1192542 3,26.5 C3,27.8255159 4.03150472,28.9100413 5.33562057,28.9946825 L5.5,29 L27.5,29 C28.8807458,29 30,27.8807458 30,26.5 C30,25.1744841 28.9684953,24.0899587 27.6643794,24.0053175 L27.5,24 Z" id="路径"></path>
            <path d="M27.5,9 C30.5376,9 33,11.4624 33,14.5 C33,17.4635122 30.6562522,19.8795407 27.7212095,19.9956329 L27.5,20 L5.5,20 C2.4624,20 0,17.5376 0,14.5 C0,11.5364878 2.34374777,9.12045925 5.2787905,9.00436714 L5.5,9 L27.5,9 Z M27.5,12 L5.5,12 C4.11925425,12 3,13.1192542 3,14.5 C3,15.8255159 4.03150472,16.9100413 5.33562057,16.9946825 L5.5,17 L27.5,17 C28.8807458,17 30,15.8807458 30,14.5 C30,13.1744841 28.9684953,12.0899587 27.6643794,12.0053175 L27.5,12 Z" id="路径备份"></path>
            <path d="M24.0941,0 C25.5715,0 26.9286,0.888403636 27.6237,2.3106 L31.7658,10.7853818 C31.9595,11.1817091 32.0286,11.6005091 31.996,12 L0.99944,12 C0.96685,11.6005091 1.03594,11.1817091 1.22966,10.7853818 L5.3719,2.31053455 C6.067,0.888381818 7.4241,0 8.9015,0 L24.0941,0 Z M24.0941,3 L8.9015,3 C8.63003321,3 8.34191095,3.1688645 8.13905567,3.49728484 L8.0671809,3.62790346 L5.44,9 L27.554,9 L24.9284004,3.62793059 C24.7484491,3.25974474 24.4704994,3.04996882 24.1964758,3.00789746 L24.0941,3 Z" id="路径"></path>
            <rect id="矩形" x="5" y="14" width="6" height="2" rx="1"></rect>
            <rect id="矩形" x="5" y="26" width="6" height="2" rx="1"></rect>
        </g>
    </g>
</svg>