<svg width="48" height="48" viewBox="0 0 48 48" fill="#FFFFFF" xmlns="http://www.w3.org/2000/svg">
  <path opacity="0.94"
    d="M24.004 43C20.5748 43.0015 17.2092 42.0747 14.2641 40.3181C11.3191 38.5614 8.90462 36.0404 7.27676 33.0225C5.6489 30.0046 4.86841 26.6024 5.01811 23.1768C5.16781 19.7512 6.24211 16.43 8.12704 13.5656L13 23L8.15056 21.0782L8.0601 21.7014C7.58523 25.0088 8.15086 28.382 9.67862 31.3536C11.2064 34.3253 13.6206 36.7483 16.5869 38.2869C19.5532 39.8255 22.9246 40.4036 26.234 39.9411C29.5435 39.4786 32.6272 37.9983 35.0578 35.7054L36.2944 38.4821C32.8578 41.3888 28.5052 42.9888 24.004 43ZM39.8647 34.4464L35.0578 25L39.8385 26.9392L39.9289 26.3178C40.335 23.5089 39.9918 20.6426 38.934 18.009C37.8763 15.3753 36.1416 13.0678 33.9054 11.3198C30.8697 8.94814 27.0842 7.7434 23.2359 7.92429C19.3877 8.10518 15.7319 9.65971 12.9321 12.3057L11.6928 9.52895C15.1761 6.56498 19.6119 4.95717 24.1855 5.00087C28.7591 5.04456 33.1634 6.73682 36.5894 9.7668C40.0153 12.7968 42.2329 16.961 42.8348 21.4946C43.4366 26.0282 42.3824 30.6267 39.8656 34.4455L39.8647 34.4464Z" />
  <path opacity="0.5"
    d="M24 30C27.3137 30 30 27.3137 30 24C30 20.6863 27.3137 18 24 18C20.6863 18 18 20.6863 18 24C18 27.3137 20.6863 30 24 30Z"
    fill="#F4F4F4" />
</svg>