<svg width="48" height="48" viewBox="0 0 48 48" fill="none" xmlns="http://www.w3.org/2000/svg">
<path d="M8 12H39C39.5523 12 40 12.4477 40 13V35C40 35.5523 39.5523 36 39 36H25V39H39C41.2091 39 43 37.2091 43 35V13C43 10.7909 41.2091 9 39 9H8C5.79086 9 4 10.7909 4 13V18H7V13C7 12.4477 7.44772 12 8 12Z" fill="#4D4D4D"/>
<rect x="35" y="20" width="3" height="8" rx="1.5" fill="#4D4D4D"/>
<path fill-rule="evenodd" clip-rule="evenodd" d="M20.4362 21.8614C20.5249 21.5585 20.6496 21.2604 20.812 20.9735L17.4478 19C17.4199 19.0499 17.3909 19.0993 17.3609 19.1481C17.0369 19.6749 16.5898 20.1337 16.0346 20.4714C14.3073 21.522 12.1467 21.0323 11.0475 19.3989C10.9825 19.3022 10.9212 19.2016 10.8639 19.0971L7.44061 21.1798C7.76193 21.7544 7.94125 22.4269 7.92963 23.1474C7.89817 25.3124 6.16624 27.0956 4.06036 27.1323L4 31.189C4.09166 31.1869 4.18344 31.1883 4.27515 31.1931C4.83287 31.2225 5.38809 31.3812 5.90024 31.6815C7.69324 32.7331 8.2748 35.1238 7.20278 37.0271L10.5676 39C10.5916 38.9573 10.6164 38.915 10.642 38.8732C10.9667 38.3414 11.4163 37.879 11.9763 37.5382C13.7094 36.4838 15.8781 36.9806 16.9734 38.6271C17.0306 38.7131 17.0849 38.8023 17.1361 38.8946L20.56 36.8119C20.2451 36.2404 20.0703 35.5752 20.0799 34.8616C20.1127 32.7015 21.8366 30.9203 23.9365 30.8768C23.9376 30.8768 23.9386 30.8768 23.9396 30.8768L24 26.8205C23.9158 26.8222 23.8315 26.821 23.7472 26.8168C23.1874 26.789 22.6283 26.6309 22.1135 26.3288C22.1126 26.3283 22.1118 26.3278 22.111 26.3274C22.1113 26.3275 22.1107 26.3272 22.111 26.3274L22.1101 26.3288C22.1104 26.329 22.1099 26.3287 22.1101 26.3288C22.1093 26.3283 22.1076 26.3273 22.1068 26.3269C20.5835 25.4318 19.9364 23.569 20.4362 21.8614ZM17.2763 23.2163C15.2202 24.3238 12.8459 24.263 10.9286 23.2295C10.8792 25.7042 9.53551 27.9316 7.51562 29.1521C9.58136 30.4099 10.6747 32.5703 10.7339 34.7936C12.7898 33.6858 15.1638 33.7463 17.0809 34.7797C17.1312 32.307 18.4735 30.0786 20.4934 28.8574C18.4276 27.5993 17.3354 25.4391 17.2763 23.2163Z" fill="#4D4D4D"/>
</svg>
