<svg viewBox="0 0 48 48" xmlns="http://www.w3.org/2000/svg">
  <path fill-rule="evenodd" clip-rule="evenodd"
    d="M20.812 20.9735C20.6496 21.2604 20.5249 21.5585 20.4362 21.8614C19.9364 23.569 20.5835 25.4318 22.1068 26.3269L22.1101 26.3288L22.111 26.3274L22.1135 26.3288C22.6283 26.6309 23.1874 26.789 23.7472 26.8168C23.8315 26.821 23.9158 26.8222 24 26.8205L23.9396 30.8768L23.9365 30.8768C21.8366 30.9203 20.1127 32.7015 20.0799 34.8616C20.0703 35.5752 20.2451 36.2404 20.56 36.8119L17.1361 38.8946C17.0849 38.8023 17.0306 38.7131 16.9734 38.6271C15.8781 36.9806 13.7094 36.4838 11.9763 37.5382C11.4163 37.879 10.9667 38.3414 10.642 38.8732C10.6164 38.915 10.5916 38.9573 10.5676 39L7.20278 37.0271C8.2748 35.1238 7.69324 32.7331 5.90024 31.6815C5.38809 31.3812 4.83287 31.2225 4.27515 31.1931C4.18344 31.1883 4.09166 31.1869 4 31.189L4.06036 27.1323C6.16624 27.0956 7.89817 25.3125 7.92963 23.1474C7.94125 22.4269 7.76193 21.7544 7.44061 21.1798L10.8639 19.0971C10.9212 19.2016 10.9825 19.3022 11.0475 19.3989C12.1467 21.0323 14.3073 21.522 16.0346 20.4714C16.5898 20.1337 17.0369 19.6749 17.3609 19.1481C17.3909 19.0993 17.4199 19.0499 17.4478 19L20.812 20.9735ZM10.9286 23.2295C12.8459 24.263 15.2202 24.3238 17.2763 23.2163C17.3354 25.4391 18.4276 27.5993 20.4934 28.8574C18.4735 30.0786 17.1312 32.307 17.0809 34.7797C15.1638 33.7463 12.7898 33.6858 10.7339 34.7936C10.6747 32.5703 9.58136 30.4099 7.51562 29.1521C9.53551 27.9316 10.8792 25.7042 10.9286 23.2295ZM8 12H39C39.5523 12 40 12.4477 40 13V35C40 35.5523 39.5523 36 39 36H25V39H39C41.2091 39 43 37.2091 43 35V13C43 10.7909 41.2091 9 39 9H8C5.79086 9 4 10.7909 4 13V18H7V13C7 12.4477 7.44772 12 8 12ZM35 21.5C35 20.6716 35.6716 20 36.5 20C37.3284 20 38 20.6716 38 21.5V26.5C38 27.3284 37.3284 28 36.5 28C35.6716 28 35 27.3284 35 26.5V21.5Z" />
</svg>