<?xml version="1.0" encoding="UTF-8"?>
<svg width="48px" height="48px" viewBox="0 0 48 48" version="1.1" xmlns="http://www.w3.org/2000/svg" xmlns:xlink="http://www.w3.org/1999/xlink">
    <title>可信根_lm</title>
    <g id="可信根_lm" stroke="none" stroke-width="1" fill="none" fill-rule="evenodd">
        <path d="M27.5,3 C28.3284271,3 29,3.67157288 29,4.5 L29,9 L34,9 C36.7614237,9 39,11.2385763 39,14 L39,19 L42.5,19 C43.3284271,19 44,19.6715729 44,20.5 C44,21.3284271 43.3284271,22 42.5,22 L39,22 L39,26 L42.5,26 C43.3284271,26 44,26.6715729 44,27.5 C44,28.3284271 43.3284271,29 42.5,29 L39,29 L39,34 C39,36.7614237 36.7614237,39 34,39 L29,39 L29,43.5 C29,44.3284271 28.3284271,45 27.5,45 C26.6715729,45 26,44.3284271 26,43.5 L26,39 L22,39 L22,43.5 C22,44.3284271 21.3284271,45 20.5,45 C19.6715729,45 19,44.3284271 19,43.5 L19,39 L14,39 C11.2385763,39 9,36.7614237 9,34 L9,29 L4.5,29 C3.67157288,29 3,28.3284271 3,27.5 C3,26.6715729 3.67157288,26 4.5,26 L9,26 L9,22 L4.5,22 C3.67157288,22 3,21.3284271 3,20.5 C3,19.6715729 3.67157288,19 4.5,19 L9,19 L9,14 C9,11.2385763 11.2385763,9 14,9 L19,9 L19,4.5 C19,3.67157288 19.6715729,3 20.5,3 C21.3284271,3 22,3.67157288 22,4.5 L22,9 L26,9 L26,4.5 C26,3.67157288 26.6715729,3 27.5,3 Z M34,12 L14,12 C12.9456382,12 12.0818349,12.8158778 12.0054857,13.8507377 L12,14 L12,34 C12,35.0543618 12.8158778,35.9181651 13.8507377,35.9945143 L14,36 L34,36 C35.0543618,36 35.9181651,35.1841222 35.9945143,34.1492623 L36,34 L36,14 C36,12.9456382 35.1841222,12.0818349 34.1492623,12.0054857 L34,12 Z" id="形状结合" fill="#4D4D4D" fill-rule="nonzero"></path>
        <path d="M26,18 C28.209139,18 30,19.790861 30,22 L30,26 C30,28.209139 28.209139,30 26,30 L22,30 C19.790861,30 18,28.209139 18,26 L18,22 C18,19.790861 19.790861,18 22,18 L26,18 Z M26,21 L22,21 C21.4871642,21 21.0644928,21.3860402 21.0067277,21.8833789 L21,22 L21,26 C21,26.5128358 21.3860402,26.9355072 21.8833789,26.9932723 L22,27 L26,27 C26.5128358,27 26.9355072,26.6139598 26.9932723,26.1166211 L27,26 L27,22 C27,21.4871642 26.6139598,21.0644928 26.1166211,21.0067277 L26,21 Z" id="矩形备份" fill="#4D4D4D" fill-rule="nonzero"></path>
    </g>
</svg>