<svg viewBox="0 0 48 48" xmlns="http://www.w3.org/2000/svg">
  <path
    d="M22.9496 15.4349L31.4349 6.94963C31.8254 6.55911 32.4586 6.55911 32.8491 6.94963L41.3344 15.4349C41.7249 15.8254 41.7249 16.4586 41.3344 16.8491L32.8491 25.3344C32.4586 25.7249 31.8254 25.7249 31.4349 25.3344L29.6715 23.571L27.5502 25.6923L29.3136 27.4557C30.8757 29.0178 33.4083 29.0178 34.9704 27.4557L43.4557 18.9704C45.0178 17.4083 45.0178 14.8757 43.4557 13.3136L34.9704 4.82831C33.4083 3.26621 30.8757 3.26621 29.3136 4.82831L20.8283 13.3136C19.2662 14.8757 19.2662 17.4083 20.8283 18.9704L23.3075 21.4497L25.4288 19.3283L22.9496 16.8491C22.5591 16.4586 22.5591 15.8254 22.9496 15.4349ZM18.9704 20.8283L21.4497 23.3075L19.3283 25.4288L16.8491 22.9496C16.4586 22.5591 15.8254 22.5591 15.4349 22.9496L6.94963 31.4349C6.55911 31.8254 6.55911 32.4586 6.94963 32.8491L15.4349 41.3344C15.8254 41.7249 16.4586 41.7249 16.8491 41.3344L25.3344 32.8491C25.7249 32.4586 25.7249 31.8254 25.3344 31.4349L23.571 29.6715L25.6923 27.5502L27.4557 29.3136C29.0178 30.8757 29.0178 33.4083 27.4557 34.9704L18.9704 43.4557C17.4083 45.0178 14.8757 45.0178 13.3136 43.4557L4.82831 34.9704C3.26621 33.4083 3.26621 30.8757 4.82831 29.3136L13.3136 20.8283C14.8757 19.2662 17.4083 19.2662 18.9704 20.8283ZM33.0607 18.0607C33.6464 17.4749 33.6464 16.5251 33.0607 15.9393C32.4749 15.3536 31.5251 15.3536 30.9393 15.9393L15.9393 30.9393C15.3536 31.5251 15.3536 32.4749 15.9393 33.0607C16.5251 33.6464 17.4749 33.6464 18.0607 33.0607L33.0607 18.0607Z" />
</svg>