<?xml version="1.0" encoding="UTF-8"?>
<svg width="48px" height="48px" viewBox="0 0 48 48" version="1.1" xmlns="http://www.w3.org/2000/svg" xmlns:xlink="http://www.w3.org/1999/xlink">
    <title>可信os_lm</title>
    <g id="可信os_lm" stroke="none" stroke-width="1" fill="none" fill-rule="evenodd">
        <path d="M39,8 C41.209139,8 43,9.790861 43,12 L43,35 C43,37.209139 41.209139,39 39,39 L8,39 C5.790861,39 4,37.209139 4,35 L4,12 C4,9.790861 5.790861,8 8,8 L39,8 Z M39,11 L8,11 C7.48716416,11 7.06449284,11.3860402 7.00672773,11.8833789 L7,12 L7,35 C7,35.5128358 7.38604019,35.9355072 7.88337887,35.9932723 L8,36 L39,36 C39.5128358,36 39.9355072,35.6139598 39.9932723,35.1166211 L40,35 L40,12 C40,11.4871642 39.6139598,11.0644928 39.1166211,11.0067277 L39,11 Z" id="矩形" fill="#4D4D4D" fill-rule="nonzero"></path>
        <path d="M18,16 C19.6568542,16 21,17.3431458 21,19 L21,28 C21,29.6568542 19.6568542,31 18,31 L15,31 C13.3431458,31 12,29.6568542 12,28 L12,19 C12,17.3431458 13.3431458,16 15,16 L18,16 Z M18,19 L15,19 L15,28 L18,28 L18,19 Z" id="矩形" fill="#4D4D4D" fill-rule="nonzero"></path>
        <path d="M26.8966,31 C30.2299,31 32,29.0068 32,26.477 C32,23.845 30.1379,22.8739 28.4368,22.1584 C27.0575,21.6218 25.8851,21.2129 25.8851,20.1908 C25.8851,19.3475 26.4138,18.7853 27.5862,18.7853 C28.5287,18.7853 29.4483,19.2964 30.3448,20.0119 L31.8851,17.7632 C30.8276,16.8433 29.3563,16 27.4943,16 C24.5517,16 22.7126,17.8143 22.7126,20.3441 C22.7126,22.7717 24.5287,23.845 26.1609,24.5605 C27.4943,25.1227 28.8506,25.6337 28.8506,26.6814 C28.8506,27.5758 28.2529,28.2147 26.9655,28.2147 C25.7701,28.2147 24.6897,27.6269 23.5172,26.6303 L22,29.0068 C23.2644,30.1823 25.1724,31 26.8966,31 Z" id="路径" fill="#4D4D4D" fill-rule="nonzero"></path>
        <rect id="矩形" fill="#4D4D4D" fill-rule="nonzero" x="35" y="20" width="3" height="8" rx="1.5"></rect>
    </g>
</svg>