<svg width="48" height="48" viewBox="0 0 48 48" fill="none" xmlns="http://www.w3.org/2000/svg">
<path d="M31.4349 6.94963L22.9496 15.4349C22.5591 15.8254 22.5591 16.4586 22.9496 16.8491L25.4288 19.3283L23.3075 21.4497L20.8283 18.9704C19.2662 17.4083 19.2662 14.8757 20.8283 13.3136L29.3136 4.82831C30.8757 3.26621 33.4083 3.26621 34.9704 4.82831L43.4557 13.3136C45.0178 14.8757 45.0178 17.4083 43.4557 18.9704L34.9704 27.4557C33.4083 29.0178 30.8757 29.0178 29.3136 27.4557L27.5502 25.6923L29.6715 23.571L31.4349 25.3344C31.8254 25.7249 32.4586 25.7249 32.8491 25.3344L41.3344 16.8491C41.7249 16.4586 41.7249 15.8254 41.3344 15.4349L32.8491 6.94963C32.4586 6.55911 31.8254 6.55911 31.4349 6.94963ZM21.4497 23.3075L18.9704 20.8283C17.4083 19.2662 14.8757 19.2662 13.3136 20.8283L4.82831 29.3136C3.26621 30.8757 3.26621 33.4083 4.82831 34.9704L13.3136 43.4557C14.8757 45.0178 17.4083 45.0178 18.9704 43.4557L27.4557 34.9704C29.0178 33.4083 29.0178 30.8757 27.4557 29.3136L25.6923 27.5502L23.571 29.6715L25.3344 31.4349C25.7249 31.8254 25.7249 32.4586 25.3344 32.8491L16.8491 41.3344C16.4586 41.7249 15.8254 41.7249 15.4349 41.3344L6.94963 32.8491C6.55911 32.4586 6.55911 31.8254 6.94963 31.4349L15.4349 22.9496C15.8254 22.5591 16.4586 22.5591 16.8491 22.9496L19.3283 25.4288L21.4497 23.3075Z" fill="#4D4D4D"/>
<path d="M31.4349 6.94963L22.9496 15.4349C22.5591 15.8254 22.5591 16.4586 22.9496 16.8491L25.4288 19.3283L23.3075 21.4497L20.8283 18.9704C19.2662 17.4083 19.2662 14.8757 20.8283 13.3136L29.3136 4.82831C30.8757 3.26621 33.4083 3.26621 34.9704 4.82831L43.4557 13.3136C45.0178 14.8757 45.0178 17.4083 43.4557 18.9704L34.9704 27.4557C33.4083 29.0178 30.8757 29.0178 29.3136 27.4557L27.5502 25.6923L29.6715 23.571L31.4349 25.3344C31.8254 25.7249 32.4586 25.7249 32.8491 25.3344L41.3344 16.8491C41.7249 16.4586 41.7249 15.8254 41.3344 15.4349L32.8491 6.94963C32.4586 6.55911 31.8254 6.55911 31.4349 6.94963ZM21.4497 23.3075L18.9704 20.8283C17.4083 19.2662 14.8757 19.2662 13.3136 20.8283L4.82831 29.3136C3.26621 30.8757 3.26621 33.4083 4.82831 34.9704L13.3136 43.4557C14.8757 45.0178 17.4083 45.0178 18.9704 43.4557L27.4557 34.9704C29.0178 33.4083 29.0178 30.8757 27.4557 29.3136L25.6923 27.5502L23.571 29.6715L25.3344 31.4349C25.7249 31.8254 25.7249 32.4586 25.3344 32.8491L16.8491 41.3344C16.4586 41.7249 15.8254 41.7249 15.4349 41.3344L6.94963 32.8491C6.55911 32.4586 6.55911 31.8254 6.94963 31.4349L15.4349 22.9496C15.8254 22.5591 16.4586 22.5591 16.8491 22.9496L19.3283 25.4288L21.4497 23.3075Z" stroke="#4D4D4D"/>
<path fill-rule="evenodd" clip-rule="evenodd" d="M33.0607 15.9393C33.6464 16.5251 33.6464 17.4749 33.0607 18.0607L18.0607 33.0607C17.4749 33.6464 16.5251 33.6464 15.9393 33.0607C15.3536 32.4749 15.3536 31.5251 15.9393 30.9393L30.9393 15.9393C31.5251 15.3536 32.4749 15.3536 33.0607 15.9393Z" fill="#4D4D4D"/>
</svg>
