<svg width="32" height="32" viewBox="0 0 32 32" fill="none" xmlns="http://www.w3.org/2000/svg">
<g clip-path="url(#clip0_2073_78772)">
<path d="M20.6008 11.6559C20.8994 11.6559 21.1945 11.6796 21.486 11.7142C20.6904 7.86268 16.7262 5 12.2017 5C7.14333 5 3 8.58154 3 13.1301C3 15.7556 4.37877 17.9103 6.68315 19.5834L5.7628 22.4589L8.97875 20.7839C10.1309 21.0211 11.0548 21.2638 12.2017 21.2638C12.4915 21.2638 12.7778 21.2492 13.0624 21.2273C12.8759 20.5764 12.7801 19.9012 12.7778 19.2222C12.7778 15.0458 16.2291 11.6577 20.6008 11.6577V11.6559ZM15.653 9.06504C16.3468 9.06504 16.8052 9.53941 16.8052 10.2583C16.8052 10.9753 16.3468 11.4552 15.653 11.4552C14.9645 11.4552 14.2708 10.9753 14.2708 10.2583C14.2708 9.53941 14.9645 9.06504 15.653 9.06504ZM9.21235 11.4552C8.52385 11.4552 7.82832 10.9753 7.82832 10.2583C7.82832 9.53941 8.52385 9.06504 9.21235 9.06504C9.90262 9.06504 10.361 9.53941 10.361 10.2583C10.361 10.9753 9.90437 11.4552 9.21235 11.4552Z" fill="#4D4D4D"/>
<path d="M29.0003 19.1072C29.0003 15.2849 25.3189 12.1704 21.1844 12.1704C16.8057 12.1704 13.3579 15.2849 13.3579 19.1072C13.3579 22.9351 16.8057 26.0441 21.1844 26.0441C22.0995 26.0441 23.0251 25.8051 23.9454 25.5642L26.4694 27.0001L25.7773 24.6118C27.6251 23.1705 29.0003 21.2638 29.0003 19.1072ZM18.6446 17.914C18.188 17.914 17.7243 17.4396 17.7243 16.9561C17.7243 16.4818 18.1862 16.0001 18.6446 16.0001C19.3402 16.0001 19.7968 16.4799 19.7968 16.9561C19.7968 17.4396 19.3402 17.914 18.6446 17.914ZM23.7066 17.914C23.2499 17.914 22.7932 17.4396 22.7932 16.9561C22.7932 16.4818 23.2499 16.0001 23.7066 16.0001C24.3968 16.0001 24.857 16.4799 24.857 16.9561C24.857 17.4396 24.3968 17.914 23.7066 17.914Z" fill="#4D4D4D"/>
</g>
<defs>
<clipPath id="clip0_2073_78772">
<rect width="32" height="32" fill="white"/>
</clipPath>
</defs>
</svg>
