<svg viewBox="0 0 32 32" fill="none" xmlns="http://www.w3.org/2000/svg">
  <path
    d="M32 21C32 19.8954 31.1046 19 30 19V18.5C30 17.1193 28.8807 16 27.5 16C26.1193 16 25 17.1193 25 18.5V19C23.8954 19 23 19.8954 23 21V24C23 25.1046 23.8954 26 25 26H30C31.1046 26 32 25.1046 32 24V21ZM28.5 18.5V19H26.5V18.5C26.5 17.9477 26.9477 17.5 27.5 17.5C28.0523 17.5 28.5 17.9477 28.5 18.5ZM27.5 21C28.325 21 29 21.675 29 22.5C29 23.325 28.325 24 27.5 24C26.675 24 26 23.325 26 22.5C26 21.675 26.675 21 27.5 21Z"
    fill="#F4F4F4" />
  <path opacity="0.4"
    d="M26.6513 13.4387C23.9334 10.6976 20.1648 9 15.9997 9C11.8345 9 8.06594 10.6976 5.34799 13.4387L3.2666 11.2772C6.52437 8.01684 11.0265 6 15.9997 6C20.9728 6 25.4749 8.01684 28.7327 11.2772L26.6513 13.4387Z"
    fill="#F4F4F4" />
  <path
    d="M9.04938 17.2821C10.7001 15.2779 13.2008 14 15.9999 14C18.7991 14 21.2998 15.2779 22.9505 17.2821L25.0419 15.1103C22.8421 12.5914 19.6069 11 15.9999 11C12.393 11 9.15777 12.5914 6.95801 15.1103L9.04938 17.2821Z"
    fill="#F4F4F4" />
  <path
    d="M12.5715 20.9392C13.2714 19.7772 14.5452 19 16.0005 19C17.4558 19 18.7296 19.7772 19.4294 20.9392L21.5518 18.7352C20.272 17.0719 18.2614 16 16.0005 16C13.7396 16 11.729 17.0719 10.4492 18.7352L12.5715 20.9392Z"
    fill="#F4F4F4" />
  <path
    d="M13.6836 22.094L16.0004 24.5L18.3173 22.094C17.7671 21.426 16.9335 21 16.0004 21C15.0674 21 14.2338 21.426 13.6836 22.094Z"
    fill="#F4F4F4" />
</svg>