<svg viewBox="0 0 48 48" fill="none" xmlns="http://www.w3.org/2000/svg">
  <path
    d="M24 9C16.09 9 8.97 12.4 4 17.84L6.69 20.55C10.97 15.8 17.14 12.82 24 12.82C30.86 12.82 37.03 15.8 41.31 20.55L44 17.84C39.03 12.41 31.9 9 24 9Z"
    fill="#F4F4F4" />
  <path
    d="M24.0037 16.965C18.2738 16.965 13.1237 19.485 9.59375 23.475L12.2838 26.185C15.1237 22.885 19.3237 20.785 24.0037 20.785C28.6838 20.785 32.8738 22.885 35.7138 26.185L38.4037 23.475C34.8737 19.485 29.7337 16.965 24.0037 16.965Z"
    fill="#F4F4F4" />
  <path
    d="M23.9987 24.9301C20.4487 24.9301 17.2887 26.5701 15.1987 29.1301L17.8987 31.8501C19.2787 29.9701 21.4987 28.7501 23.9987 28.7501C26.4987 28.7501 28.7187 29.9701 30.0987 31.8501L32.7987 29.1301C30.7087 26.5701 27.5387 24.9301 23.9987 24.9301Z"
    fill="#F4F4F4" />
  <path
    d="M24.0018 32.5764C22.5418 32.5764 21.2718 33.4064 20.6418 34.6164L23.9918 37.9964L27.3518 34.6164C26.7218 33.3964 25.4618 32.5764 24.0018 32.5764Z"
    fill="#F4F4F4" />
</svg>