<svg width="32" height="32" viewBox="0 0 32 32" fill="none" xmlns="http://www.w3.org/2000/svg">
<g clip-path="url(#clip0_6455_260679)">
<path d="M26.14 16.4935C26.0649 15.6922 26.6952 15 27.5 15C28.3048 15 28.9351 15.6922 28.86 16.4935L28.32 22.2533C28.2803 22.6765 27.9251 23 27.5 23C27.0749 23 26.7197 22.6765 26.68 22.2533L26.14 16.4935Z" fill="#333333"/>
<circle cx="27.5" cy="25" r="1" fill="#333333"/>
<path opacity="0.4" d="M26.6513 13.4387C23.9334 10.6976 20.1648 9 15.9997 9C11.8345 9 8.06594 10.6976 5.34799 13.4387L3.2666 11.2772C6.52437 8.01684 11.0265 6 15.9997 6C20.9728 6 25.4749 8.01684 28.7327 11.2772L26.6513 13.4387Z" fill="#333333"/>
<path opacity="0.4" d="M9.04938 17.2821C10.7001 15.2779 13.2008 14 15.9999 14C18.7991 14 21.2998 15.2779 22.9505 17.2821L25.0419 15.1103C22.8421 12.5914 19.6069 11 15.9999 11C12.393 11 9.15777 12.5914 6.95801 15.1103L9.04938 17.2821Z" fill="#333333"/>
<path opacity="0.4" d="M12.5715 20.9392C13.2714 19.7772 14.5452 19 16.0005 19C17.4558 19 18.7296 19.7772 19.4294 20.9392L21.5518 18.7352C20.272 17.0719 18.2614 16 16.0005 16C13.7396 16 11.729 17.0719 10.4492 18.7352L12.5715 20.9392Z" fill="#333333"/>
<path d="M13.6836 22.094L16.0004 24.5L18.3173 22.094C17.7671 21.426 16.9335 21 16.0004 21C15.0674 21 14.2338 21.426 13.6836 22.094Z" fill="black"/>
</g>
<defs>
<clipPath id="clip0_6455_260679">
<rect width="32" height="32" fill="white"/>
</clipPath>
</defs>
</svg>
